ply
format ascii 1.0
comment Created by Blender 2.80 (sub 75) - www.blender.org, source file: ''
element vertex 1104
property float x
property float y
property float z
element face 1190
property list uchar uint vertex_indices
end_header
-16.712009 -0.535386 34.686211
-15.002510 -0.535385 31.195660
-0.005920 -0.466066 34.686642
-0.005920 -0.466065 31.195810
14.990670 -0.535385 31.195660
16.452480 -0.535894 26.195000
-21.854549 -0.535387 43.455818
-0.005920 -0.466067 43.456211
-24.197050 -0.535388 47.782761
-0.005920 -0.466068 47.783890
-0.005920 -0.466069 52.758011
21.695120 -0.466089 52.717510
-9.101500 -0.535390 -2.676380
-4.799130 -0.535909 -3.701490
-13.112050 -0.535390 -0.456760
-0.005920 -0.466320 -0.499890
-0.005920 -0.466181 5.407710
13.100210 -0.535390 -0.456760
16.515100 -0.535380 2.433320
-0.005920 -0.535919 -4.106420
4.787290 -0.535909 -3.701490
9.089660 -0.535380 -2.676380
-24.197050 -0.535388 47.782761
-21.706961 -0.466089 52.717510
-25.691401 -0.535409 52.889130
-21.707220 -0.466090 58.598461
-25.986570 -0.535410 58.598610
-21.708151 -0.466101 64.732712
-25.142630 -0.535411 64.733063
-23.769600 -0.535441 69.140953
-21.054350 -0.535442 73.223396
-21.370350 -0.466041 69.142059
-0.005920 -0.466063 76.938927
-16.917490 -0.535583 76.938637
-0.005920 -0.466061 69.139313
-21.370350 -0.466041 69.142059
-0.005920 -0.466071 64.727722
-21.708151 -0.466101 64.732712
-0.005920 -0.466070 58.598499
-21.707220 -0.466090 58.598461
-21.706961 -0.466089 52.717510
-15.002510 -0.535385 31.195660
-16.712009 -0.535386 34.686211
-23.509411 -0.549795 30.652941
-24.775690 -0.547776 34.724140
-28.541170 -0.556216 39.183830
-19.067591 -0.535386 39.114479
-21.854549 -0.535387 43.455818
-31.770590 -0.557997 43.517422
-24.197050 -0.535388 47.782761
-33.768841 -0.556428 47.667332
-25.691401 -0.535409 52.889130
-35.361469 -0.556919 52.914101
-36.141899 -0.556560 58.604778
-21.854549 -0.535387 43.455818
-19.067591 -0.535386 39.114479
-0.005920 -0.466067 43.456211
-0.005920 -0.466066 39.114948
19.055750 -0.535386 39.114479
16.700171 -0.535386 34.686211
-16.464310 -0.535904 26.195000
-0.005920 -0.466064 26.194750
18.311911 -0.535403 20.083920
-18.323750 -0.535403 20.083920
-0.005920 -0.466073 20.083710
-0.005920 -0.466073 15.652780
19.188601 -0.535383 15.630800
-0.005920 -0.466072 11.065520
19.713249 -0.535382 11.065490
18.515341 -0.535381 5.483390
-19.200439 -0.535383 15.630800
-19.725090 -0.535382 11.065490
-18.527180 -0.535391 5.483390
-16.917490 -0.535583 76.938637
-0.005920 -0.466063 76.938927
-11.467240 -0.535393 79.326492
-5.905470 -0.535403 80.842438
-0.005920 -0.466063 76.938927
-0.005920 -0.535913 81.323380
5.893640 -0.535393 80.842438
-15.002510 -0.535385 31.195660
-23.509411 -0.549795 30.652941
-16.464310 -0.535904 26.195000
-23.980110 -0.556534 26.173050
-18.323750 -0.535403 20.083920
-25.900921 -0.555013 20.051640
-27.336210 -0.556283 15.603150
-19.200439 -0.535383 15.630800
-28.169540 -0.557652 11.058410
-19.725090 -0.535382 11.065490
-27.819759 -0.558851 5.508160
-18.527180 -0.535391 5.483390
-25.703541 -0.558090 -0.496120
-16.526930 -0.535390 2.433320
-13.112050 -0.535390 -0.456760
-16.526930 -0.535390 2.433320
-0.005920 -0.466066 34.686642
-25.986570 -0.535410 58.598610
-25.142630 -0.535411 64.733063
-35.981590 -0.558021 64.713997
-34.082169 -0.559642 71.319031
-23.769600 -0.535441 69.140953
-31.444429 -0.565943 76.862900
-21.054350 -0.535442 73.223396
-16.917490 -0.535583 76.938637
-27.532339 -0.557873 81.612427
-21.853149 -0.557464 85.774368
-11.467240 -0.535393 79.326492
-15.214760 -0.556944 88.614227
-5.905470 -0.535403 80.842438
-7.807630 -0.556645 90.307098
-0.005920 -0.535913 81.323380
-0.005920 -0.556265 90.807388
-22.311100 -0.557939 -5.173550
-17.798389 -0.557139 -8.788780
-12.390920 -0.557728 -11.597450
-9.101500 -0.535390 -2.676380
-6.360380 -0.556508 -13.009200
-4.799130 -0.535909 -3.701490
-0.005920 -0.556818 -13.558770
-0.005920 -0.535919 -4.106420
4.787290 -0.535909 -3.701490
-16.711170 0.975864 34.686630
-0.005920 0.972214 34.686642
-15.001380 0.975865 31.195841
-0.005920 0.972215 31.195810
-16.463470 0.976936 26.194750
-0.005920 0.972216 26.194750
-18.323009 0.975897 20.083700
-0.005920 0.972217 20.083710
-0.005920 0.972207 15.630680
18.311180 0.975907 20.083700
19.187889 0.975867 15.630690
-9.101590 0.975870 -2.676490
-13.111120 0.975870 -0.455490
-4.798380 0.976941 -3.698810
-0.005920 0.972700 -0.496930
-0.005920 0.976941 -4.102850
4.786540 0.976941 -3.698810
-24.195820 0.975862 47.783970
-25.688280 0.975861 52.889561
-21.704430 0.972201 52.719379
-21.704420 0.972200 58.598598
-25.983589 0.975870 58.598480
-21.704580 0.972199 64.732513
-15.001380 0.975865 31.195841
-23.692579 0.958415 30.635880
-16.711170 0.975864 34.686630
-24.928471 0.961054 34.648479
-28.711990 0.950204 39.044540
-19.066839 0.975864 39.114929
-21.853930 0.975863 43.456181
-31.963570 0.947983 43.393730
-24.195820 0.975862 47.783970
-21.853930 0.975863 43.456181
-0.005920 0.972213 43.456211
-19.066839 0.975864 39.114929
-0.005920 0.972214 39.114948
-0.005920 0.972214 34.686642
-16.916519 0.976247 76.936577
-11.466490 0.975857 79.324661
-0.005920 0.972167 76.936493
-5.904960 0.975857 80.839973
-0.005920 0.976927 81.320419
-0.005920 0.972167 76.936493
5.893120 0.975867 80.839973
-33.974590 0.950032 47.585899
-25.688280 0.975861 52.889561
-35.579720 0.949381 52.864510
-36.363510 0.949860 58.592072
-25.983589 0.975870 58.598480
-25.138901 0.975859 64.732269
-15.001380 0.975865 31.195841
-16.463470 0.976936 26.194750
-23.692579 0.958415 30.635880
-24.198030 0.949676 26.216980
-18.323009 0.975897 20.083700
-26.104931 0.951787 20.116430
-27.549709 0.950187 15.658770
-19.199730 0.975867 15.630690
-28.396500 0.948478 11.072780
-19.724449 0.975868 11.065520
-28.047680 0.946949 5.458640
-18.526510 0.975869 5.483630
-25.906620 0.947940 -0.603120
-16.526270 0.975870 2.433860
-13.111120 0.975870 -0.455490
-21.704430 0.972201 52.719379
-21.704420 0.972200 58.598598
-0.005920 0.972211 52.758011
-0.005920 0.972210 58.598598
-36.207821 0.948009 64.750900
-34.302929 0.945858 71.405579
-23.752350 0.975099 69.133240
-31.663490 0.937677 77.011803
-21.051020 0.975888 73.220093
-16.916519 0.976247 76.936577
-27.687599 0.948437 81.779457
-21.964100 0.948716 85.971802
-11.466490 0.975857 79.324661
-15.283150 0.949365 88.827438
-5.904960 0.975857 80.839973
-7.839230 0.949745 90.527237
-0.005920 0.976927 81.320419
-0.005920 0.950225 91.027847
7.827390 0.949755 90.527237
-22.476009 0.948131 -5.332170
-17.920509 0.949131 -8.977630
-12.469160 0.948382 -11.811390
-9.101590 0.975870 -2.676490
-6.394990 0.949922 -13.228230
-4.798380 0.976941 -3.698810
-0.005920 0.949532 -13.782050
-0.005920 0.976941 -4.102850
4.786540 0.976941 -3.698810
21.842710 -0.535387 43.455818
24.185209 -0.535388 47.782761
24.185209 -0.535388 47.782761
25.679560 -0.535399 52.889130
21.695120 -0.466089 52.717510
21.695379 -0.466080 58.598450
21.042509 -0.535432 73.223396
21.358521 -0.466031 69.142059
23.757771 -0.535431 69.140953
21.696310 -0.466091 64.732712
25.130800 -0.535411 64.733063
25.974730 -0.535400 58.598610
-0.005920 -0.466063 76.938927
-0.005920 -0.466061 69.139313
16.905649 -0.535583 76.938637
21.358521 -0.466031 69.142059
21.042509 -0.535432 73.223396
6.348540 -0.556508 -13.009200
9.089660 -0.535380 -2.676380
12.379080 -0.557728 -11.597450
13.100210 -0.535390 -0.456760
17.786551 -0.557139 -8.788780
22.299259 -0.557939 -5.173550
25.691700 -0.558090 -0.496120
7.795790 -0.556635 90.307098
5.893640 -0.535393 80.842438
15.202930 -0.556934 88.614227
11.455410 -0.535383 79.326492
21.841311 -0.557464 85.774368
16.905649 -0.535583 76.938637
27.520500 -0.557873 81.612427
31.432590 -0.565943 76.862900
14.990670 -0.535385 31.195660
23.497580 -0.549785 30.652941
16.700171 -0.535386 34.686211
24.763849 -0.547766 34.724140
28.529341 -0.556206 39.183830
19.055750 -0.535386 39.114479
21.842710 -0.535387 43.455818
31.758760 -0.557997 43.517422
24.185209 -0.535388 47.782761
16.905649 -0.535583 76.938637
11.455410 -0.535383 79.326492
33.757000 -0.556418 47.667332
25.679560 -0.535399 52.889130
35.349628 -0.556919 52.914101
36.130058 -0.556560 58.604778
25.974730 -0.535400 58.598610
25.130800 -0.535411 64.733063
14.990670 -0.535385 31.195660
16.452480 -0.535894 26.195000
23.497580 -0.549785 30.652941
23.968281 -0.556534 26.173050
18.311911 -0.535403 20.083920
25.889090 -0.555013 20.051640
27.324369 -0.556283 15.603150
19.188601 -0.535383 15.630800
28.157700 -0.557652 11.058410
19.713249 -0.535382 11.065490
27.807920 -0.558841 5.508160
18.515341 -0.535381 5.483390
16.515100 -0.535380 2.433320
35.969749 -0.558021 64.713997
34.070332 -0.559642 71.319031
23.757771 -0.535431 69.140953
21.042509 -0.535432 73.223396
16.699329 0.975874 34.686630
14.989540 0.975875 31.195841
21.692591 0.972211 52.719379
24.183990 0.975872 47.783970
-0.005920 0.972211 52.758011
-0.005920 0.972212 47.783951
-21.704430 0.972201 52.719379
-24.195820 0.975862 47.783970
9.089750 0.975870 -2.676490
13.099280 0.975870 -0.455490
-0.005920 0.972449 5.407770
-16.526270 0.975870 2.433860
-18.526510 0.975869 5.483630
-0.005920 0.972208 11.065530
18.514681 0.975869 5.483630
19.712610 0.975868 11.065520
-19.724449 0.975868 11.065520
-19.199730 0.975867 15.630690
16.514429 0.975870 2.433860
24.183990 0.975872 47.783970
21.692591 0.972211 52.719379
25.676439 0.975871 52.889561
21.692579 0.972210 58.598598
25.971750 0.975880 58.598480
25.127060 0.975869 64.732269
6.383150 0.949922 -13.228230
9.089750 0.975870 -2.676490
12.457320 0.948392 -11.811390
13.099280 0.975870 -0.455490
17.908680 0.949131 -8.977630
22.464170 0.948131 -5.332170
5.893120 0.975867 80.839973
15.271320 0.949376 88.827438
11.454650 0.975867 79.324661
21.952271 0.948726 85.971802
16.904680 0.976258 76.936577
27.675770 0.948447 81.779457
31.651649 0.937687 77.011803
14.989540 0.975875 31.195841
16.699329 0.975874 34.686630
23.680750 0.958425 30.635880
24.916630 0.961064 34.648479
28.700150 0.950214 39.044540
19.055010 0.975874 39.114929
21.842091 0.975873 43.456181
31.951740 0.947993 43.393730
24.183990 0.975872 47.783970
33.962749 0.950042 47.585899
25.676439 0.975871 52.889561
35.567879 0.949391 52.864510
36.351669 0.949870 58.592072
21.842091 0.975873 43.456181
19.055010 0.975874 39.114929
16.451630 0.976936 26.194750
16.904680 0.976258 76.936577
11.454650 0.975867 79.324661
14.989540 0.975875 31.195841
23.680750 0.958425 30.635880
16.451630 0.976936 26.194750
24.186190 0.949686 26.216980
18.311180 0.975907 20.083700
26.093100 0.951787 20.116430
27.537870 0.950197 15.658770
19.187889 0.975867 15.630690
28.384661 0.948488 11.072780
19.712610 0.975868 11.065520
28.035839 0.946949 5.458640
18.514681 0.975869 5.483630
25.894791 0.947940 -0.603120
16.514429 0.975870 2.433860
-0.005920 0.972211 52.758011
-0.005920 0.972210 58.598598
21.692591 0.972211 52.719379
21.692579 0.972210 58.598598
25.971750 0.975880 58.598480
25.127060 0.975869 64.732269
36.195980 0.948019 64.750900
34.291100 0.945868 71.405579
23.753031 0.975889 69.139328
21.039181 0.975908 73.220078
21.695120 -0.466089 52.717510
21.695379 -0.466080 58.598450
-0.005920 -0.466069 52.758011
-0.005920 -0.466070 58.598499
21.696310 -0.466091 64.732712
-0.005920 -0.466071 64.727722
-25.138901 0.975859 64.732269
-23.580589 0.911969 69.042374
-21.375669 0.971989 69.017326
-21.051020 0.975888 73.220093
-23.752350 0.975099 69.133240
-21.704420 0.972200 58.598598
-21.704580 0.972199 64.732513
-0.005920 0.972210 58.598598
-0.005920 0.972209 64.727722
-21.375669 0.971989 69.017326
-0.005920 0.972167 76.746033
-0.005920 0.972209 64.727722
21.692551 0.972219 64.732246
-0.005920 0.972167 76.746033
21.353689 0.972009 69.132751
21.692551 0.972219 64.732246
23.753031 0.975889 69.139328
21.353689 0.972009 69.132751
21.039181 0.975908 73.220078
-21.051020 0.975888 73.220093
-16.916519 0.976247 76.936577
-0.005920 0.972167 76.936493
16.904680 0.976258 76.936577
21.842091 0.975873 43.456181
-0.005920 0.972213 43.456211
-21.853930 0.975863 43.456181
-31.770590 -0.557997 43.517422
-33.768841 -0.556428 47.667332
-34.581139 -0.000008 47.469318
-35.361469 -0.556919 52.914101
-36.193741 -0.000009 52.890709
-36.141899 -0.556560 58.604778
-36.970230 -0.000010 58.598782
-35.981590 -0.558021 64.713997
-36.808128 -0.000011 64.731453
-34.082169 -0.559642 71.319031
-34.874748 -0.000012 71.358749
-31.444429 -0.565943 76.862900
-32.188450 -0.000013 76.933762
-27.532339 -0.557873 81.612427
-28.155090 -0.000013 82.156883
-21.853149 -0.557464 85.774368
-22.333281 -0.000014 86.450623
-15.214760 -0.556944 88.614227
-15.533600 -0.000015 89.376099
-7.807630 -0.556645 90.307098
-7.958140 -0.000015 91.118668
-0.005920 -0.556265 90.807388
-0.005920 -0.000015 91.631767
7.946300 -0.000015 91.118668
-0.005920 0.950225 91.027847
7.827390 0.949755 90.527237
-7.839230 0.949745 90.527237
-15.283150 0.949365 88.827438
-21.964100 0.948716 85.971802
-27.687599 0.948437 81.779457
-31.663490 0.937677 77.011803
-34.302929 0.945858 71.405579
-36.207821 0.948009 64.750900
-36.363510 0.949860 58.592072
-35.579720 0.949381 52.864510
-33.974590 0.950032 47.585899
-31.963570 0.947983 43.393730
7.795790 -0.556635 90.307098
15.521770 -0.000015 89.376099
15.271320 0.949376 88.827438
15.202930 -0.556934 88.614227
22.321449 -0.000014 86.450623
21.952271 0.948726 85.971802
21.841311 -0.557464 85.774368
28.143259 -0.000013 82.156883
27.675770 0.948447 81.779457
27.520500 -0.557873 81.612427
32.176620 -0.000013 76.933762
31.651649 0.937687 77.011803
31.432590 -0.565943 76.862900
34.862919 -0.000012 71.358749
34.291100 0.945868 71.405579
34.070332 -0.559642 71.319031
36.796291 -0.000011 64.731453
36.195980 0.948019 64.750900
35.969749 -0.558021 64.713997
36.958401 -0.000010 58.598782
36.351669 0.949870 58.592072
36.130058 -0.556560 58.604778
36.181900 -0.000009 52.890709
35.567879 0.949391 52.864510
35.349628 -0.556919 52.914101
34.569302 -0.000008 47.469318
33.962749 0.950042 47.585899
33.757000 -0.556418 47.667332
31.758760 -0.557997 43.517422
32.671650 -0.000007 43.458969
28.529341 -0.556206 39.183830
29.513670 -0.000006 39.118340
24.763849 -0.547766 34.724140
25.781981 -0.000006 34.689659
23.497580 -0.549785 30.652941
24.333969 -0.000005 30.596609
23.968281 -0.556534 26.173050
24.688231 -0.000004 26.193581
25.889090 -0.555013 20.051640
26.732691 -0.000003 20.081970
27.324369 -0.556283 15.603150
28.169460 -0.000003 15.629360
28.157700 -0.557652 11.058410
28.983850 -0.000002 11.065230
27.807920 -0.558841 5.508160
28.626909 -0.000001 5.484700
25.691700 -0.558090 -0.496120
26.431589 0.000000 -0.866780
22.299259 -0.557939 -5.173550
22.929850 0.000001 -5.708050
17.786551 -0.557139 -8.788780
18.276850 0.000002 -9.451640
12.379080 -0.557728 -11.597450
12.708110 0.000002 -12.355060
6.348540 -0.556508 -13.009200
6.505030 0.000002 -13.817340
-0.005920 -0.556818 -13.558770
-0.005920 0.000002 -14.382790
-6.516870 0.000002 -13.817340
-0.005920 0.949532 -13.782050
-6.394990 0.949922 -13.228230
-6.360380 -0.556508 -13.009200
-12.719950 0.000002 -12.355060
-12.469160 0.948382 -11.811390
-12.390920 -0.557728 -11.597450
-18.288679 0.000002 -9.451640
-17.920509 0.949131 -8.977630
-17.798389 -0.557139 -8.788780
-22.941690 0.000001 -5.708050
-22.476009 0.948131 -5.332170
-22.311100 -0.557939 -5.173550
-26.443430 0.000000 -0.866780
-25.906620 0.947940 -0.603120
-25.703541 -0.558090 -0.496120
-28.638750 -0.000001 5.484700
-28.047680 0.946949 5.458640
-27.819759 -0.558851 5.508160
-28.995680 -0.000002 11.065230
-28.396500 0.948478 11.072780
-28.169540 -0.557652 11.058410
-28.181299 -0.000003 15.629360
-27.549709 0.950187 15.658770
-27.336210 -0.556283 15.603150
-26.744520 -0.000003 20.081970
-26.104931 0.951787 20.116430
-25.900921 -0.555013 20.051640
-24.700069 -0.000004 26.193581
-24.198030 0.949676 26.216980
-23.980110 -0.556534 26.173050
-24.345800 -0.000005 30.596609
-23.692579 0.958415 30.635880
-23.509411 -0.549795 30.652941
-25.793819 -0.000006 34.689659
-24.928471 0.961054 34.648479
-24.775690 -0.547776 34.724140
-29.525499 -0.000006 39.118340
-28.711990 0.950204 39.044540
-28.541170 -0.556216 39.183830
-32.683491 -0.000007 43.458969
31.951740 0.947993 43.393730
28.700150 0.950214 39.044540
24.916630 0.961064 34.648479
23.680750 0.958425 30.635880
24.186190 0.949686 26.216980
26.093100 0.951787 20.116430
27.537870 0.950197 15.658770
28.384661 0.948488 11.072780
28.035839 0.946949 5.458640
25.894791 0.947940 -0.603120
22.464170 0.948131 -5.332170
17.908680 0.949131 -8.977630
12.457320 0.948392 -11.811390
6.383150 0.949922 -13.228230
-21.054350 -0.535442 73.223396
21.842710 -0.535387 43.455818
-0.005920 -0.466069 52.758011
-0.005920 0.972167 76.936493
21.039181 0.975908 73.220078
-21.706961 -0.466089 52.717510
-0.003900 -1.396625 29.006500
12.313180 -0.845585 28.019461
12.334660 -0.841135 30.378130
23.103170 -0.786225 29.937111
23.430990 -0.785055 32.050751
24.940720 -0.001725 29.625481
25.496731 -0.001645 32.289459
23.617559 1.475985 31.987980
23.473379 -0.761704 26.993490
25.484541 -0.001674 26.507099
23.660940 1.427706 27.039570
23.308090 1.475295 29.928110
12.342140 1.765736 28.022631
12.362900 1.756525 30.375259
-0.003040 2.237155 29.008881
23.430990 -0.785055 32.050751
12.337230 -0.850635 32.038670
12.334660 -0.841135 30.378130
-0.003900 -1.396625 29.006500
-0.042720 -1.374645 31.926451
-12.483250 -0.887355 31.908770
-12.331730 -0.823745 28.081039
-24.001780 -0.788175 29.952000
-23.495890 -0.759034 27.009041
-25.846180 -0.002035 29.629669
-25.495529 -0.001514 26.509680
-23.660391 1.431936 27.021290
-24.334620 -0.785325 32.050240
-26.401609 -0.001695 32.288940
-24.524420 1.475545 31.988600
-24.220840 1.472115 29.910431
-12.511450 1.852185 31.890511
-12.360690 1.720405 28.079170
-0.003040 2.237155 29.008881
23.617559 1.475985 31.987980
12.362900 1.756525 30.375259
12.366110 1.775975 32.021412
-0.041570 2.201515 31.919880
0.000000 -1.380155 91.834991
-0.974300 -0.977455 91.835114
0.000000 -1.313653 76.934769
-0.927900 -0.929883 76.934830
-0.903640 -0.904271 64.694656
-0.900950 -0.883329 -66.304581
-1.245950 0.000011 -66.318123
-0.927670 -0.711469 -68.971878
-1.242590 0.000011 -68.958977
-0.977850 0.000012 -70.622772
-0.927670 0.711491 -68.971878
-0.738840 0.716681 -70.675087
0.000000 0.879291 -70.702438
0.000000 0.610222 -70.937843
0.580080 0.513362 -70.951508
0.000000 0.000012 -71.014908
0.974300 -0.977455 91.835114
0.000000 -1.380155 91.834991
0.927900 -0.929883 76.934830
0.000000 -1.313653 76.934769
0.000000 -1.278330 64.694633
0.974300 -0.977455 91.835114
0.927900 -0.929883 76.934830
1.367520 -0.000015 91.830017
1.301000 -0.000013 76.930008
0.927900 0.929857 76.934830
1.265500 -0.000011 64.690140
0.903640 0.904249 64.694656
1.264250 -0.000010 58.698021
0.903250 0.903140 58.702290
1.263000 -0.000009 52.696609
0.902870 0.902041 52.700420
1.261810 -0.000008 47.692329
0.902510 0.900982 47.695679
0.901930 0.899303 43.479809
-0.927670 -0.711469 -68.971878
0.000000 -0.846219 -68.943748
-0.900950 -0.883329 -66.304581
0.000000 -1.263109 -66.264069
0.927670 -0.711469 -68.971779
0.900950 -0.883329 -66.304581
0.000000 1.380125 91.834991
0.000000 1.313627 76.934769
-0.974300 0.977425 91.835114
-0.927900 0.929857 76.934830
-0.900950 0.883351 -66.304581
0.000000 0.846241 -68.943748
0.927670 0.711491 -68.971779
0.738840 0.716691 -70.675079
1.242590 0.000011 -68.958977
0.977850 0.000012 -70.622772
0.738840 -0.716668 -70.675079
0.762840 0.000012 -70.956070
0.580080 -0.513338 -70.951508
0.000000 0.000012 -71.014908
-0.580140 0.513362 -70.951508
-0.580140 0.513362 -70.951508
-0.762860 0.000012 -70.956070
-0.580140 -0.513338 -70.951508
-0.738840 -0.716658 -70.675087
0.000000 1.261656 -35.969810
-0.903130 0.881966 -35.969830
0.000000 1.261645 -29.030230
-0.898330 0.886445 -29.030210
-1.246120 0.000005 -29.030190
-1.246330 0.000006 -35.969818
-0.903130 -0.881954 -35.969830
-0.898330 -0.886435 -29.030210
0.000000 -1.261635 -29.030230
0.000000 -1.261634 -35.969810
0.898330 -0.886435 -29.030161
0.903030 -0.881954 -35.969830
1.246320 0.000006 -35.969818
1.246120 0.000005 -29.030190
0.898330 0.886445 -29.030161
0.000000 1.261656 -35.969810
0.000000 1.261657 -43.263020
-0.903130 0.881966 -35.969830
-0.901010 0.883987 -43.263008
-1.246330 0.000006 -35.969818
-1.246240 0.000007 -43.263008
-0.901010 -0.883973 -43.263008
-0.903130 -0.881954 -35.969830
0.000000 -1.261633 -43.263020
0.000000 -1.261634 -35.969810
0.901010 -0.883973 -43.263008
0.903030 -0.881954 -35.969830
1.246240 0.000007 -43.263008
1.246320 0.000006 -35.969818
0.903030 0.881966 -35.969830
0.000000 1.261657 -43.263020
0.000000 1.261658 -50.421219
-0.901010 0.883987 -43.263008
-0.898800 0.885978 -50.421211
-1.246240 0.000007 -43.263008
-1.246140 0.000008 -50.421211
-0.898800 -0.885962 -50.421211
-0.901010 -0.883973 -43.263008
0.000000 -1.261632 -50.421219
0.000000 -1.261633 -43.263020
0.898800 -0.885962 -50.421101
0.901010 -0.883973 -43.263008
1.246140 0.000008 -50.421211
1.246240 0.000007 -43.263008
0.901010 0.883987 -43.263008
0.000000 1.263131 -66.264069
-0.900950 0.883351 -66.304581
0.000000 1.261659 -57.984509
-0.896730 0.887949 -57.984310
-1.245950 0.000011 -66.318123
-1.246050 0.000009 -57.984509
-0.896730 -0.887931 -57.984310
-0.900950 -0.883329 -66.304581
0.000000 -1.261631 -57.984509
0.000000 -1.263109 -66.264069
0.896630 -0.887921 -57.984310
0.900950 -0.883329 -66.304581
1.246050 0.000009 -57.984509
1.245950 0.000011 -66.318123
0.900950 0.883351 -66.304581
0.000000 1.261658 -50.421219
0.000000 1.261659 -57.984509
-0.898800 0.885978 -50.421211
-0.896730 0.887949 -57.984310
-1.246140 0.000008 -50.421211
-1.246050 0.000009 -57.984509
-0.896730 -0.887931 -57.984310
-0.898800 -0.885962 -50.421211
0.000000 -1.261631 -57.984509
0.000000 -1.261632 -50.421219
0.896630 -0.887921 -57.984310
0.898800 -0.885962 -50.421101
1.246050 0.000009 -57.984509
1.246140 0.000008 -50.421211
0.898800 0.885978 -50.421101
0.974300 0.977425 91.835114
0.927900 0.929857 76.934830
0.000000 1.380125 91.834991
0.000000 1.313627 76.934769
0.900950 0.883351 -66.304581
1.245950 0.000011 -66.318123
0.900950 -0.883329 -66.304581
0.927670 -0.711469 -68.971779
0.580080 0.513362 -70.951508
0.903030 0.881966 -35.969830
0.000000 1.261656 -35.969810
0.000000 1.261645 -29.030230
0.901010 0.883987 -43.263008
0.000000 1.261656 -35.969810
0.898800 0.885978 -50.421101
0.000000 1.261657 -43.263020
0.896630 0.887939 -57.984310
0.000000 1.263131 -66.264069
0.000000 1.261659 -57.984509
0.896630 0.887939 -57.984310
0.000000 1.261658 -50.421219
-0.927670 0.711491 -68.971878
-0.900950 0.883351 -66.304581
0.000000 0.846241 -68.943748
0.000000 1.263131 -66.264069
0.927670 0.711491 -68.971779
0.900950 0.883351 -66.304581
-0.974300 -0.977455 91.835114
-1.367520 -0.000015 91.830017
-0.927900 -0.929883 76.934830
-1.301000 -0.000013 76.930008
-1.265500 -0.000011 64.690140
-0.903640 0.904249 64.694656
-0.903250 0.903140 58.702290
-0.974300 0.977425 91.835114
-0.927900 0.929857 76.934830
-0.903640 -0.904271 64.694656
-1.264250 -0.000010 58.698021
-0.903250 -0.903160 58.702290
-1.263000 -0.000009 52.696609
-0.902870 -0.902059 52.700420
-1.261810 -0.000008 47.692329
-0.902510 -0.900998 47.695679
-0.901930 -0.899317 43.479809
-0.900750 0.885352 -14.617250
-1.247200 0.000002 -14.617530
-0.899190 0.891320 -0.470250
-1.250910 0.000000 -0.470960
-0.899560 0.892419 5.498390
-1.252150 -0.000001 5.497630
-0.899910 0.893448 10.901260
-1.253310 -0.000002 10.900310
-1.254230 -0.000003 15.601820
-0.900190 -0.894263 15.602910
-0.900460 -0.895053 20.268370
-0.900750 -0.885348 -14.617250
-0.899190 -0.891320 -0.470250
-0.899560 -0.892421 5.498390
-0.899910 -0.893452 10.901250
-0.900750 -0.885348 -14.617250
0.000000 -1.262498 -14.617280
-0.899190 -0.891320 -0.470250
0.000000 -1.265780 -0.470300
-0.899560 -0.892421 5.498390
0.000000 -1.266841 5.498340
-0.899910 -0.893452 10.901250
0.000000 -1.267842 10.901200
0.000000 -1.268633 15.602870
0.000000 -1.262498 -14.617280
0.901670 -0.885358 -14.617250
0.000000 -1.265780 -0.470300
0.899190 -0.891320 -0.470250
0.000000 -1.266841 5.498340
0.899560 -0.892421 5.498390
0.000000 -1.267842 10.901200
0.899910 -0.893452 10.901260
0.900190 -0.894263 15.602920
0.901670 -0.885358 -14.617250
1.247200 0.000002 -14.617530
0.899190 -0.891320 -0.470250
1.250910 0.000000 -0.470970
0.899560 -0.892421 5.498390
1.252150 -0.000001 5.497620
0.899910 -0.893452 10.901260
1.253310 -0.000002 10.900310
1.254230 -0.000003 15.601820
0.900190 0.894257 15.602910
0.900460 0.895047 20.268370
0.000000 1.262502 -14.617270
-0.900750 0.885352 -14.617250
0.000000 1.265780 -0.470300
-0.899190 0.891320 -0.470250
0.000000 1.266839 5.498340
-0.899560 0.892419 5.498390
0.000000 1.267838 10.901200
-0.899910 0.893448 10.901260
-0.900190 0.894257 15.602920
0.901670 0.885362 -14.617260
0.000000 1.262502 -14.617270
0.899190 0.891320 -0.470250
0.000000 1.265780 -0.470300
0.899560 0.892419 5.498390
0.000000 1.266839 5.498340
0.899910 0.893448 10.901250
0.000000 1.267838 10.901200
0.000000 1.268628 15.602870
0.901670 0.885362 -14.617260
0.899190 0.891320 -0.470250
0.899560 0.892419 5.498390
0.899910 0.893448 10.901250
0.000000 1.261654 -21.898380
0.000000 1.261645 -29.030230
-0.900970 0.884014 -21.898380
-0.898330 0.886445 -29.030210
-1.246240 0.000004 -21.898371
-1.246120 0.000005 -29.030190
-0.898330 -0.886435 -29.030210
-0.900970 -0.884006 -21.898380
0.000000 -1.261635 -29.030230
0.000000 -1.261636 -21.898380
0.898330 -0.886435 -29.030161
0.900970 -0.884006 -21.898371
1.246120 0.000005 -29.030190
1.246240 0.000004 -21.898371
0.900970 0.884014 -21.898371
0.898330 0.886445 -29.030161
0.000000 1.261654 -21.898380
0.000000 1.262502 -14.617270
0.000000 1.261654 -21.898380
-0.900750 0.885352 -14.617250
-0.900970 0.884014 -21.898380
-1.247200 0.000002 -14.617530
-1.246240 0.000004 -21.898371
-0.900970 -0.884006 -21.898380
-0.900750 -0.885348 -14.617250
0.000000 -1.261636 -21.898380
0.000000 -1.262498 -14.617280
0.900970 -0.884006 -21.898371
0.901670 -0.885358 -14.617250
1.246240 0.000004 -21.898371
1.247200 0.000002 -14.617530
0.901670 0.885362 -14.617260
0.900970 0.884014 -21.898371
0.000000 1.262502 -14.617270
-0.900190 0.894257 15.602920
-1.255110 -0.000003 20.267130
-0.900460 0.895047 20.268379
-0.901040 0.896686 26.272369
-1.256970 -0.000004 26.270599
-1.257690 -0.000005 31.143431
-0.901250 0.897325 31.145470
-1.258370 -0.000006 35.346569
-0.901460 0.897934 35.348869
-1.259160 -0.000006 39.145340
-0.901700 0.898634 39.147911
-1.259920 -0.000007 43.476971
-0.901930 0.899303 43.479809
-0.902510 0.900982 47.695679
-0.901040 -0.896694 26.272369
-0.901250 -0.897335 31.145470
-0.901460 -0.897946 35.348869
-0.901700 -0.898646 39.147900
-0.902870 0.902041 52.700420
-0.900190 -0.894263 15.602910
0.000000 -1.269393 20.268320
-0.900460 -0.895053 20.268370
-0.901040 -0.896694 26.272369
0.000000 -1.270994 26.272329
0.000000 -1.271605 31.145430
-0.901250 -0.897335 31.145470
0.000000 -1.272196 35.348820
-0.901460 -0.897946 35.348869
0.000000 -1.272876 39.147850
-0.901700 -0.898646 39.147900
0.000000 -1.273527 43.479759
-0.901930 -0.899317 43.479809
-0.902510 -0.900998 47.695679
0.000000 -1.275158 47.695641
0.000000 -1.276179 52.700378
-0.902870 -0.902059 52.700420
0.000000 -1.277250 58.702240
-0.903250 -0.903160 58.702290
0.000000 -1.278330 64.694633
0.000000 -1.268633 15.602870
0.900460 -0.895053 20.268379
0.000000 -1.269393 20.268320
0.000000 -1.270994 26.272329
0.901040 -0.896694 26.272369
0.901250 -0.897335 31.145470
0.000000 -1.271605 31.145430
0.901460 -0.897946 35.348869
0.000000 -1.272196 35.348820
0.901700 -0.898646 39.147911
0.000000 -1.272876 39.147850
0.901930 -0.899317 43.479809
0.000000 -1.273527 43.479759
0.000000 -1.275158 47.695641
0.902510 -0.900998 47.695679
0.902870 -0.902059 52.700420
0.000000 -1.276179 52.700378
0.903250 -0.903160 58.702290
0.000000 -1.277250 58.702240
0.903640 -0.904271 64.694656
0.900190 -0.894263 15.602920
1.255110 -0.000003 20.267130
0.900460 -0.895053 20.268379
0.901040 -0.896694 26.272369
1.256970 -0.000004 26.270599
1.257690 -0.000005 31.143419
0.901250 -0.897335 31.145470
1.258370 -0.000006 35.346561
0.901460 -0.897946 35.348869
1.259160 -0.000006 39.145340
0.901700 -0.898646 39.147911
1.259920 -0.000007 43.476971
0.901930 -0.899317 43.479809
0.902510 -0.900998 47.695679
0.901040 0.896686 26.272369
0.901250 0.897325 31.145470
0.901460 0.897934 35.348869
0.901700 0.898634 39.147900
0.902870 -0.902059 52.700420
0.903250 -0.903160 58.702290
0.903640 -0.904271 64.694656
0.000000 1.268628 15.602870
-0.900460 0.895047 20.268379
0.000000 1.269387 20.268320
0.000000 1.270986 26.272310
-0.901040 0.896686 26.272369
-0.901250 0.897325 31.145470
0.000000 1.271595 31.145411
-0.901460 0.897934 35.348869
0.000000 1.272184 35.348808
-0.901700 0.898634 39.147911
0.000000 1.272864 39.147850
-0.901930 0.899303 43.479809
0.000000 1.273513 43.479752
0.000000 1.275142 47.695621
-0.902510 0.900982 47.695679
-0.902870 0.902041 52.700420
0.000000 1.276161 52.700371
-0.903250 0.903140 58.702290
0.000000 1.277231 58.702229
-0.903640 0.904249 64.694656
0.000000 1.278309 64.694633
0.900190 0.894257 15.602910
0.000000 1.269387 20.268320
0.900460 0.895047 20.268370
0.901040 0.896686 26.272369
0.000000 1.270986 26.272310
0.000000 1.271595 31.145411
0.901250 0.897325 31.145470
0.000000 1.272184 35.348808
0.901460 0.897934 35.348869
0.000000 1.272864 39.147850
0.901700 0.898634 39.147900
0.000000 1.273513 43.479752
0.901930 0.899303 43.479809
0.902510 0.900982 47.695679
0.000000 1.275142 47.695621
0.000000 1.276161 52.700371
0.902870 0.902041 52.700420
0.000000 1.277231 58.702229
0.903250 0.903140 58.702290
0.000000 1.278309 64.694633
0.903640 0.904249 64.694656
27.736990 -0.002526 35.732910
26.070721 -0.777566 35.822460
25.496731 -0.001645 32.289459
23.430990 -0.785055 32.050751
12.337230 -0.850635 32.038670
12.335920 -0.933596 35.461571
-0.006160 -1.456566 35.189812
-0.042720 -1.374645 31.926451
-12.348350 -0.934156 35.457649
-12.483250 -0.887355 31.908770
-26.809031 -0.777606 35.870121
-24.334620 -0.785325 32.050240
-26.401609 -0.001695 32.288940
-28.475170 -0.002506 35.730549
-27.023300 1.449374 35.670280
-24.524420 1.475545 31.988600
-12.371410 1.916684 35.665428
-12.511450 1.852185 31.890511
-0.041570 2.201515 31.919880
26.285360 1.457404 35.914169
23.617559 1.475985 31.987980
12.366110 1.775975 32.021412
12.360230 1.917954 35.660660
-0.005740 2.296954 35.442982
25.484541 -0.001674 26.507099
23.473379 -0.761704 26.993490
25.495600 -0.741384 23.548830
12.336610 -0.851944 26.082350
12.335640 -0.869704 24.202530
-0.005920 -1.425644 24.570061
-0.005920 -1.504964 24.342470
-12.363960 -0.879094 23.991360
-0.005920 -0.016014 24.124241
-12.360200 -0.000004 23.796150
-0.005920 1.892316 23.605080
-12.354000 1.279816 23.316059
-12.372780 1.789296 24.018801
-25.393829 0.891416 22.992929
-25.828720 1.281786 23.394300
-26.379290 -0.002324 23.026449
-26.598150 -0.001564 23.588381
-25.336691 -0.668724 23.268209
-25.507441 -0.741384 23.548840
-12.347480 -0.869704 24.202530
-12.348230 -0.851974 26.079281
-0.005910 -1.393034 26.119930
-0.003900 -1.396625 29.006500
12.313180 -0.845585 28.019461
-12.331730 -0.823745 28.081039
-23.495890 -0.759034 27.009041
-25.495529 -0.001514 26.509680
-23.660391 1.431936 27.021290
-12.379720 1.778736 26.092291
-0.005920 2.290566 24.374611
12.342160 1.279816 23.316059
12.348360 -0.000004 23.796150
12.352120 -0.879094 23.991360
25.324850 -0.606534 23.268209
26.367460 -0.002324 23.221001
26.586321 -0.001564 23.588381
25.381990 1.159356 23.204130
25.816879 1.281776 23.591499
12.360940 1.789296 24.018801
12.367630 1.778786 26.088520
-0.005920 2.231216 26.132530
-0.003040 2.237155 29.008881
-12.360690 1.720405 28.079170
23.660940 1.427706 27.039570
12.342140 1.765736 28.022631
26.070721 -0.777566 35.822460
27.736990 -0.002526 35.732910
27.431040 -0.000006 36.233742
26.500059 1.040624 36.415070
12.341850 1.372634 36.337799
26.285360 1.457404 35.914169
12.360230 1.917954 35.660660
-0.005740 2.296954 35.442982
-0.005920 1.760824 36.148949
12.347690 -0.000006 35.747150
-0.005920 -0.017466 35.794491
12.352330 -0.965406 35.590382
-0.005920 -1.431666 35.458099
12.335920 -0.933596 35.461571
-0.006160 -1.456566 35.189812
26.262569 -0.789396 36.315121
-12.371410 1.916684 35.665428
-12.369630 1.372384 36.337891
-12.359500 -0.000006 35.747150
-12.363870 -0.965636 35.590179
-12.348350 -0.934156 35.457649
-26.809031 -0.777606 35.870121
-27.000669 -0.789136 36.313381
-28.475170 -0.002506 35.730549
-28.169241 -0.000006 36.231770
-27.023300 1.449374 35.670280
-27.238590 1.041004 36.230690
0.000000 -0.879268 -70.702438
0.000000 -0.846219 -68.943748
0.000000 -0.610198 -70.937843
0.580080 -0.513338 -70.951508
-0.580140 -0.513338 -70.951508
1.367520 -0.000015 91.830017
0.000000 -0.000015 91.881012
0.974300 -0.977455 91.835114
0.000000 -1.380155 91.834991
-0.974300 -0.977455 91.835114
-1.367520 -0.000015 91.830017
0.974300 0.977425 91.835114
0.000000 1.380125 91.834991
-0.974300 0.977425 91.835114
0.974300 0.977425 91.835114
0.000000 1.261657 -43.263020
0.000000 1.261658 -50.421219
0.000000 1.261659 -57.984509
0.000000 1.261645 -29.030230
0.000000 1.261654 -21.898380
3 0 1 2
3 3 2 1
3 2 3 4
3 5 4 3
3 6 7 8
3 9 8 7
3 8 9 10
3 11 10 9
3 12 13 14
3 15 14 13
3 14 15 16
3 17 16 15
3 16 17 18
3 13 19 15
3 20 15 19
3 15 20 17
3 21 17 20
3 22 23 24
3 25 24 23
3 24 25 26
3 27 26 25
3 26 27 28
3 29 28 27
3 30 29 31
3 27 31 29
3 32 33 34
3 35 34 33
3 34 35 36
3 37 36 35
3 36 37 38
3 39 38 37
3 38 39 40
3 41 42 43
3 44 43 42
3 44 42 45
3 46 45 42
3 45 46 47
3 45 47 48
3 49 48 47
3 48 49 50
3 51 50 49
3 50 51 52
3 53 52 51
3 54 55 56
3 57 56 55
3 56 57 58
3 59 58 57
3 1 60 3
3 61 3 60
3 3 61 5
3 62 5 61
3 60 63 61
3 64 61 63
3 61 64 62
3 65 62 64
3 62 65 66
3 67 66 65
3 66 67 68
3 69 68 67
3 64 63 65
3 70 65 63
3 65 70 67
3 71 67 70
3 67 71 72
3 73 74 75
3 76 75 74
3 76 77 78
3 79 78 77
3 80 81 82
3 83 82 81
3 82 83 84
3 85 84 83
3 84 85 86
3 84 86 87
3 88 87 86
3 87 88 89
3 90 89 88
3 89 90 91
3 92 91 90
3 91 92 93
3 94 93 92
3 14 16 95
3 72 95 16
3 72 16 67
3 69 67 16
3 55 0 57
3 96 57 0
3 57 96 59
3 51 97 53
3 98 53 97
3 53 98 99
3 100 99 98
3 98 101 100
3 102 100 101
3 101 103 102
3 104 102 103
3 102 104 105
3 106 105 104
3 104 107 106
3 108 106 107
3 107 109 108
3 110 108 109
3 109 111 110
3 112 110 111
3 92 113 94
3 114 94 113
3 94 114 115
3 94 115 116
3 117 116 115
3 116 117 118
3 119 118 117
3 118 119 120
3 121 120 119
3 122 123 124
3 125 124 123
3 124 125 126
3 127 126 125
3 126 127 128
3 129 128 127
3 128 129 130
3 131 130 129
3 130 131 132
3 133 134 135
3 136 135 134
3 135 136 137
3 138 137 136
3 139 140 141
3 142 141 140
3 140 143 142
3 144 142 143
3 145 146 147
3 148 147 146
3 147 148 149
3 147 149 150
3 151 150 149
3 149 152 151
3 153 151 152
3 154 155 156
3 157 156 155
3 156 157 122
3 158 122 157
3 159 160 161
3 162 161 160
3 162 163 164
3 165 164 163
3 152 166 153
3 167 153 166
3 166 168 167
3 169 167 168
3 167 169 170
3 171 170 169
3 172 173 174
3 175 174 173
3 173 176 175
3 177 175 176
3 177 176 178
3 179 178 176
3 178 179 180
3 181 180 179
3 180 181 182
3 183 182 181
3 182 183 184
3 185 184 183
3 184 185 186
3 187 188 189
3 190 189 188
3 169 191 171
3 192 171 191
3 171 192 193
3 194 193 192
3 193 194 195
3 196 195 194
3 194 197 196
3 198 196 197
3 196 198 199
3 200 199 198
3 199 200 201
3 202 201 200
3 201 202 203
3 204 203 202
3 203 204 205
3 184 186 206
3 207 206 186
3 207 186 208
3 209 208 186
3 208 209 210
3 211 210 209
3 210 211 212
3 213 212 211
3 212 213 214
3 215 216 7
3 9 7 216
3 217 218 219
3 220 219 218
3 221 222 223
3 224 223 222
3 223 224 225
3 226 225 224
3 224 220 226
3 218 226 220
3 227 228 229
3 230 229 228
3 229 230 231
3 119 232 121
3 233 121 232
3 232 234 233
3 235 233 234
3 234 236 235
3 237 235 236
3 235 237 238
3 112 111 239
3 240 239 111
3 239 240 241
3 242 241 240
3 241 242 243
3 244 243 242
3 243 244 245
3 246 245 244
3 247 248 249
3 250 249 248
3 249 250 251
3 249 251 252
3 253 252 251
3 251 254 253
3 255 253 254
3 256 257 74
3 79 74 257
3 254 258 255
3 259 255 258
3 258 260 259
3 261 259 260
3 259 261 262
3 263 262 261
3 264 265 266
3 267 266 265
3 265 268 267
3 269 267 268
3 269 268 270
3 271 270 268
3 270 271 272
3 273 272 271
3 272 273 274
3 275 274 273
3 274 275 238
3 276 238 275
3 238 276 235
3 261 277 263
3 278 263 277
3 263 278 279
3 246 279 278
3 279 246 280
3 244 280 246
3 281 282 123
3 125 123 282
3 283 284 285
3 286 285 284
3 285 286 287
3 288 287 286
3 289 138 290
3 136 290 138
3 290 136 291
3 134 291 136
3 291 134 292
3 292 293 291
3 294 291 293
3 291 294 295
3 296 295 294
3 293 297 294
3 298 294 297
3 294 298 130
3 128 130 298
3 130 132 294
3 296 294 132
3 295 299 291
3 290 291 299
3 300 301 302
3 303 302 301
3 302 303 304
3 305 304 303
3 212 214 306
3 307 306 214
3 306 307 308
3 309 308 307
3 308 309 310
3 311 310 309
3 203 205 312
3 313 312 205
3 312 313 314
3 315 314 313
3 314 315 316
3 317 316 315
3 316 317 318
3 319 320 321
3 322 321 320
3 322 320 323
3 324 323 320
3 323 324 325
3 323 325 326
3 327 326 325
3 326 327 328
3 329 328 327
3 328 329 330
3 331 330 329
3 332 333 155
3 157 155 333
3 129 127 131
3 334 131 127
3 127 125 334
3 282 334 125
3 335 161 336
3 165 336 161
3 337 338 339
3 340 339 338
3 339 340 341
3 342 341 340
3 341 342 343
3 341 343 344
3 345 344 343
3 344 345 346
3 347 346 345
3 346 347 348
3 349 348 347
3 348 349 350
3 309 350 349
3 351 352 353
3 354 353 352
3 333 281 157
3 158 157 281
3 329 355 331
3 356 331 355
3 331 356 357
3 358 357 356
3 356 359 358
3 318 358 359
3 359 360 318
3 316 318 360
3 361 362 363
3 364 363 362
3 362 365 364
3 366 364 365
3 230 228 365
3 366 365 228
3 143 367 144
3 368 144 367
3 144 368 369
3 370 369 368
3 367 371 368
3 370 368 371
3 372 373 374
3 375 374 373
3 373 376 375
3 377 375 376
3 352 378 354
3 379 354 378
3 378 380 379
3 381 379 380
3 303 382 305
3 383 305 382
3 382 384 383
3 385 383 384
3 386 387 376
3 377 376 387
3 388 389 380
3 381 380 389
3 284 390 286
3 391 286 390
3 286 391 288
3 392 288 391
3 393 394 395
3 396 395 394
3 395 396 397
3 398 397 396
3 397 398 399
3 400 399 398
3 399 400 401
3 402 401 400
3 401 402 403
3 404 403 402
3 403 404 405
3 406 405 404
3 405 406 407
3 408 407 406
3 407 408 409
3 410 409 408
3 409 410 411
3 412 411 410
3 411 412 413
3 414 413 412
3 413 414 415
3 416 415 414
3 415 416 417
3 418 417 416
3 415 417 413
3 419 413 417
3 413 419 411
3 420 411 419
3 411 420 409
3 421 409 420
3 409 421 407
3 422 407 421
3 407 422 405
3 423 405 422
3 405 423 403
3 424 403 423
3 403 424 401
3 425 401 424
3 401 425 399
3 426 399 425
3 399 426 397
3 427 397 426
3 397 427 395
3 428 395 427
3 395 428 429
3 414 430 416
3 431 416 430
3 416 431 418
3 432 418 431
3 430 433 431
3 434 431 433
3 431 434 432
3 435 432 434
3 433 436 434
3 437 434 436
3 434 437 435
3 438 435 437
3 436 439 437
3 440 437 439
3 437 440 438
3 441 438 440
3 439 442 440
3 443 440 442
3 440 443 441
3 444 441 443
3 442 445 443
3 446 443 445
3 443 446 444
3 447 444 446
3 445 448 446
3 449 446 448
3 446 449 447
3 450 447 449
3 448 451 449
3 452 449 451
3 449 452 450
3 453 450 452
3 451 454 452
3 455 452 454
3 452 455 453
3 456 453 455
3 454 457 455
3 458 455 457
3 455 458 459
3 460 459 458
3 459 460 461
3 462 461 460
3 461 462 463
3 464 463 462
3 463 464 465
3 466 465 464
3 465 466 467
3 468 467 466
3 467 468 469
3 470 469 468
3 469 470 471
3 472 471 470
3 471 472 473
3 474 473 472
3 473 474 475
3 476 475 474
3 475 476 477
3 478 477 476
3 477 478 479
3 480 479 478
3 479 480 481
3 482 481 480
3 481 482 483
3 484 483 482
3 483 484 485
3 486 485 484
3 485 486 487
3 488 487 486
3 487 488 489
3 490 489 488
3 486 491 488
3 492 488 491
3 488 492 490
3 493 490 492
3 491 494 492
3 495 492 494
3 492 495 493
3 496 493 495
3 494 497 495
3 498 495 497
3 495 498 496
3 499 496 498
3 497 500 498
3 501 498 500
3 498 501 499
3 502 499 501
3 500 503 501
3 504 501 503
3 501 504 502
3 505 502 504
3 503 506 504
3 507 504 506
3 504 507 505
3 508 505 507
3 506 509 507
3 510 507 509
3 507 510 508
3 511 508 510
3 509 512 510
3 513 510 512
3 510 513 511
3 514 511 513
3 512 515 513
3 516 513 515
3 513 516 514
3 517 514 516
3 515 518 516
3 519 516 518
3 516 519 517
3 520 517 519
3 518 521 519
3 522 519 521
3 519 522 520
3 523 520 522
3 521 524 522
3 525 522 524
3 522 525 523
3 526 523 525
3 524 527 525
3 528 525 527
3 525 528 526
3 429 526 528
3 527 393 528
3 395 528 393
3 528 395 429
3 456 455 529
3 459 529 455
3 529 459 530
3 461 530 459
3 530 461 531
3 463 531 461
3 531 463 532
3 465 532 463
3 532 465 533
3 467 533 465
3 533 467 534
3 469 534 467
3 534 469 535
3 471 535 469
3 535 471 536
3 473 536 471
3 536 473 537
3 475 537 473
3 537 475 538
3 477 538 475
3 538 477 539
3 479 539 477
3 539 479 540
3 481 540 479
3 540 481 541
3 483 541 481
3 541 483 542
3 485 542 483
3 542 485 489
3 487 489 485
3 33 543 35
3 4 59 2
3 18 69 16
3 58 544 56
3 311 309 349
3 40 545 38
3 387 546 377
3 381 389 547
3 9 216 11
3 10 548 8
3 549 550 551
3 552 551 550
3 551 552 553
3 554 553 552
3 553 554 555
3 556 555 554
3 550 557 552
3 554 552 557
3 557 558 554
3 559 554 558
3 554 559 560
3 561 560 559
3 560 561 562
3 563 562 561
3 564 565 566
3 567 566 565
3 565 568 567
3 569 567 568
3 567 569 570
3 571 570 569
3 570 571 572
3 573 572 571
3 572 573 574
3 575 574 573
3 569 576 571
3 573 571 576
3 576 577 573
3 578 573 577
3 573 578 579
3 580 579 578
3 579 580 581
3 582 581 580
3 554 560 556
3 562 556 560
3 573 579 575
3 581 575 579
3 583 584 585
3 582 585 584
3 585 582 586
3 580 586 582
3 587 588 589
3 590 589 588
3 589 590 591
3 592 593 594
3 595 594 593
3 594 595 596
3 597 596 595
3 596 597 598
3 599 598 597
3 598 599 600
3 601 600 599
3 600 601 602
3 603 604 605
3 606 605 604
3 605 606 607
3 608 609 610
3 611 610 609
3 610 611 612
3 613 612 611
3 612 613 614
3 615 614 613
3 614 615 616
3 617 616 615
3 616 617 618
3 619 618 617
3 618 619 620
3 621 620 619
3 622 623 624
3 625 624 623
3 623 626 625
3 627 625 626
3 628 629 630
3 631 630 629
3 632 597 593
3 595 593 597
3 597 633 599
3 634 599 633
3 599 634 635
3 636 635 634
3 635 636 637
3 638 637 636
3 637 638 639
3 640 639 638
3 639 640 641
3 602 642 600
3 598 600 642
3 598 643 596
3 644 596 643
3 596 644 645
3 641 645 644
3 645 646 596
3 594 596 646
3 647 648 649
3 650 649 648
3 650 648 651
3 652 651 648
3 651 652 653
3 651 653 654
3 655 654 653
3 653 656 655
3 657 655 656
3 656 658 657
3 659 657 658
3 657 659 660
3 661 660 659
3 662 663 664
3 665 664 663
3 664 665 666
3 667 666 665
3 666 667 668
3 666 668 669
3 670 669 668
3 669 670 671
3 672 671 670
3 671 672 673
3 674 673 672
3 673 674 675
3 676 675 674
3 677 678 679
3 680 679 678
3 679 680 681
3 682 681 680
3 681 682 683
3 681 683 684
3 685 684 683
3 684 685 686
3 687 686 685
3 686 687 688
3 689 688 687
3 688 689 690
3 691 690 689
3 692 693 694
3 695 694 693
3 693 696 695
3 697 695 696
3 697 696 698
3 699 698 696
3 698 699 700
3 701 700 699
3 700 701 702
3 703 702 701
3 702 703 704
3 705 704 703
3 704 705 706
3 707 708 709
3 710 709 708
3 709 710 711
3 712 711 710
3 711 712 713
3 711 713 714
3 715 714 713
3 714 715 716
3 717 716 715
3 716 717 718
3 719 718 717
3 718 719 720
3 721 720 719
3 722 723 724
3 725 724 723
3 634 726 636
3 727 636 726
3 636 727 728
3 728 729 636
3 638 636 729
3 641 730 639
3 635 639 730
3 639 635 637
3 659 731 661
3 732 661 731
3 661 732 733
3 674 734 676
3 735 676 734
3 689 736 691
3 737 691 736
3 704 706 738
3 739 738 706
3 738 739 740
3 719 741 721
3 742 721 741
3 743 744 745
3 746 745 744
3 745 746 747
3 748 747 746
3 749 750 751
3 752 751 750
3 751 752 753
3 754 753 752
3 753 754 755
3 750 756 752
3 757 752 756
3 752 757 754
3 751 753 758
3 759 758 753
3 758 759 760
3 761 760 759
3 760 761 762
3 763 762 761
3 762 763 764
3 765 764 763
3 766 767 768
3 769 768 767
3 768 769 770
3 771 770 769
3 770 771 772
3 773 772 771
3 772 773 774
3 775 774 773
3 774 775 776
3 767 777 769
3 778 769 777
3 769 778 771
3 779 771 778
3 771 779 773
3 780 773 779
3 773 780 775
3 781 782 783
3 784 783 782
3 783 784 785
3 786 785 784
3 785 786 787
3 788 787 786
3 787 788 789
3 790 791 792
3 793 792 791
3 792 793 794
3 795 794 793
3 794 795 796
3 797 796 795
3 796 797 798
3 799 800 801
3 802 801 800
3 801 802 803
3 804 803 802
3 803 804 805
3 806 805 804
3 805 806 807
3 808 807 806
3 807 808 809
3 810 811 812
3 813 812 811
3 812 813 814
3 815 814 813
3 814 815 816
3 817 816 815
3 816 817 818
3 819 820 821
3 822 821 820
3 821 822 823
3 824 823 822
3 823 824 825
3 826 825 824
3 825 826 827
3 800 828 802
3 829 802 828
3 802 829 804
3 830 804 829
3 804 830 806
3 831 806 830
3 806 831 808
3 832 833 834
3 835 834 833
3 834 835 836
3 837 836 835
3 836 837 838
3 836 838 839
3 840 839 838
3 839 840 841
3 842 841 840
3 841 842 843
3 844 843 842
3 843 844 845
3 846 845 844
3 844 847 846
3 848 846 847
3 849 850 851
3 852 851 850
3 851 852 853
3 854 853 852
3 853 854 855
3 853 855 856
3 857 856 855
3 856 857 858
3 859 858 857
3 858 859 860
3 861 860 859
3 860 861 862
3 863 862 861
3 861 864 863
3 865 863 864
3 772 774 866
3 867 866 774
3 866 867 868
3 869 868 867
3 774 776 867
3 870 867 776
3 867 870 869
3 871 869 870
3 869 871 872
3 873 872 871
3 872 873 874
3 875 874 873
3 874 875 876
3 877 876 875
3 876 877 878
3 879 878 877
3 776 880 870
3 881 870 880
3 870 881 871
3 882 871 881
3 871 882 873
3 883 873 882
3 873 883 875
3 765 875 883
3 875 765 877
3 763 877 765
3 877 763 879
3 761 879 763
3 879 761 884
3 759 884 761
3 884 759 755
3 753 755 759
3 787 789 885
3 886 885 789
3 885 886 887
3 888 887 886
3 886 889 888
3 890 888 889
3 888 890 891
3 892 891 890
3 891 892 893
3 894 893 892
3 893 894 895
3 896 895 894
3 895 896 897
3 898 897 896
3 896 899 898
3 900 898 899
3 898 900 901
3 902 901 900
3 901 902 903
3 904 903 902
3 903 904 591
3 589 591 904
3 796 798 905
3 906 905 798
3 905 906 907
3 908 907 906
3 906 909 908
3 910 908 909
3 908 910 911
3 912 911 910
3 911 912 913
3 914 913 912
3 913 914 915
3 916 915 914
3 915 916 917
3 918 917 916
3 916 919 918
3 920 918 919
3 918 920 921
3 922 921 920
3 921 922 923
3 924 923 922
3 923 924 607
3 605 607 924
3 805 807 925
3 926 925 807
3 925 926 927
3 928 927 926
3 807 809 926
3 929 926 809
3 926 929 928
3 930 928 929
3 928 930 931
3 932 931 930
3 931 932 933
3 934 933 932
3 933 934 935
3 936 935 934
3 935 936 937
3 938 937 936
3 809 939 929
3 940 929 939
3 929 940 930
3 941 930 940
3 930 941 932
3 942 932 941
3 932 942 934
3 621 934 942
3 934 621 936
3 619 936 621
3 936 619 938
3 617 938 619
3 938 617 943
3 615 943 617
3 943 615 944
3 613 944 615
3 944 613 945
3 611 945 613
3 945 611 609
3 816 818 946
3 947 946 818
3 946 947 948
3 949 948 947
3 947 950 949
3 951 949 950
3 949 951 952
3 953 952 951
3 952 953 954
3 955 954 953
3 954 955 956
3 957 956 955
3 956 957 958
3 959 958 957
3 957 960 959
3 961 959 960
3 959 961 962
3 963 962 961
3 962 963 964
3 965 964 963
3 964 965 966
3 631 966 965
3 966 631 629
3 825 827 967
3 968 967 827
3 967 968 969
3 970 969 968
3 968 971 970
3 972 970 971
3 970 972 973
3 974 973 972
3 973 974 975
3 976 975 974
3 975 976 977
3 978 977 976
3 977 978 979
3 980 979 978
3 978 981 980
3 982 980 981
3 980 982 983
3 984 983 982
3 983 984 985
3 986 985 984
3 985 986 987
3 725 987 986
3 987 725 723
3 988 989 990
3 991 990 989
3 991 989 992
3 993 992 989
3 992 993 994
3 992 994 995
3 996 995 994
3 995 996 997
3 998 997 996
3 997 998 999
3 1000 999 998
3 998 1001 1000
3 1002 1000 1001
3 1000 1002 1003
3 1004 1003 1002
3 1003 1004 1005
3 1006 1005 1004
3 988 990 1007
3 1008 1007 990
3 1007 1008 1009
3 1007 1009 1010
3 1011 1010 1009
3 1004 1011 1006
3 1009 1006 1011
3 1012 1013 1014
3 1015 1014 1013
3 1014 1015 1016
3 1017 1016 1015
3 1016 1017 1018
3 1019 1018 1017
3 1018 1019 1020
3 1021 1020 1019
3 1020 1021 1022
3 1023 1022 1021
3 1022 1023 1024
3 1025 1024 1023
3 1024 1025 1026
3 1027 1026 1025
3 1026 1027 1028
3 1029 1028 1027
3 1028 1029 1030
3 1019 1030 1029
3 1030 1019 1031
3 1017 1031 1019
3 1031 1017 1032
3 1033 1032 1017
3 1032 1033 1034
3 1015 1034 1033
3 1034 1015 1035
3 1013 1035 1015
3 1029 1027 1019
3 1021 1019 1027
3 1034 1036 1032
3 1037 1032 1036
3 1032 1037 1030
3 1038 1030 1037
3 1030 1038 1028
3 1026 1028 1038
3 1038 1039 1026
3 1040 1026 1039
3 1026 1040 1024
3 1041 1024 1040
3 1024 1041 1022
3 1042 1022 1041
3 1022 1042 1020
3 1043 1020 1042
3 1020 1043 1018
3 1044 1018 1043
3 1018 1044 1016
3 1045 1016 1044
3 1016 1045 1014
3 1046 1014 1045
3 1014 1046 1047
3 1048 1047 1046
3 1047 1048 1049
3 1042 1049 1048
3 1049 1042 1050
3 1041 1050 1042
3 1050 1041 1051
3 1052 1051 1041
3 1051 1052 1053
3 1040 1053 1052
3 1053 1040 1054
3 1039 1054 1040
3 1014 1047 1012
3 1049 1012 1047
3 1012 1049 1055
3 1051 1055 1049
3 1055 1051 1056
3 1053 1056 1051
3 1044 1043 1045
3 1046 1045 1043
3 1043 1042 1046
3 1048 1046 1042
3 1023 1021 1025
3 1027 1025 1021
3 1057 1058 1059
3 1060 1059 1058
3 1059 1060 1061
3 1062 1061 1060
3 1061 1062 1063
3 1063 1064 1061
3 1065 1061 1064
3 1061 1065 1066
3 1067 1066 1065
3 1066 1067 1068
3 1069 1068 1067
3 1068 1069 1070
3 1071 1070 1069
3 1061 1066 1059
3 1072 1059 1066
3 1059 1072 1057
3 1070 1057 1072
3 1070 1072 1068
3 1066 1068 1072
3 1064 1073 1065
3 1074 1065 1073
3 1065 1074 1067
3 1075 1067 1074
3 1067 1075 1069
3 1076 1069 1075
3 1069 1076 1071
3 1077 1071 1076
3 1077 1076 1078
3 1079 1078 1076
3 1078 1079 1080
3 1081 1080 1079
3 1080 1081 1082
3 1083 1082 1081
3 1082 1083 1073
3 1074 1073 1083
3 1079 1076 1081
3 1075 1081 1076
3 1081 1075 1083
3 1074 1083 1075
3 594 1084 1085
3 729 1085 1084
3 594 646 1084
3 1086 1084 646
3 1084 1086 1087
3 602 1087 1086
3 602 1086 1088
3 646 1088 1086
3 729 1084 638
3 1087 638 1084
3 1089 1090 1091
3 1092 1091 1090
3 1092 1090 1093
3 1094 1093 1090
3 1089 1095 1090
3 1096 1090 1095
3 1090 1096 1097
3 1030 1031 1032
3 1017 1015 1033
3 1058 1062 1060
3 1051 1049 1050
3 1052 1041 1040
3 641 644 643
3 612 1098 610
3 599 635 601
3 734 1099 735
3 736 1100 737
3 741 1101 742
3 1097 1094 1090
3 847 1102 848
3 864 1103 865
