ply
format ascii 1.0
comment Created by Blender 2.79 (sub 0) - www.blender.org, source file: ''
element vertex 1104
property float x
property float y
property float z
element face 1190
property list uchar uint vertex_indices
end_header
13.920649 35.138794 7.361502
12.530315 31.575077 6.673592
25.132425 22.753555 7.349645
22.595705 20.457966 6.655949
32.640129 9.322521 6.774120
29.986279 4.949446 5.785792
16.845392 44.721092 9.086955
31.505106 28.520472 9.092325
18.419100 49.304462 9.938951
34.649952 31.366377 9.952319
38.264553 34.637386 10.940773
52.785217 18.510305 11.005479
-8.127358 4.922557 -0.037644
-5.987714 1.056355 -0.226424
-9.203394 9.357700 0.389995
-0.437009 -0.385334 0.357660
3.855954 3.499555 1.531476
8.371389 -10.089713 0.477850
12.761171 -10.722756 1.063600
-3.068222 -2.766111 -0.290816
0.439784 -6.056006 -0.194293
4.069442 -8.573835 0.023318
18.419100 49.304462 9.938951
23.685015 50.711197 10.860009
21.127869 53.771126 10.948696
27.958418 54.578735 12.028666
25.078936 57.744705 12.082289
32.415440 58.613342 13.247666
30.102575 61.152618 13.304152
34.226292 63.032585 14.184715
39.013443 63.702724 15.005076
35.846127 61.262341 14.124961
55.836372 50.538891 15.745975
44.486900 63.076645 15.757368
50.168537 45.409821 14.196041
35.846127 61.262341 14.124961
46.962719 42.508732 13.319385
32.415440 58.613342 13.247666
42.508724 38.478123 12.101390
27.958418 54.578735 12.028666
23.685015 50.711197 10.860009
12.530315 31.575077 6.673592
13.920649 35.138794 7.361502
6.430073 37.527740 6.551353
8.539825 41.144730 7.354156
9.254660 46.870026 8.236032
15.559220 39.798504 8.233589
16.845392 44.721092 9.086955
10.238272 52.115562 9.088120
18.419100 49.304462 9.938951
11.914383 56.327312 9.904552
21.127869 53.771126 10.948696
14.659216 60.959152 10.942327
18.271315 65.280441 12.070206
16.845392 44.721092 9.086955
15.559220 39.798504 8.233589
31.505106 28.520472 9.092325
28.350393 25.665634 8.229633
41.120140 11.514014 8.361366
36.322830 10.349612 7.473490
7.916245 29.371086 5.675475
18.961527 17.169241 5.662142
26.792255 -0.448718 4.577155
2.228796 26.732029 4.454364
14.520746 13.150586 4.447771
11.300872 10.236782 3.567261
24.144060 -4.027546 3.695154
7.967396 7.220176 2.655684
21.178301 -7.418966 2.789698
16.318720 -10.201033 1.676412
-1.595003 24.454071 3.566486
-5.264297 21.841148 2.657513
-8.517530 17.281572 1.552267
44.486900 63.076645 15.757368
55.836372 50.538891 15.745975
49.876419 60.603287 16.249962
54.707081 57.473785 16.569860
55.836372 50.538891 15.745975
59.012020 53.412994 16.685705
62.618141 48.719788 16.609398
12.530315 31.575077 6.673592
6.430073 37.527740 6.551353
7.916245 29.371086 5.675475
2.858017 34.930080 5.666141
2.228796 26.732029 4.454364
-2.877934 32.329895 4.441772
-7.073090 30.469250 3.554206
-1.595003 24.454071 3.566486
-10.934605 28.098690 2.649628
-5.264297 21.841148 2.657513
-14.733526 24.189148 1.549035
-8.517530 17.281572 1.552267
-17.677729 18.670734 0.362218
-9.392833 13.791802 0.952863
-9.203394 9.357700 0.389995
-9.392833 13.791802 0.952863
25.132425 22.753555 7.349645
25.078936 57.744705 12.082289
30.102575 61.152618 13.304152
22.818035 69.178772 13.286193
28.891071 72.112839 14.606694
34.226292 63.032585 14.184715
34.687305 73.800705 15.723382
39.013443 63.702724 15.005076
44.486900 63.076645 15.757368
40.762882 74.022614 16.672407
47.595131 72.546074 17.518099
49.876419 60.603287 16.249962
54.109787 69.488495 18.104174
54.707081 57.473785 16.569860
60.306332 65.106270 18.465111
59.012020 53.412994 16.685705
65.900833 59.647068 18.590305
-18.802147 13.077929 -0.556054
-18.403465 7.352565 -1.260128
-16.818966 1.493580 -1.799563
-8.127358 4.922557 -0.037644
-13.801322 -3.908816 -2.061088
-5.987714 1.056355 -0.226424
-9.940195 -8.984762 -2.148696
-3.068222 -2.766111 -0.290816
0.439784 -6.056006 -0.194293
14.147657 35.336121 5.880487
25.347645 22.941685 5.940057
12.757345 31.772030 5.192530
22.810925 20.646095 5.246362
8.143004 29.568184 4.192769
19.176748 17.357370 4.252555
2.455279 26.929016 2.973172
14.735969 13.338717 3.038174
11.500033 10.410379 2.153282
27.017754 -0.250639 3.095948
24.369644 -3.829417 2.214028
-7.901358 5.120227 -1.518777
-8.975707 9.555522 -1.090861
-5.758884 1.255444 -1.708558
-0.219526 -0.195161 -1.052065
-2.839247 -2.565879 -1.772786
0.667608 -5.855805 -1.676433
18.646946 49.502022 8.458094
21.356419 53.966770 9.467670
23.903292 50.898682 9.450791
28.175617 54.764877 10.619105
25.306988 57.940083 10.601142
32.632912 58.798691 11.838032
12.757345 31.772030 5.192530
6.520549 37.849693 5.069227
14.147657 35.336121 5.880487
8.608187 41.405682 5.859879
9.264326 47.102207 6.731412
15.786192 39.995914 6.752579
17.072212 44.918545 7.605927
10.244350 52.374378 7.586957
18.646946 49.502022 8.458094
17.072212 44.918545 7.605927
31.720327 28.708601 7.682738
15.786192 39.995914 6.752579
28.565613 25.853764 6.820046
25.347645 22.941685 5.940057
44.712280 63.272320 14.275292
50.101730 60.799198 14.768499
56.049816 50.725410 14.335953
54.931770 57.669464 15.088261
59.236248 53.608929 15.202458
56.049816 50.725410 14.335953
62.842140 48.916225 15.127794
11.942678 56.623459 8.411273
21.356419 53.966770 9.467670
14.702244 61.285496 9.455490
18.338915 65.633545 10.590570
25.306988 57.940083 10.601142
30.330641 61.347004 11.822885
12.757345 31.772030 5.192530
8.143004 29.568184 4.192769
6.520549 37.849693 5.069227
2.969213 35.317665 4.197978
2.455279 26.929016 2.973172
-2.742163 32.720955 2.977223
-6.950395 30.861275 2.088126
-1.368467 24.651146 2.085365
-10.850960 28.473528 1.175640
-5.037704 22.038364 1.176419
-14.697002 24.522644 0.062671
-8.290767 17.478909 0.071206
-17.666286 18.948029 -1.135712
-9.165857 13.989344 -0.528139
-8.975707 9.555522 -1.090861
23.903292 50.898682 9.450791
28.175617 54.764877 10.619105
38.479774 34.825516 9.531185
42.724018 38.666317 10.691822
22.918530 69.567871 11.816783
29.031229 72.530464 13.147686
34.458282 63.212296 12.702834
34.873631 74.257828 14.278615
39.239429 63.895763 13.523250
44.712280 63.272320 14.275292
41.005562 74.444672 15.228818
47.889591 72.955238 16.080828
50.101730 60.799198 14.768499
54.444263 69.876472 16.670053
54.931770 57.669464 15.088261
60.670528 65.471519 17.032412
59.236248 53.608929 15.202458
66.286461 59.989090 17.157679
71.174675 53.848133 17.084911
-18.802616 13.292967 -2.064153
-18.397184 7.516003 -2.774286
-16.801519 1.607942 -3.318403
-7.901358 5.120227 -1.518777
-13.758274 -3.830131 -3.581107
-5.758884 1.255444 -1.708558
-9.877042 -8.934559 -3.669365
-2.839247 -2.565879 -1.772786
0.667608 -5.855805 -1.676433
46.143509 12.301199 9.233415
50.858414 13.408672 10.101112
50.858414 13.408672 10.101112
55.571045 15.657959 11.120866
52.785217 18.510305 11.005479
57.058964 22.377449 12.174126
67.238525 32.470203 15.146162
64.494957 29.560913 14.268165
66.092422 27.771055 14.344002
61.517239 26.410683 13.393135
63.809875 23.853729 13.472652
59.917923 19.193552 12.256437
55.836372 50.538891 15.745975
50.168537 45.409821 14.196041
67.164619 37.982567 15.870733
64.494957 29.560913 14.268165
67.238525 32.470203 15.146162
-5.280252 -13.337826 -2.018491
4.069442 -8.573835 0.023318
-0.211188 -16.883793 -1.716542
8.371389 -10.089713 0.477850
5.455505 -19.048632 -1.140859
11.108185 -20.019413 -0.406534
16.781725 -19.460449 0.534479
70.768105 53.529774 18.517399
62.618141 48.719788 16.609398
74.504227 46.920986 18.206114
65.245590 43.596504 16.326782
76.891365 40.128258 17.664549
67.164619 37.982567 15.870733
77.674683 33.177780 16.856928
76.845055 27.150953 15.934126
32.640129 9.322521 6.774120
37.947296 2.652292 6.708897
36.322830 10.349612 7.473490
41.755074 4.390327 7.520187
47.519268 4.528246 8.427304
41.120140 11.514014 8.361366
46.143509 12.301199 9.233415
52.833397 4.981831 9.301051
50.858414 13.408672 10.101112
67.164619 37.982567 15.870733
65.245590 43.596504 16.326782
57.189075 6.228506 10.130867
55.571045 15.657959 11.120866
62.069557 8.497139 11.179329
66.728180 11.660391 12.312439
59.917923 19.193552 12.256437
63.809875 23.853729 13.472652
32.640129 9.322521 6.774120
29.986279 4.949446 5.785792
37.947296 2.652292 6.708897
35.006428 -0.643816 5.826849
26.792255 -0.448718 4.577155
31.846203 -6.094175 4.615355
29.575706 -10.084557 3.737411
24.144060 -4.027546 3.695154
26.831654 -13.691646 2.838419
21.178301 -7.418966 2.789698
22.563694 -17.082169 1.735472
16.318720 -10.201033 1.676412
12.761171 -10.722756 1.063600
71.059937 15.796593 13.527351
74.585922 21.549103 14.835120
66.092422 27.771055 14.344002
67.238525 32.470203 15.146162
36.548714 10.548188 5.992459
32.865643 9.521152 5.293041
53.000103 18.701540 9.596235
51.084618 13.608047 8.620237
38.479774 34.825516 9.531185
34.865215 31.554546 8.542744
23.903292 50.898682 9.450791
18.646946 49.502022 8.458094
4.295563 -8.376302 -1.457806
8.597829 -9.890512 -1.003012
4.071271 3.687769 0.121558
-9.165857 13.989344 -0.528139
-8.290767 17.478909 0.071206
8.182624 7.408311 1.246098
16.544592 -10.002710 0.195356
21.404034 -7.220798 1.308600
-5.037704 22.038364 1.176419
-1.368467 24.651146 2.085365
12.987253 -10.524229 -0.417397
51.084618 13.608047 8.620237
53.000103 18.701540 9.596235
55.795410 15.858232 9.639818
57.272415 22.567757 10.764549
60.141975 19.393353 10.775270
64.032936 24.053658 11.991351
-5.190793 -13.310495 -3.538279
4.295563 -8.376302 -1.457806
-0.088823 -16.885525 -3.234867
8.597829 -9.890512 -1.003012
5.625552 -19.066408 -2.654198
11.328854 -20.049076 -1.913527
62.842140 48.916225 15.127794
74.930412 47.207485 16.772451
65.469887 43.793533 14.845314
77.334618 40.372780 16.228012
67.388702 38.179680 14.388639
78.125565 33.369453 15.414370
77.325134 27.283024 14.490817
32.865643 9.521152 5.293041
36.548714 10.548188 5.992459
38.283394 2.702452 5.227998
42.028305 4.424580 6.026934
47.757988 4.506962 6.923830
41.346111 11.712533 6.880342
46.369499 12.499573 7.752373
53.098259 4.954300 7.801171
51.084618 13.608047 8.620237
57.493271 6.219355 8.638968
55.795410 15.858232 9.639818
62.405251 8.499634 9.693945
67.092949 11.684664 10.834279
46.369499 12.499573 7.752373
41.346111 11.712533 6.880342
30.211903 5.147794 4.303090
67.388702 38.179680 14.388639
65.469887 43.793533 14.845314
32.865643 9.521152 5.293041
38.283394 2.702452 5.227998
30.211903 5.147794 4.303090
35.409843 -0.579582 4.360137
27.017754 -0.250639 3.095948
32.255547 -6.005837 3.152174
29.984699 -10.009333 2.272753
24.369644 -3.829417 2.214028
27.219645 -13.653578 1.365942
21.404034 -7.220798 1.308600
22.905846 -17.086870 0.250645
16.544592 -10.002710 0.195356
17.065496 -19.484501 -0.962089
12.987253 -10.524229 -0.417397
38.479774 34.825516 9.531185
42.724018 38.666317 10.691822
53.000103 18.701540 9.596235
57.272415 22.567757 10.764549
60.141975 19.393353 10.775270
64.032936 24.053658 11.991351
71.463791 15.850010 12.059448
75.022118 21.639149 13.377583
66.314209 27.971186 12.862493
67.460037 32.668175 13.664301
52.785217 18.510305 11.005479
57.058964 22.377449 12.174126
38.264553 34.637386 10.940773
42.508724 38.478123 12.101390
61.517239 26.410683 13.393135
46.962719 42.508732 13.319385
30.330641 61.347004 11.822885
34.497971 63.016853 12.747224
35.967102 61.372353 12.690813
39.239429 63.895763 13.523250
34.458282 63.212296 12.702834
28.175617 54.764877 10.619105
32.632912 58.798691 11.838032
42.724018 38.666317 10.691822
47.177940 42.696861 11.909797
35.967102 61.372353 12.690813
55.911411 50.600166 14.298105
47.177940 42.696861 11.909797
61.729607 26.601299 11.983413
55.911411 50.600166 14.298105
64.700142 29.746475 12.856947
61.729607 26.601299 11.983413
66.314209 27.971186 12.862493
64.700142 29.746475 12.856947
67.460037 32.668175 13.664301
39.239429 63.895763 13.523250
44.712280 63.272320 14.275292
56.049816 50.725410 14.335953
67.388702 38.179680 14.388639
46.369499 12.499573 7.752373
31.720327 28.708601 7.682738
17.072212 44.918545 7.605927
10.238272 52.115562 9.088120
11.914383 56.327312 9.904552
11.309122 56.872536 9.317161
14.659216 60.959152 10.942327
14.167530 61.634094 10.389090
18.271315 65.280441 12.070206
17.794859 65.963852 11.520790
22.818035 69.178772 13.286193
22.360043 69.876465 12.740013
28.891071 72.112839 14.606694
28.472267 72.800194 14.063464
34.687305 73.800705 15.723382
34.324631 74.473335 15.180330
40.762882 74.022614 16.672407
40.824463 74.915657 16.231783
47.595131 72.546074 17.518099
47.848045 73.419922 17.104544
54.109787 69.488495 18.104174
54.532982 70.298904 17.708683
60.306332 65.106270 18.465111
60.878460 65.824440 18.080355
65.900833 59.647068 18.590305
66.583122 60.261944 18.208971
71.542061 54.024612 18.133661
66.286461 59.989090 17.157679
71.174675 53.848133 17.084911
60.670528 65.471519 17.032412
54.444263 69.876472 16.670053
47.889591 72.955238 16.080828
41.005562 74.444672 15.228818
34.873631 74.257828 14.278615
29.031229 72.530464 13.147686
22.918530 69.567871 11.816783
18.338915 65.633545 10.590570
14.702244 61.285496 9.455490
11.942678 56.623459 8.411273
10.244350 52.374378 7.586957
70.768105 53.529774 18.517399
75.354973 47.258289 17.812771
74.930412 47.207485 16.772451
74.504227 46.920986 18.206114
77.788132 40.289658 17.254213
77.334618 40.372780 16.228012
76.891365 40.128258 17.664549
78.571350 33.146751 16.420477
78.125565 33.369453 15.414370
77.674683 33.177780 16.856928
77.480087 26.719566 15.396062
77.325134 27.283024 14.490817
76.845055 27.150953 15.934126
75.229942 21.060387 14.297203
75.022118 21.639149 13.377583
74.585922 21.549103 14.835120
71.710297 15.267830 12.986712
71.463791 15.850010 12.059448
71.059937 15.796593 13.527351
67.362488 11.114679 11.768577
67.092949 11.684664 10.834279
66.728180 11.660391 12.312439
62.693913 7.937122 10.631671
62.405251 8.499634 9.693945
62.069557 8.497139 11.179329
57.673073 5.568407 9.548931
57.493271 6.219355 8.638968
57.189075 6.228506 10.130867
52.833397 4.981831 9.301051
53.486488 4.339088 8.745637
47.519268 4.528246 8.427304
48.214874 3.827637 7.872486
41.755074 4.390327 7.520187
42.494617 3.683928 6.979915
37.947296 2.652292 6.708897
38.549416 2.066626 6.161694
35.006428 -0.643816 5.826849
35.587337 -1.091663 5.287914
31.846203 -6.094175 4.615355
32.516914 -6.627519 4.080272
29.575706 -10.084557 3.737411
30.244610 -10.621549 3.200270
26.831654 -13.691646 2.838419
27.473972 -14.227158 2.296019
22.563694 -17.082169 1.735472
23.179384 -17.632122 1.185864
16.781725 -19.460449 0.534479
17.091965 -20.180138 -0.083655
11.108185 -20.019413 -0.406534
11.226061 -20.765772 -1.057446
5.455505 -19.048632 -1.140859
5.385922 -19.775421 -1.816965
-0.211188 -16.883793 -1.716542
-0.457664 -17.553162 -2.412594
-5.280252 -13.337826 -2.018491
-5.679313 -13.912573 -2.723968
-9.940195 -8.984762 -2.148696
-10.455674 -9.453809 -2.858156
-14.410231 -4.251358 -2.767613
-9.877042 -8.934559 -3.669365
-13.758274 -3.830131 -3.581107
-13.801322 -3.908816 -2.061088
-17.506657 1.312437 -2.497821
-16.801519 1.607942 -3.318403
-16.818966 1.493580 -1.799563
-19.130514 7.353296 -1.939521
-18.397184 7.516003 -2.774286
-18.403465 7.352565 -1.260128
-19.529865 13.267265 -1.211193
-18.802616 13.292967 -2.064153
-18.802147 13.077929 -0.556054
-18.359650 19.048923 -0.260876
-17.666286 18.948029 -1.135712
-17.677729 18.670734 0.362218
-15.216065 24.854446 0.993927
-14.697002 24.522644 0.062671
-14.733526 24.189148 1.549035
-11.400111 28.789045 2.101689
-10.850960 28.473528 1.175640
-10.934605 28.098690 2.649628
-7.537418 31.186237 3.011400
-6.950395 30.861275 2.088126
-7.073090 30.469250 3.554206
-3.338459 33.048321 3.901033
-2.742163 32.720955 2.977223
-2.877934 32.329895 4.441772
2.473495 35.550529 5.122380
2.969213 35.317665 4.197978
2.858017 34.930080 5.666141
5.910625 38.183144 5.998534
6.520549 37.849693 5.069227
6.430073 37.527740 6.551353
7.914103 41.949074 6.807049
8.608187 41.405682 5.859879
8.539825 41.144730 7.354156
8.630325 47.630009 7.674605
9.264326 47.102207 6.731412
9.254660 46.870026 8.236032
9.667210 52.827408 8.526587
53.098259 4.954300 7.801171
47.757988 4.506962 6.923830
42.028305 4.424580 6.026934
38.283394 2.702452 5.227998
35.409843 -0.579582 4.360137
32.255547 -6.005837 3.152174
29.984699 -10.009333 2.272753
27.219645 -13.653578 1.365942
22.905846 -17.086870 0.250645
17.065496 -19.484501 -0.962089
11.328854 -20.049076 -1.913527
5.625552 -19.066408 -2.654198
-0.088823 -16.885525 -3.234867
-5.190793 -13.310495 -3.538279
39.013443 63.702724 15.005076
46.143509 12.301199 9.233415
38.264553 34.637386 10.940773
56.049816 50.725410 14.335953
67.460037 32.668175 13.664301
23.685015 50.711197 10.860009
20.866880 18.895046 7.132895
28.490421 9.179747 6.437986
30.219490 10.715465 6.902410
37.127293 2.443253 6.797049
38.883209 3.590132 7.217021
38.250267 0.977621 5.972431
40.558937 2.316961 6.503600
39.301018 3.706181 4.989239
35.240105 0.236052 6.189304
36.348827 -1.476511 5.354522
35.726967 0.413578 4.053357
37.596558 2.581108 4.579543
28.902897 9.501909 3.879487
30.625048 11.032405 4.356095
21.412937 19.371277 3.572081
38.883209 3.590132 7.217021
31.426476 11.804296 7.241710
30.219490 10.715465 6.902410
20.866880 18.895046 7.132895
22.966013 20.846897 7.691473
14.684963 30.128895 7.168693
12.014532 27.507662 6.346217
5.554918 37.400917 6.644038
3.759875 35.094093 6.032352
4.201691 38.660179 5.803346
2.169634 36.348370 5.184009
3.986333 35.510780 3.886972
6.856936 39.028046 7.057089
5.761782 40.821060 6.329598
7.023195 39.424049 4.828436
5.716059 37.831757 4.419844
15.062727 30.496143 4.480082
12.374458 27.860697 3.852353
21.412937 19.371277 3.572081
39.301018 3.706181 4.989239
30.625048 11.032405 4.356095
31.826340 12.115084 4.664166
23.497139 21.309492 4.185352
66.528259 60.210667 19.601982
65.935349 60.986275 19.204075
55.710491 50.420895 16.575850
55.145821 51.159565 16.196638
46.271217 43.095711 13.739263
-48.918549 -43.049366 -12.313295
-49.027523 -42.686764 -13.182860
-50.849026 -44.761089 -13.011859
-50.944332 -44.425896 -13.707637
-51.975880 -45.716434 -14.037378
-50.636097 -44.574963 -14.406431
-51.746403 -45.834419 -14.749345
-51.246567 -46.379295 -14.911671
-51.457897 -46.569294 -14.694748
-51.093388 -47.021324 -14.600593
-51.605209 -46.699791 -14.112025
67.241844 59.540569 19.210608
66.528259 60.210667 19.601982
56.390099 49.782707 16.202858
55.710491 50.420895 16.575850
46.821095 42.376339 14.108884
67.241844 59.540569 19.210608
56.390099 49.782707 16.202858
67.648056 59.373329 18.252972
56.775894 49.624355 15.291831
56.668385 50.025963 14.380219
47.857609 41.601688 12.859415
47.753582 41.991409 11.972878
43.502411 37.662167 11.668661
43.398613 38.050938 10.783167
39.140457 33.716534 10.476062
39.036747 34.104218 9.591558
35.503143 30.426573 9.481611
35.399498 30.813198 8.598057
32.335262 28.041029 7.761926
-50.849026 -44.761089 -13.011859
-50.226761 -45.448475 -12.871099
-48.918549 -43.049366 -12.313295
-48.341873 -43.740829 -11.930021
-49.604984 -46.137539 -13.005621
-47.710411 -44.386230 -12.307256
66.941299 60.571716 16.896769
56.103630 50.764549 14.000982
66.227875 61.241974 17.288195
55.424107 51.402821 14.373999
-48.654186 -42.818279 -14.044731
-49.973507 -45.227097 -14.529795
-49.392056 -45.951412 -14.400194
-50.755638 -46.930737 -14.744401
-49.278069 -46.269703 -13.699307
-50.664619 -47.167408 -14.030824
-50.970123 -47.118221 -13.339637
-51.050983 -47.227062 -14.097776
-51.247021 -47.155621 -13.594375
-51.605209 -46.699791 -14.112025
-51.871292 -46.160534 -14.604481
-51.871292 -46.160534 -14.604481
-52.073933 -46.095116 -14.102890
-52.024925 -46.294827 -13.598263
-51.960884 -46.021900 -13.344601
-25.949799 -23.488918 -8.384373
-26.612160 -22.868544 -8.015288
-20.906937 -18.925411 -7.005335
-21.565378 -18.307987 -6.640627
-21.931194 -18.165890 -5.773033
-26.974234 -22.729271 -7.152071
-26.876108 -23.099268 -6.286557
-21.830669 -18.539883 -4.903115
-21.284513 -19.255461 -4.532393
-26.327377 -23.818968 -5.911421
-20.626009 -19.872829 -4.897083
-25.665115 -24.439295 -6.280504
-25.302963 -24.578619 -7.143716
-20.260199 -20.014933 -5.764679
-20.360720 -19.640934 -6.634596
-25.949799 -23.488918 -8.384373
-31.249638 -28.284973 -9.833673
-26.612160 -22.868544 -8.015288
-31.910252 -27.665886 -9.466556
-26.974234 -22.729271 -7.152071
-32.273998 -27.525379 -8.601367
-32.174805 -27.897139 -7.733865
-26.876108 -23.099268 -6.286557
-31.627216 -28.615023 -7.360722
-26.327377 -23.818968 -5.911421
-30.966589 -29.234095 -7.727825
-25.665115 -24.439295 -6.280504
-30.602842 -29.374601 -8.593013
-25.302963 -24.578619 -7.143716
-25.401167 -24.208572 -8.009234
-31.249638 -28.284973 -9.833673
-36.451366 -32.992241 -11.256145
-31.910252 -27.665886 -9.466556
-37.110207 -32.374538 -10.890970
-32.273998 -27.525379 -8.601367
-37.475666 -32.232727 -10.023839
-37.375355 -32.606312 -9.154379
-32.174805 -27.897139 -7.733865
-36.828949 -33.322292 -8.783193
-31.627216 -28.615023 -7.360722
-36.170017 -33.939915 -9.148333
-30.966589 -29.234095 -7.727825
-35.804642 -34.081802 -10.015486
-30.602842 -29.374601 -8.593013
-30.702034 -29.002842 -9.460515
-47.963852 -43.410397 -14.405865
-48.654186 -42.818279 -14.044731
-41.947468 -37.965900 -12.759116
-42.604485 -37.349350 -12.395827
-49.027523 -42.686764 -13.182860
-42.971710 -37.206455 -11.526811
-42.870224 -37.581638 -10.655375
-48.918549 -43.049366 -12.313295
-42.325050 -38.295952 -10.286163
-48.341873 -43.740829 -11.930021
-41.667812 -38.912167 -10.649374
-47.710411 -44.386230 -12.307256
-41.300808 -39.055397 -11.518458
-47.356758 -44.535553 -13.174508
-47.446049 -44.155148 -14.038692
-36.451366 -32.992241 -11.256145
-41.947468 -37.965900 -12.759116
-37.110207 -32.374538 -10.890970
-42.604485 -37.349350 -12.395827
-37.475666 -32.232727 -10.023839
-42.971710 -37.206455 -11.526811
-42.870224 -37.581638 -10.655375
-37.375355 -32.606312 -9.154379
-42.325050 -38.295952 -10.286163
-36.828949 -33.322292 -8.783193
-41.667812 -38.912167 -10.649374
-36.170017 -33.939915 -9.148333
-41.300808 -39.055397 -11.518458
-35.804642 -34.081802 -10.015486
-35.904869 -33.708145 -10.884923
67.534370 59.796268 17.294725
56.668385 50.025963 14.380219
66.941299 60.571716 16.896769
56.103630 50.764549 14.000982
-47.446049 -44.155148 -14.038692
-47.356758 -44.535553 -13.174508
-47.710411 -44.386230 -12.307256
-49.604984 -46.137539 -13.005621
-51.093388 -47.021324 -14.600593
-25.401167 -24.208572 -8.009234
-25.949799 -23.488918 -8.384373
-20.906937 -18.925411 -7.005335
-30.702034 -29.002842 -9.460515
-25.949799 -23.488918 -8.384373
-35.904869 -33.708145 -10.884923
-31.249638 -28.284973 -9.833673
-41.402073 -38.679882 -12.389807
-47.963852 -43.410397 -14.405865
-41.947468 -37.965900 -12.759116
-41.402073 -38.679882 -12.389807
-36.451366 -32.992241 -11.256145
-50.636097 -44.574963 -14.406431
-48.654186 -42.818279 -14.044731
-49.973507 -45.227097 -14.529795
-47.963852 -43.410397 -14.405865
-49.392056 -45.951412 -14.400194
-47.446049 -44.155148 -14.038692
65.935349 60.986275 19.204075
65.814270 61.402508 18.243805
55.145821 51.159565 16.196638
55.031307 51.554832 15.283110
46.160625 43.479488 12.850932
46.541840 43.332268 11.966822
42.187393 39.391220 10.777112
66.227875 61.241974 17.288195
55.424107 51.402821 14.373999
46.271217 43.095711 13.739263
41.807102 39.538113 11.660187
41.917103 39.154953 12.547378
37.446827 35.590626 10.467595
37.556076 35.207954 11.353615
33.811108 32.298897 9.473153
33.919624 31.916677 10.358039
30.856668 29.144089 9.518619
-11.093535 -8.828294 -3.775435
-11.458508 -8.687244 -2.908964
-0.811235 0.474474 -0.970000
-1.180947 0.618370 -0.097781
3.525981 4.399903 0.215004
3.155484 4.544267 1.088288
7.452065 7.953254 1.287647
7.080732 8.097960 2.161900
10.496616 11.190380 3.096178
10.600969 10.811458 3.974001
13.990973 13.879586 4.901890
-11.358500 -9.059904 -2.040059
-1.077986 0.241303 0.777077
3.258901 4.166444 1.964238
7.184669 7.719519 3.038898
-11.358500 -9.059904 -2.040059
-10.811022 -9.777539 -1.667420
-1.077986 0.241303 0.777077
-0.531167 -0.474838 1.147071
3.258901 4.166444 1.964238
3.805974 3.450034 2.334193
7.184669 7.719519 3.038898
7.731982 7.002853 3.408825
11.148479 10.094593 4.343912
-10.811022 -9.777539 -1.667420
-10.150016 -10.397158 -2.034008
-0.531167 -0.474838 1.147071
0.127791 -1.092952 0.783105
3.805974 3.450034 2.334193
4.465174 2.831640 1.970268
7.731982 7.002853 3.408825
8.391419 6.384202 3.044932
11.808094 9.475724 3.980037
-10.150016 -10.397158 -2.034008
-9.786064 -10.537891 -2.900603
0.127791 -1.092952 0.783105
0.496464 -1.237788 -0.089398
4.465174 2.831640 1.970268
4.834558 2.686269 1.096680
8.391419 6.384202 3.044932
8.761370 6.238246 2.170302
12.178487 9.329303 3.104585
12.075717 9.709660 2.227195
15.466319 12.777594 3.153538
-10.433180 -9.447260 -4.142046
-11.093535 -8.828294 -3.775435
-0.152350 -0.143706 -1.333986
-0.811235 0.474474 -0.970000
4.185108 3.781443 -0.148942
3.525981 4.399903 0.215004
8.111416 7.334524 0.923730
7.452065 7.953254 1.287647
10.868606 11.045404 2.221163
-9.885056 -10.165551 -3.769406
-10.433180 -9.447260 -4.142046
0.394542 -0.859781 -0.963973
-0.152350 -0.143706 -1.333986
4.732254 3.065099 0.221034
4.185108 3.781443 -0.148942
8.658799 6.617924 1.293678
8.111416 7.334524 0.923730
11.528150 10.426471 1.857267
-9.885056 -10.165551 -3.769406
0.394542 -0.859781 -0.963973
4.732254 3.065099 0.221034
8.658799 6.617924 1.293678
-15.724353 -14.235469 -5.588110
-20.906937 -18.925411 -7.005335
-16.384945 -13.616416 -5.221024
-21.565378 -18.307987 -6.640627
-16.748714 -13.475876 -4.355804
-21.931194 -18.165890 -5.773033
-21.830669 -18.539883 -4.903115
-16.649508 -13.847675 -3.488274
-21.284513 -19.255461 -4.532393
-16.101933 -14.565518 -3.115158
-20.626009 -19.872829 -4.897083
-15.441337 -15.184566 -3.482233
-20.260199 -20.014933 -5.764679
-15.077559 -15.325098 -4.347450
-15.176774 -14.953306 -5.214982
-20.360720 -19.640934 -6.634596
-15.724353 -14.235469 -5.588110
-10.433180 -9.447260 -4.142046
-15.724353 -14.235469 -5.588110
-11.093535 -8.828294 -3.775435
-16.384945 -13.616416 -5.221024
-11.458508 -8.687244 -2.908964
-16.748714 -13.475876 -4.355804
-16.649508 -13.847675 -3.488274
-11.358500 -9.059904 -2.040059
-16.101933 -14.565518 -3.115158
-10.811022 -9.777539 -1.667420
-15.441337 -15.184566 -3.482233
-10.150016 -10.397158 -2.034008
-15.077559 -15.325098 -4.347450
-9.786064 -10.537891 -2.900603
-9.885056 -10.165551 -3.769406
-15.176774 -14.953306 -5.214982
-10.433180 -9.447260 -4.142046
10.868606 11.045404 2.221163
13.886219 14.258966 4.023261
14.258846 14.113740 3.147503
18.621689 18.062641 4.339002
18.247581 18.208261 5.216259
21.788094 21.413197 6.184582
22.162836 21.267460 5.306753
24.841980 24.177706 7.019825
25.217319 24.031872 6.141451
27.601946 26.676386 7.774710
27.977955 26.530415 6.895706
30.749153 29.525454 8.635486
31.125811 29.379351 7.755880
34.189266 32.152378 8.592007
18.353333 17.828064 6.096606
21.894287 21.032715 7.065611
24.948587 23.796968 7.901505
27.709007 26.295319 8.657129
37.826038 35.443932 9.585505
10.600969 10.811458 3.974001
14.538661 13.162519 5.271770
13.990973 13.879586 4.901890
18.353333 17.828064 6.096606
18.901423 17.110579 6.466451
22.442522 20.315077 7.435427
21.894287 21.032715 7.065611
25.496960 23.079172 8.271300
24.948587 23.796968 7.901505
28.257544 25.577347 9.026906
27.709007 26.295319 8.657129
31.405363 28.425949 9.888377
30.856668 29.144089 9.518619
33.919624 31.916677 10.358039
34.468723 31.198122 10.727752
38.105419 34.489128 11.723289
37.556076 35.207954 11.353615
42.466698 38.435848 12.917023
41.917103 39.154953 12.547378
46.821095 42.376339 14.108884
11.148479 10.094593 4.343912
15.198460 12.543453 4.907928
14.538661 13.162519 5.271770
18.901423 17.110579 6.466451
19.561590 16.491064 6.102645
23.102825 19.695404 7.071652
22.442522 20.315077 7.435427
26.157408 22.459345 7.907547
25.496960 23.079172 8.271300
28.918158 24.957348 8.663176
28.257544 25.577347 9.026906
32.066120 27.805767 9.524665
31.405363 28.425949 9.888377
34.468723 31.198122 10.727752
35.129852 30.577496 10.364088
38.766788 33.868237 11.359667
38.105419 34.489128 11.723289
43.128323 37.814674 12.553432
42.466698 38.435848 12.917023
47.482960 41.754852 13.745320
11.808094 9.475724 3.980037
15.569270 12.396583 4.031674
15.198460 12.543453 4.907928
19.561590 16.491064 6.102645
19.933126 16.343117 5.224685
23.474596 19.546976 6.193011
23.102825 19.695404 7.071652
26.529396 22.310482 7.028258
26.157408 22.459345 7.907547
29.290428 24.807991 7.783151
28.918158 24.957348 8.663176
32.438652 27.655933 8.643931
32.066120 27.805767 9.524665
35.129852 30.577496 10.364088
19.829948 16.725641 4.345042
23.371374 19.930147 5.312795
26.426140 22.694248 6.147494
29.187090 25.192427 6.901749
38.766788 33.868237 11.359667
43.128323 37.814674 12.553432
47.482960 41.754852 13.745320
11.528150 10.426471 1.857267
14.258846 14.113740 3.147503
14.918558 13.494596 2.783637
19.281786 17.443062 3.975177
18.621689 18.062641 4.339002
22.162836 21.267460 5.306753
22.823069 20.647718 4.942958
25.217319 24.031872 6.141451
25.877687 23.411972 5.777677
27.977955 26.530415 6.895706
28.638481 25.910334 6.531952
31.125811 29.379351 7.755880
31.786489 28.759098 7.392147
34.850330 31.531693 8.228325
34.189266 32.152378 8.592007
37.826038 35.443932 9.585505
38.487339 34.822975 9.221864
42.187393 39.391220 10.777112
42.848938 38.769970 10.413500
46.541840 43.332268 11.966822
47.203667 42.710751 11.603248
12.075717 9.709660 2.227195
14.918558 13.494596 2.783637
15.466319 12.777594 3.153538
19.829948 16.725641 4.345042
19.281786 17.443062 3.975177
22.823069 20.647718 4.942958
23.371374 19.930147 5.312795
25.877687 23.411972 5.777677
26.426140 22.694248 6.147494
28.638481 25.910334 6.531952
29.187090 25.192427 6.901749
31.786489 28.759098 7.392147
32.335262 28.041029 7.761926
35.399498 30.813198 8.598057
34.850330 31.531693 8.228325
38.487339 34.822975 9.221864
39.036747 34.104218 9.591558
42.848938 38.769970 10.413500
43.398613 38.050938 10.783167
47.203667 42.710751 11.603248
47.753582 41.991409 11.972878
44.563145 2.919186 7.196251
43.395042 4.112934 7.968040
40.558937 2.316961 6.503600
38.883209 3.590132 7.217021
31.426476 11.804296 7.241710
33.900543 14.045335 8.003207
25.349691 22.955061 8.420374
22.966013 20.846897 7.691473
17.347313 32.356449 7.920243
14.684963 30.128895 7.168693
7.974884 43.376846 7.800314
6.856936 39.028046 7.057089
5.761782 40.821060 6.329598
6.872332 44.622589 7.007357
8.019239 43.695694 5.577330
7.023195 39.424049 4.828436
17.909433 32.883087 5.167487
15.062727 30.496143 4.480082
23.497139 21.309492 4.185352
43.940033 4.306335 5.796600
39.301018 3.706181 4.989239
31.826340 12.115084 4.664166
34.488216 14.531207 5.248188
26.095617 23.612202 4.792045
36.348827 -1.476511 5.354522
35.240105 0.236052 6.189304
34.095833 -3.526842 5.491648
27.097519 7.887675 6.059357
25.728180 6.649894 5.703203
17.637304 15.975322 6.279722
17.460051 15.815283 6.312233
9.012747 24.834938 5.587656
17.524271 15.866530 4.809620
9.004958 24.818764 4.687325
17.432564 15.774739 2.836193
8.851751 24.665855 3.337653
9.426064 25.208557 2.977922
-0.184118 34.077080 3.610388
-0.125622 34.714737 3.306108
-0.954227 34.713352 4.489656
-0.692511 35.245358 4.599844
-0.179226 34.011642 5.194299
-0.100651 34.313366 5.320704
9.178655 24.962807 5.620473
10.544604 26.199844 5.976040
18.768452 16.998783 6.555752
20.866880 18.895046 7.132895
28.490421 9.179747 6.437986
12.014532 27.507662 6.346217
3.759875 35.094093 6.032352
2.169634 36.348370 5.184009
3.986333 35.510780 3.886972
10.926599 26.575863 3.400290
18.051361 16.332878 2.598809
25.410021 6.343267 3.420427
25.571541 6.486976 4.770140
25.584372 6.497572 5.670497
33.797604 -3.567060 5.303151
34.552761 -4.292607 4.705108
34.966583 -4.213293 4.778102
34.053596 -3.420610 3.559947
34.644997 -3.472517 3.518405
26.009518 6.858102 3.060822
27.516457 8.212824 3.482438
19.319927 17.481133 3.006307
21.412937 19.371277 3.572081
12.374458 27.860697 3.852353
35.726967 0.413578 4.053357
28.902897 9.501909 3.879487
43.395042 4.112934 7.968040
44.563145 2.919186 7.196251
44.722336 3.475855 7.292281
44.385612 4.421926 6.305323
34.886356 14.918805 5.917128
43.940033 4.306335 5.796600
34.488216 14.531207 5.248188
26.095617 23.612202 4.792045
26.528282 24.006456 5.457768
34.255661 14.346516 7.145031
26.004606 23.540760 7.130145
34.000389 14.113707 8.060035
25.548538 23.134569 8.449285
33.900543 14.045335 8.003207
25.349691 22.955061 8.420374
43.879910 4.293028 8.078178
17.909433 32.883087 5.167487
18.317844 33.252789 5.834566
17.689995 32.677284 7.062220
17.428505 32.451000 7.977379
17.347313 32.356449 7.920243
7.974884 43.376846 7.800314
8.166777 43.809010 7.899056
6.872332 44.622589 7.007357
7.442053 44.725548 7.105534
8.019239 43.695694 5.577330
8.221024 44.170536 6.088196
-51.509716 -46.609318 -13.188194
-50.226761 -45.448475 -12.871099
-51.640518 -46.728928 -13.498674
-51.247021 -47.155621 -13.594375
-52.024925 -46.294827 -13.598263
67.648056 59.373329 18.252972
66.768219 60.421452 18.258522
67.241844 59.540569 19.210608
66.528259 60.210667 19.601982
65.935349 60.986275 19.204075
65.814270 61.402508 18.243805
67.534370 59.796268 17.294725
66.941299 60.571716 16.896769
66.227875 61.241974 17.288195
67.534370 59.796268 17.294725
-31.249638 -28.284973 -9.833673
-36.451366 -32.992241 -11.256145
-41.947468 -37.965900 -12.759116
-20.906937 -18.925411 -7.005335
-15.724353 -14.235469 -5.588110
3 0 1 2
3 3 2 1
3 2 3 4
3 5 4 3
3 6 7 8
3 9 8 7
3 8 9 10
3 11 10 9
3 12 13 14
3 15 14 13
3 14 15 16
3 17 16 15
3 16 17 18
3 13 19 15
3 20 15 19
3 15 20 17
3 21 17 20
3 22 23 24
3 25 24 23
3 24 25 26
3 27 26 25
3 26 27 28
3 29 28 27
3 30 29 31
3 27 31 29
3 32 33 34
3 35 34 33
3 34 35 36
3 37 36 35
3 36 37 38
3 39 38 37
3 38 39 40
3 41 42 43
3 44 43 42
3 44 42 45
3 46 45 42
3 45 46 47
3 45 47 48
3 49 48 47
3 48 49 50
3 51 50 49
3 50 51 52
3 53 52 51
3 54 55 56
3 57 56 55
3 56 57 58
3 59 58 57
3 1 60 3
3 61 3 60
3 3 61 5
3 62 5 61
3 60 63 61
3 64 61 63
3 61 64 62
3 65 62 64
3 62 65 66
3 67 66 65
3 66 67 68
3 69 68 67
3 64 63 65
3 70 65 63
3 65 70 67
3 71 67 70
3 67 71 72
3 73 74 75
3 76 75 74
3 76 77 78
3 79 78 77
3 80 81 82
3 83 82 81
3 82 83 84
3 85 84 83
3 84 85 86
3 84 86 87
3 88 87 86
3 87 88 89
3 90 89 88
3 89 90 91
3 92 91 90
3 91 92 93
3 94 93 92
3 14 16 95
3 72 95 16
3 72 16 67
3 69 67 16
3 55 0 57
3 57 0 96
3 57 96 59
3 51 97 53
3 98 53 97
3 53 98 99
3 100 99 98
3 98 101 100
3 102 100 101
3 101 103 102
3 104 102 103
3 102 104 105
3 106 105 104
3 104 107 106
3 108 106 107
3 107 109 108
3 110 108 109
3 109 111 110
3 112 110 111
3 92 113 94
3 114 94 113
3 94 114 115
3 94 115 116
3 117 116 115
3 116 117 118
3 119 118 117
3 118 119 120
3 121 120 119
3 122 123 124
3 125 124 123
3 124 125 126
3 127 126 125
3 126 127 128
3 129 128 127
3 128 129 130
3 131 130 129
3 130 131 132
3 133 134 135
3 136 135 134
3 135 136 137
3 138 137 136
3 139 140 141
3 142 141 140
3 140 143 142
3 144 142 143
3 145 146 147
3 148 147 146
3 147 148 149
3 147 149 150
3 151 150 149
3 149 152 151
3 153 151 152
3 154 155 156
3 157 156 155
3 156 157 122
3 158 122 157
3 159 160 161
3 162 161 160
3 162 163 164
3 165 164 163
3 152 166 153
3 167 153 166
3 166 168 167
3 169 167 168
3 167 169 170
3 171 170 169
3 172 173 174
3 175 174 173
3 173 176 175
3 177 175 176
3 177 176 178
3 179 178 176
3 178 179 180
3 181 180 179
3 180 181 182
3 183 182 181
3 182 183 184
3 185 184 183
3 184 185 186
3 187 188 189
3 190 189 188
3 169 191 171
3 192 171 191
3 171 192 193
3 194 193 192
3 193 194 195
3 196 195 194
3 194 197 196
3 198 196 197
3 196 198 199
3 200 199 198
3 199 200 201
3 202 201 200
3 201 202 203
3 204 203 202
3 203 204 205
3 184 186 206
3 207 206 186
3 207 186 208
3 209 208 186
3 208 209 210
3 211 210 209
3 210 211 212
3 213 212 211
3 212 213 214
3 215 216 7
3 9 7 216
3 217 218 219
3 220 219 218
3 221 222 223
3 224 223 222
3 223 224 225
3 226 225 224
3 224 220 226
3 218 226 220
3 227 228 229
3 230 229 228
3 229 230 231
3 119 232 121
3 233 121 232
3 232 234 233
3 235 233 234
3 234 236 235
3 237 235 236
3 235 237 238
3 112 111 239
3 240 239 111
3 239 240 241
3 242 241 240
3 241 242 243
3 244 243 242
3 243 244 245
3 246 245 244
3 247 248 249
3 250 249 248
3 249 250 251
3 249 251 252
3 253 252 251
3 251 254 253
3 255 253 254
3 256 257 74
3 79 74 257
3 254 258 255
3 259 255 258
3 258 260 259
3 261 259 260
3 259 261 262
3 263 262 261
3 264 265 266
3 267 266 265
3 265 268 267
3 269 267 268
3 269 268 270
3 271 270 268
3 270 271 272
3 273 272 271
3 272 273 274
3 275 274 273
3 274 275 238
3 276 238 275
3 238 276 235
3 261 277 263
3 278 263 277
3 263 278 279
3 246 279 278
3 279 246 280
3 244 280 246
3 281 282 123
3 125 123 282
3 283 284 285
3 286 285 284
3 285 286 287
3 288 287 286
3 289 138 290
3 136 290 138
3 290 136 291
3 134 291 136
3 291 134 292
3 292 293 291
3 294 291 293
3 291 294 295
3 296 295 294
3 293 297 294
3 298 294 297
3 294 298 130
3 128 130 298
3 130 132 294
3 296 294 132
3 295 299 291
3 290 291 299
3 300 301 302
3 303 302 301
3 302 303 304
3 305 304 303
3 212 214 306
3 307 306 214
3 306 307 308
3 309 308 307
3 308 309 310
3 311 310 309
3 203 205 312
3 313 312 205
3 312 313 314
3 315 314 313
3 314 315 316
3 317 316 315
3 316 317 318
3 319 320 321
3 322 321 320
3 322 320 323
3 324 323 320
3 323 324 325
3 323 325 326
3 327 326 325
3 326 327 328
3 329 328 327
3 328 329 330
3 331 330 329
3 332 333 155
3 157 155 333
3 129 127 131
3 334 131 127
3 127 125 334
3 282 334 125
3 335 161 336
3 165 336 161
3 337 338 339
3 340 339 338
3 339 340 341
3 342 341 340
3 341 342 343
3 341 343 344
3 345 344 343
3 344 345 346
3 347 346 345
3 346 347 348
3 349 348 347
3 348 349 350
3 309 350 349
3 351 352 353
3 354 353 352
3 333 281 157
3 158 157 281
3 329 355 331
3 356 331 355
3 331 356 357
3 358 357 356
3 356 359 358
3 318 358 359
3 359 360 318
3 316 318 360
3 361 362 363
3 364 363 362
3 362 365 364
3 366 364 365
3 230 228 365
3 366 365 228
3 143 367 144
3 368 144 367
3 144 368 369
3 370 369 368
3 367 371 368
3 370 368 371
3 372 373 374
3 375 374 373
3 373 376 375
3 377 375 376
3 352 378 354
3 379 354 378
3 378 380 379
3 381 379 380
3 303 382 305
3 383 305 382
3 382 384 383
3 385 383 384
3 386 387 376
3 377 376 387
3 388 389 380
3 381 380 389
3 284 390 286
3 391 286 390
3 286 391 288
3 392 288 391
3 393 394 395
3 396 395 394
3 395 396 397
3 398 397 396
3 397 398 399
3 400 399 398
3 399 400 401
3 402 401 400
3 401 402 403
3 404 403 402
3 403 404 405
3 406 405 404
3 405 406 407
3 408 407 406
3 407 408 409
3 410 409 408
3 409 410 411
3 412 411 410
3 411 412 413
3 414 413 412
3 413 414 415
3 416 415 414
3 415 416 417
3 418 417 416
3 415 417 413
3 419 413 417
3 413 419 411
3 420 411 419
3 411 420 409
3 421 409 420
3 409 421 407
3 422 407 421
3 407 422 405
3 423 405 422
3 405 423 403
3 424 403 423
3 403 424 401
3 425 401 424
3 401 425 399
3 426 399 425
3 399 426 397
3 427 397 426
3 397 427 395
3 428 395 427
3 395 428 429
3 414 430 416
3 431 416 430
3 416 431 418
3 432 418 431
3 430 433 431
3 434 431 433
3 431 434 432
3 435 432 434
3 433 436 434
3 437 434 436
3 434 437 435
3 438 435 437
3 436 439 437
3 440 437 439
3 437 440 438
3 441 438 440
3 439 442 440
3 443 440 442
3 440 443 441
3 444 441 443
3 442 445 443
3 446 443 445
3 443 446 444
3 447 444 446
3 445 448 446
3 449 446 448
3 446 449 447
3 450 447 449
3 448 451 449
3 452 449 451
3 449 452 450
3 453 450 452
3 451 454 452
3 455 452 454
3 452 455 453
3 456 453 455
3 454 457 455
3 458 455 457
3 455 458 459
3 460 459 458
3 459 460 461
3 462 461 460
3 461 462 463
3 464 463 462
3 463 464 465
3 466 465 464
3 465 466 467
3 468 467 466
3 467 468 469
3 470 469 468
3 469 470 471
3 472 471 470
3 471 472 473
3 474 473 472
3 473 474 475
3 476 475 474
3 475 476 477
3 478 477 476
3 477 478 479
3 480 479 478
3 479 480 481
3 482 481 480
3 481 482 483
3 484 483 482
3 483 484 485
3 486 485 484
3 485 486 487
3 488 487 486
3 487 488 489
3 490 489 488
3 486 491 488
3 492 488 491
3 488 492 490
3 493 490 492
3 491 494 492
3 495 492 494
3 492 495 493
3 496 493 495
3 494 497 495
3 498 495 497
3 495 498 496
3 499 496 498
3 497 500 498
3 501 498 500
3 498 501 499
3 502 499 501
3 500 503 501
3 504 501 503
3 501 504 502
3 505 502 504
3 503 506 504
3 507 504 506
3 504 507 505
3 508 505 507
3 506 509 507
3 510 507 509
3 507 510 508
3 511 508 510
3 509 512 510
3 513 510 512
3 510 513 511
3 514 511 513
3 512 515 513
3 516 513 515
3 513 516 514
3 517 514 516
3 515 518 516
3 519 516 518
3 516 519 517
3 520 517 519
3 518 521 519
3 522 519 521
3 519 522 520
3 523 520 522
3 521 524 522
3 525 522 524
3 522 525 523
3 526 523 525
3 524 527 525
3 528 525 527
3 525 528 526
3 429 526 528
3 527 393 528
3 395 528 393
3 528 395 429
3 456 455 529
3 459 529 455
3 529 459 530
3 461 530 459
3 530 461 531
3 463 531 461
3 531 463 532
3 465 532 463
3 532 465 533
3 467 533 465
3 533 467 534
3 469 534 467
3 534 469 535
3 471 535 469
3 535 471 536
3 473 536 471
3 536 473 537
3 475 537 473
3 537 475 538
3 477 538 475
3 538 477 539
3 479 539 477
3 539 479 540
3 481 540 479
3 540 481 541
3 483 541 481
3 541 483 542
3 485 542 483
3 542 485 489
3 487 489 485
3 33 543 35
3 4 59 2
3 18 69 16
3 58 544 56
3 311 309 349
3 40 545 38
3 387 546 377
3 381 389 547
3 9 216 11
3 10 548 8
3 549 550 551
3 552 551 550
3 551 552 553
3 554 553 552
3 553 554 555
3 556 555 554
3 550 557 552
3 554 552 557
3 557 558 554
3 559 554 558
3 554 559 560
3 561 560 559
3 560 561 562
3 563 562 561
3 564 565 566
3 567 566 565
3 565 568 567
3 569 567 568
3 567 569 570
3 571 570 569
3 570 571 572
3 573 572 571
3 572 573 574
3 575 574 573
3 569 576 571
3 573 571 576
3 576 577 573
3 578 573 577
3 573 578 579
3 580 579 578
3 579 580 581
3 582 581 580
3 554 560 556
3 562 556 560
3 573 579 575
3 581 575 579
3 583 584 585
3 582 585 584
3 585 582 586
3 580 586 582
3 587 588 589
3 590 589 588
3 589 590 591
3 592 593 594
3 595 594 593
3 594 595 596
3 597 596 595
3 596 597 598
3 599 598 597
3 598 599 600
3 601 600 599
3 600 601 602
3 603 604 605
3 606 605 604
3 605 606 607
3 608 609 610
3 611 610 609
3 610 611 612
3 613 612 611
3 612 613 614
3 615 614 613
3 614 615 616
3 617 616 615
3 616 617 618
3 619 618 617
3 618 619 620
3 621 620 619
3 622 623 624
3 625 624 623
3 623 626 625
3 627 625 626
3 628 629 630
3 631 630 629
3 632 597 593
3 595 593 597
3 597 633 599
3 634 599 633
3 599 634 635
3 636 635 634
3 635 636 637
3 638 637 636
3 637 638 639
3 640 639 638
3 639 640 641
3 602 642 600
3 598 600 642
3 598 643 596
3 644 596 643
3 596 644 645
3 641 645 644
3 645 646 596
3 594 596 646
3 647 648 649
3 650 649 648
3 650 648 651
3 652 651 648
3 651 652 653
3 651 653 654
3 655 654 653
3 653 656 655
3 657 655 656
3 656 658 657
3 659 657 658
3 657 659 660
3 661 660 659
3 662 663 664
3 665 664 663
3 664 665 666
3 667 666 665
3 666 667 668
3 666 668 669
3 670 669 668
3 669 670 671
3 672 671 670
3 671 672 673
3 674 673 672
3 673 674 675
3 676 675 674
3 677 678 679
3 680 679 678
3 679 680 681
3 682 681 680
3 681 682 683
3 681 683 684
3 685 684 683
3 684 685 686
3 687 686 685
3 686 687 688
3 689 688 687
3 688 689 690
3 691 690 689
3 692 693 694
3 695 694 693
3 693 696 695
3 697 695 696
3 697 696 698
3 699 698 696
3 698 699 700
3 701 700 699
3 700 701 702
3 703 702 701
3 702 703 704
3 705 704 703
3 704 705 706
3 707 708 709
3 710 709 708
3 709 710 711
3 712 711 710
3 711 712 713
3 711 713 714
3 715 714 713
3 714 715 716
3 717 716 715
3 716 717 718
3 719 718 717
3 718 719 720
3 721 720 719
3 722 723 724
3 725 724 723
3 634 726 636
3 727 636 726
3 636 727 728
3 728 729 636
3 638 636 729
3 641 730 639
3 635 639 730
3 639 635 637
3 659 731 661
3 732 661 731
3 661 732 733
3 674 734 676
3 735 676 734
3 689 736 691
3 737 691 736
3 704 706 738
3 739 738 706
3 738 739 740
3 719 741 721
3 742 721 741
3 743 744 745
3 746 745 744
3 745 746 747
3 748 747 746
3 749 750 751
3 752 751 750
3 751 752 753
3 754 753 752
3 753 754 755
3 750 756 752
3 757 752 756
3 752 757 754
3 751 753 758
3 759 758 753
3 758 759 760
3 761 760 759
3 760 761 762
3 763 762 761
3 762 763 764
3 765 764 763
3 766 767 768
3 769 768 767
3 768 769 770
3 771 770 769
3 770 771 772
3 773 772 771
3 772 773 774
3 775 774 773
3 774 775 776
3 767 777 769
3 778 769 777
3 769 778 771
3 779 771 778
3 771 779 773
3 780 773 779
3 773 780 775
3 781 782 783
3 784 783 782
3 783 784 785
3 786 785 784
3 785 786 787
3 788 787 786
3 787 788 789
3 790 791 792
3 793 792 791
3 792 793 794
3 795 794 793
3 794 795 796
3 797 796 795
3 796 797 798
3 799 800 801
3 802 801 800
3 801 802 803
3 804 803 802
3 803 804 805
3 806 805 804
3 805 806 807
3 808 807 806
3 807 808 809
3 810 811 812
3 813 812 811
3 812 813 814
3 815 814 813
3 814 815 816
3 817 816 815
3 816 817 818
3 819 820 821
3 822 821 820
3 821 822 823
3 824 823 822
3 823 824 825
3 826 825 824
3 825 826 827
3 800 828 802
3 829 802 828
3 802 829 804
3 830 804 829
3 804 830 806
3 831 806 830
3 806 831 808
3 832 833 834
3 835 834 833
3 834 835 836
3 837 836 835
3 836 837 838
3 836 838 839
3 840 839 838
3 839 840 841
3 842 841 840
3 841 842 843
3 844 843 842
3 843 844 845
3 846 845 844
3 844 847 846
3 848 846 847
3 849 850 851
3 852 851 850
3 851 852 853
3 854 853 852
3 853 854 855
3 853 855 856
3 857 856 855
3 856 857 858
3 859 858 857
3 858 859 860
3 861 860 859
3 860 861 862
3 863 862 861
3 861 864 863
3 865 863 864
3 772 774 866
3 867 866 774
3 866 867 868
3 869 868 867
3 774 776 867
3 870 867 776
3 867 870 869
3 871 869 870
3 869 871 872
3 873 872 871
3 872 873 874
3 875 874 873
3 874 875 876
3 877 876 875
3 876 877 878
3 879 878 877
3 776 880 870
3 881 870 880
3 870 881 871
3 882 871 881
3 871 882 873
3 883 873 882
3 873 883 875
3 765 875 883
3 875 765 877
3 763 877 765
3 877 763 879
3 761 879 763
3 879 761 884
3 759 884 761
3 884 759 755
3 753 755 759
3 787 789 885
3 886 885 789
3 885 886 887
3 888 887 886
3 886 889 888
3 890 888 889
3 888 890 891
3 892 891 890
3 891 892 893
3 894 893 892
3 893 894 895
3 896 895 894
3 895 896 897
3 898 897 896
3 896 899 898
3 900 898 899
3 898 900 901
3 902 901 900
3 901 902 903
3 904 903 902
3 903 904 591
3 589 591 904
3 796 798 905
3 906 905 798
3 905 906 907
3 908 907 906
3 906 909 908
3 910 908 909
3 908 910 911
3 912 911 910
3 911 912 913
3 914 913 912
3 913 914 915
3 916 915 914
3 915 916 917
3 918 917 916
3 916 919 918
3 920 918 919
3 918 920 921
3 922 921 920
3 921 922 923
3 924 923 922
3 923 924 607
3 605 607 924
3 805 807 925
3 926 925 807
3 925 926 927
3 928 927 926
3 807 809 926
3 929 926 809
3 926 929 928
3 930 928 929
3 928 930 931
3 932 931 930
3 931 932 933
3 934 933 932
3 933 934 935
3 936 935 934
3 935 936 937
3 938 937 936
3 809 939 929
3 940 929 939
3 929 940 930
3 941 930 940
3 930 941 932
3 942 932 941
3 932 942 934
3 621 934 942
3 934 621 936
3 619 936 621
3 936 619 938
3 617 938 619
3 938 617 943
3 615 943 617
3 943 615 944
3 613 944 615
3 944 613 945
3 611 945 613
3 945 611 609
3 816 818 946
3 947 946 818
3 946 947 948
3 949 948 947
3 947 950 949
3 951 949 950
3 949 951 952
3 953 952 951
3 952 953 954
3 955 954 953
3 954 955 956
3 957 956 955
3 956 957 958
3 959 958 957
3 957 960 959
3 961 959 960
3 959 961 962
3 963 962 961
3 962 963 964
3 965 964 963
3 964 965 966
3 631 966 965
3 966 631 629
3 825 827 967
3 968 967 827
3 967 968 969
3 970 969 968
3 968 971 970
3 972 970 971
3 970 972 973
3 974 973 972
3 973 974 975
3 976 975 974
3 975 976 977
3 978 977 976
3 977 978 979
3 980 979 978
3 978 981 980
3 982 980 981
3 980 982 983
3 984 983 982
3 983 984 985
3 986 985 984
3 985 986 987
3 725 987 986
3 987 725 723
3 988 989 990
3 991 990 989
3 991 989 992
3 993 992 989
3 992 993 994
3 992 994 995
3 996 995 994
3 995 996 997
3 998 997 996
3 997 998 999
3 1000 999 998
3 998 1001 1000
3 1002 1000 1001
3 1000 1002 1003
3 1004 1003 1002
3 1003 1004 1005
3 1006 1005 1004
3 988 990 1007
3 1008 1007 990
3 1007 1008 1009
3 1007 1009 1010
3 1011 1010 1009
3 1004 1011 1006
3 1009 1006 1011
3 1012 1013 1014
3 1015 1014 1013
3 1014 1015 1016
3 1017 1016 1015
3 1016 1017 1018
3 1019 1018 1017
3 1018 1019 1020
3 1021 1020 1019
3 1020 1021 1022
3 1023 1022 1021
3 1022 1023 1024
3 1025 1024 1023
3 1024 1025 1026
3 1027 1026 1025
3 1026 1027 1028
3 1029 1028 1027
3 1028 1029 1030
3 1019 1030 1029
3 1030 1019 1031
3 1017 1031 1019
3 1031 1017 1032
3 1033 1032 1017
3 1032 1033 1034
3 1015 1034 1033
3 1034 1015 1035
3 1013 1035 1015
3 1029 1027 1019
3 1021 1019 1027
3 1034 1036 1032
3 1037 1032 1036
3 1032 1037 1030
3 1038 1030 1037
3 1030 1038 1028
3 1026 1028 1038
3 1038 1039 1026
3 1040 1026 1039
3 1026 1040 1024
3 1041 1024 1040
3 1024 1041 1022
3 1042 1022 1041
3 1022 1042 1020
3 1043 1020 1042
3 1020 1043 1018
3 1044 1018 1043
3 1018 1044 1016
3 1045 1016 1044
3 1016 1045 1014
3 1046 1014 1045
3 1014 1046 1047
3 1048 1047 1046
3 1047 1048 1049
3 1042 1049 1048
3 1049 1042 1050
3 1041 1050 1042
3 1050 1041 1051
3 1052 1051 1041
3 1051 1052 1053
3 1040 1053 1052
3 1053 1040 1054
3 1039 1054 1040
3 1014 1047 1012
3 1049 1012 1047
3 1012 1049 1055
3 1051 1055 1049
3 1055 1051 1056
3 1053 1056 1051
3 1044 1043 1045
3 1046 1045 1043
3 1043 1042 1046
3 1048 1046 1042
3 1023 1021 1025
3 1027 1025 1021
3 1057 1058 1059
3 1060 1059 1058
3 1059 1060 1061
3 1062 1061 1060
3 1061 1062 1063
3 1063 1064 1061
3 1065 1061 1064
3 1061 1065 1066
3 1067 1066 1065
3 1066 1067 1068
3 1069 1068 1067
3 1068 1069 1070
3 1071 1070 1069
3 1061 1066 1059
3 1072 1059 1066
3 1059 1072 1057
3 1070 1057 1072
3 1070 1072 1068
3 1066 1068 1072
3 1064 1073 1065
3 1074 1065 1073
3 1065 1074 1067
3 1075 1067 1074
3 1067 1075 1069
3 1076 1069 1075
3 1069 1076 1071
3 1077 1071 1076
3 1077 1076 1078
3 1079 1078 1076
3 1078 1079 1080
3 1081 1080 1079
3 1080 1081 1082
3 1083 1082 1081
3 1082 1083 1073
3 1074 1073 1083
3 1079 1076 1081
3 1075 1081 1076
3 1081 1075 1083
3 1074 1083 1075
3 594 1084 1085
3 729 1085 1084
3 594 646 1084
3 1086 1084 646
3 1084 1086 1087
3 602 1087 1086
3 602 1086 1088
3 646 1088 1086
3 729 1084 638
3 1087 638 1084
3 1089 1090 1091
3 1092 1091 1090
3 1092 1090 1093
3 1094 1093 1090
3 1089 1095 1090
3 1096 1090 1095
3 1090 1096 1097
3 1030 1031 1032
3 1017 1015 1033
3 1058 1062 1060
3 1051 1049 1050
3 1052 1041 1040
3 641 644 643
3 612 1098 610
3 599 635 601
3 734 1099 735
3 736 1100 737
3 741 1101 742
3 1097 1094 1090
3 847 1102 848
3 864 1103 865
