ply
format ascii 1.0
comment Created by Blender 2.81 (sub 16) - www.blender.org, source file: ''
element vertex 370
property float x
property float y
property float z
property float nx
property float ny
property float nz
property uchar red
property uchar green
property uchar blue
property uchar alpha
element face 416
property list uchar uint vertex_indices
end_header
-0.200000 -1.225000 2.000000 0.000000 0.000000 1.000000 92 62 14 255
0.200000 -1.400000 2.000000 0.000000 0.000000 1.000000 92 62 14 255
0.200000 -1.225000 2.000000 0.000000 0.000000 1.000000 92 62 14 255
0.200000 -1.400000 2.000000 0.000000 -1.000000 0.000000 92 62 14 255
-0.200000 -1.400000 1.750000 0.000000 -1.000000 0.000000 92 62 14 255
0.200000 -1.400000 1.750000 0.000000 -1.000000 0.000000 92 62 14 255
-0.200000 1.225000 2.000000 -1.000000 0.000000 0.000000 92 62 14 255
-0.200000 1.400000 1.750000 -1.000000 0.000000 0.000000 92 62 14 255
-0.200000 1.225000 1.750000 -1.000000 0.000000 0.000000 92 62 14 255
0.200000 -1.225000 -2.000000 0.000000 0.000000 -1.000000 92 62 14 255
-0.200000 -1.400000 -2.000000 0.000000 0.000000 -1.000000 92 62 14 255
-0.200000 -1.225000 -2.000000 0.000000 0.000000 -1.000000 92 62 14 255
0.200000 -1.225000 2.000000 1.000000 0.000000 -0.000000 92 62 14 255
0.200000 -1.400000 1.750000 1.000000 0.000000 -0.000000 92 62 14 255
0.200000 -1.225000 1.750000 1.000000 0.000000 -0.000000 92 62 14 255
-0.200000 1.400000 2.000000 0.000000 1.000000 -0.000000 92 62 14 255
0.200000 1.400000 1.750000 0.000000 1.000000 -0.000000 92 62 14 255
-0.200000 1.400000 1.750000 0.000000 1.000000 -0.000000 92 62 14 255
0.200000 0.700000 2.000000 1.000000 0.000000 -0.000000 92 62 14 255
0.200000 0.000000 1.750000 1.000000 0.000000 -0.000000 92 62 14 255
0.200000 0.700000 1.750000 1.000000 0.000000 -0.000000 92 62 14 255
0.200000 0.700000 -2.000000 0.000000 0.000000 -1.000000 92 62 14 255
-0.200000 0.000000 -2.000000 0.000000 0.000000 -1.000000 92 62 14 255
-0.200000 0.700000 -2.000000 0.000000 0.000000 -1.000000 92 62 14 255
-0.200000 -0.700000 2.000000 -1.000000 0.000000 0.000000 92 62 14 255
-0.200000 0.000000 1.750000 -1.000000 0.000000 0.000000 92 62 14 255
-0.200000 -0.700000 1.750000 -1.000000 0.000000 0.000000 92 62 14 255
-0.200000 0.700000 2.000000 0.000000 0.000000 1.000000 92 62 14 255
0.200000 0.000000 2.000000 0.000000 0.000000 1.000000 92 62 14 255
0.200000 0.700000 2.000000 0.000000 0.000000 1.000000 92 62 14 255
-0.200000 -1.050000 2.000000 -1.000000 0.000000 0.000000 92 62 14 255
-0.200000 -1.050000 1.750000 -1.000000 0.000000 0.000000 92 62 14 255
0.200000 0.000000 2.000000 1.000000 0.000000 -0.000000 92 62 14 255
0.200000 -0.700000 1.750000 1.000000 0.000000 -0.000000 92 62 14 255
0.200000 0.000000 -2.000000 0.000000 0.000000 -1.000000 92 62 14 255
-0.200000 -0.700000 -2.000000 0.000000 0.000000 -1.000000 92 62 14 255
-0.200000 0.000000 2.000000 0.000000 0.000000 1.000000 92 62 14 255
0.200000 -0.700000 2.000000 0.000000 0.000000 1.000000 92 62 14 255
-0.200000 -1.225000 2.000000 -1.000000 0.000000 0.000000 92 62 14 255
-0.200000 -1.225000 1.750000 -1.000000 0.000000 0.000000 92 62 14 255
0.200000 -0.700000 2.000000 1.000000 0.000000 -0.000000 92 62 14 255
0.200000 -1.050000 1.750000 1.000000 0.000000 -0.000000 92 62 14 255
0.200000 -0.700000 -2.000000 0.000000 0.000000 -1.000000 92 62 14 255
-0.200000 -1.050000 -2.000000 0.000000 0.000000 -1.000000 92 62 14 255
-0.200000 -0.700000 2.000000 0.000000 0.000000 1.000000 92 62 14 255
0.200000 -1.050000 2.000000 0.000000 0.000000 1.000000 92 62 14 255
-0.200000 1.050000 2.000000 0.000000 0.000000 1.000000 92 62 14 255
0.200000 1.050000 2.000000 0.000000 0.000000 1.000000 92 62 14 255
0.200000 1.050000 -2.000000 0.000000 0.000000 -1.000000 92 62 14 255
-0.200000 1.050000 -2.000000 0.000000 0.000000 -1.000000 92 62 14 255
0.200000 1.050000 2.000000 1.000000 0.000000 -0.000000 92 62 14 255
0.200000 1.050000 1.750000 1.000000 0.000000 -0.000000 92 62 14 255
-0.200000 0.000000 2.000000 -1.000000 0.000000 0.000000 92 62 14 255
-0.200000 0.700000 1.750000 -1.000000 0.000000 0.000000 92 62 14 255
0.200000 1.225000 2.000000 1.000000 0.000000 -0.000000 92 62 14 255
0.200000 1.225000 1.750000 1.000000 0.000000 -0.000000 92 62 14 255
0.200000 1.225000 -2.000000 0.000000 0.000000 -1.000000 92 62 14 255
-0.200000 1.225000 -2.000000 0.000000 0.000000 -1.000000 92 62 14 255
-0.200000 1.225000 2.000000 0.000000 0.000000 1.000000 92 62 14 255
0.200000 1.225000 2.000000 0.000000 0.000000 1.000000 92 62 14 255
-0.200000 0.700000 2.000000 -1.000000 0.000000 0.000000 92 62 14 255
-0.200000 1.050000 1.750000 -1.000000 0.000000 0.000000 92 62 14 255
0.017666 0.000000 1.500000 -1.000000 0.000000 0.000000 92 62 14 255
0.017666 0.700000 1.000000 -1.000000 0.000000 0.000000 92 62 14 255
0.017666 0.000000 1.000000 -1.000000 0.000000 0.000000 92 62 14 255
0.200000 1.225000 0.000000 1.000000 0.000000 -0.000000 92 62 14 255
0.200000 1.050000 -1.000000 1.000000 0.000000 -0.000000 92 62 14 255
0.200000 1.225000 -1.000000 1.000000 0.000000 -0.000000 92 62 14 255
0.017666 0.700000 1.500000 -1.000000 0.000000 0.000000 92 62 14 255
0.017666 1.050000 1.000000 -1.000000 0.000000 0.000000 92 62 14 255
0.200000 1.050000 0.000000 1.000000 0.000000 -0.000000 92 62 14 255
0.200000 0.700000 -1.000000 1.000000 0.000000 -0.000000 92 62 14 255
0.200000 -0.700000 0.000000 1.000000 0.000000 -0.000000 92 62 14 255
0.200000 -1.050000 -1.000000 1.000000 0.000000 -0.000000 92 62 14 255
0.200000 -0.700000 -1.000000 1.000000 0.000000 -0.000000 92 62 14 255
0.017666 -0.700000 1.000000 -1.000000 0.000000 0.000000 92 62 14 255
0.017666 0.000000 0.000000 -1.000000 0.000000 0.000000 92 62 14 255
0.017666 -0.700000 0.000000 -1.000000 0.000000 0.000000 92 62 14 255
0.200000 0.000000 0.000000 1.000000 0.000000 -0.000000 92 62 14 255
0.200000 0.000000 -1.000000 1.000000 0.000000 -0.000000 92 62 14 255
0.017666 -1.050000 1.000000 -1.000000 0.000000 0.000000 92 62 14 255
0.017666 -1.050000 0.000000 -1.000000 0.000000 0.000000 92 62 14 255
0.017666 -1.225000 1.000000 -1.000000 0.000000 0.000000 92 62 14 255
0.017666 -1.225000 0.000000 -1.000000 0.000000 0.000000 92 62 14 255
0.200000 0.700000 0.000000 1.000000 0.000000 -0.000000 92 62 14 255
-0.200000 1.400000 0.000000 0.000000 1.000000 -0.000000 92 62 14 255
0.200000 1.400000 -1.000000 0.000000 1.000000 -0.000000 92 62 14 255
-0.200000 1.400000 -1.000000 0.000000 1.000000 -0.000000 92 62 14 255
0.200000 -1.225000 0.000000 1.000000 0.000000 -0.000000 92 62 14 255
0.200000 -1.400000 -1.000000 1.000000 0.000000 -0.000000 92 62 14 255
0.200000 -1.225000 -1.000000 1.000000 0.000000 -0.000000 92 62 14 255
-0.200000 1.225000 0.000000 -1.000000 0.000000 0.000000 92 62 14 255
-0.200000 1.400000 -1.000000 -1.000000 0.000000 0.000000 92 62 14 255
-0.200000 1.225000 -1.000000 -1.000000 0.000000 0.000000 92 62 14 255
0.200000 -1.400000 0.000000 0.000000 -1.000000 0.000000 92 62 14 255
-0.200000 -1.400000 -1.000000 0.000000 -1.000000 0.000000 92 62 14 255
0.200000 -1.400000 -1.000000 0.000000 -1.000000 0.000000 92 62 14 255
0.017666 0.700000 0.000000 -1.000000 0.000000 0.000000 92 62 14 255
0.200000 1.225000 1.000000 1.000000 0.000000 -0.000000 92 62 14 255
0.017666 1.050000 0.000000 -1.000000 0.000000 0.000000 92 62 14 255
0.200000 1.050000 1.000000 1.000000 0.000000 -0.000000 92 62 14 255
0.200000 -0.700000 1.000000 1.000000 0.000000 -0.000000 92 62 14 255
0.200000 -1.050000 0.000000 1.000000 0.000000 -0.000000 92 62 14 255
0.017666 0.000000 -1.000000 -1.000000 0.000000 0.000000 92 62 14 255
0.017666 -0.700000 -1.000000 -1.000000 0.000000 0.000000 92 62 14 255
0.200000 0.000000 1.000000 1.000000 0.000000 -0.000000 92 62 14 255
0.017666 -1.050000 -1.000000 -1.000000 0.000000 0.000000 92 62 14 255
0.017666 -1.225000 -1.000000 -1.000000 0.000000 0.000000 92 62 14 255
0.200000 0.700000 1.000000 1.000000 0.000000 -0.000000 92 62 14 255
-0.200000 1.400000 1.000000 0.000000 1.000000 -0.000000 92 62 14 255
0.200000 1.400000 0.000000 0.000000 1.000000 -0.000000 92 62 14 255
0.200000 -1.225000 1.000000 1.000000 0.000000 -0.000000 92 62 14 255
0.200000 -1.400000 0.000000 1.000000 0.000000 -0.000000 92 62 14 255
-0.200000 1.225000 1.000000 -1.000000 0.000000 0.000000 92 62 14 255
-0.200000 1.400000 0.000000 -1.000000 0.000000 0.000000 92 62 14 255
0.200000 -1.400000 1.000000 0.000000 -1.000000 0.000000 92 62 14 255
-0.200000 -1.400000 0.000000 0.000000 -1.000000 0.000000 92 62 14 255
0.017666 0.700000 -1.000000 -1.000000 0.000000 0.000000 92 62 14 255
0.200000 1.225000 1.500000 1.000000 0.000000 -0.000000 92 62 14 255
0.017666 1.050000 -1.000000 -1.000000 0.000000 0.000000 92 62 14 255
0.200000 1.050000 1.500000 1.000000 0.000000 -0.000000 92 62 14 255
0.200000 -0.700000 1.500000 1.000000 0.000000 -0.000000 92 62 14 255
0.200000 -1.050000 1.000000 1.000000 0.000000 -0.000000 92 62 14 255
-0.200000 -1.225000 1.500000 0.000000 1.000000 -0.000000 92 62 14 255
0.168577 -1.225000 1.000000 0.000000 1.000000 -0.000000 92 62 14 255
-0.200000 -1.225000 1.000000 0.000000 1.000000 -0.000000 92 62 14 255
0.200000 0.000000 1.500000 1.000000 0.000000 -0.000000 92 62 14 255
-0.200000 -1.050000 -1.750000 -0.000000 0.000000 1.000000 92 62 14 255
0.168577 -0.700000 -1.750000 -0.000000 0.000000 1.000000 92 62 14 255
-0.200000 -0.700000 -1.750000 -0.000000 0.000000 1.000000 92 62 14 255
-0.200000 0.700000 1.750000 0.000000 0.000000 -1.000000 92 62 14 255
0.168577 0.000000 1.750000 0.000000 0.000000 -1.000000 92 62 14 255
-0.200000 0.000000 1.750000 0.000000 0.000000 -1.000000 92 62 14 255
0.200000 0.700000 1.500000 1.000000 0.000000 -0.000000 92 62 14 255
-0.200000 1.400000 1.500000 0.000000 1.000000 -0.000000 92 62 14 255
0.200000 1.400000 1.000000 0.000000 1.000000 -0.000000 92 62 14 255
0.200000 -1.225000 1.500000 1.000000 0.000000 -0.000000 92 62 14 255
0.200000 -1.400000 1.000000 1.000000 0.000000 -0.000000 92 62 14 255
-0.200000 1.225000 1.500000 -1.000000 0.000000 0.000000 92 62 14 255
-0.200000 1.400000 1.000000 -1.000000 0.000000 0.000000 92 62 14 255
0.200000 -1.400000 1.500000 0.000000 -1.000000 0.000000 92 62 14 255
-0.200000 -1.400000 1.000000 0.000000 -1.000000 0.000000 92 62 14 255
-0.200000 -1.400000 -1.500000 0.000000 -1.000000 0.000000 92 62 14 255
0.200000 -1.400000 -1.500000 0.000000 -1.000000 0.000000 92 62 14 255
-0.200000 1.400000 -1.500000 -1.000000 0.000000 0.000000 92 62 14 255
-0.200000 1.225000 -1.500000 -1.000000 0.000000 0.000000 92 62 14 255
0.200000 -1.400000 -1.500000 1.000000 0.000000 -0.000000 92 62 14 255
0.200000 -1.225000 -1.500000 1.000000 0.000000 -0.000000 92 62 14 255
0.200000 1.400000 -1.500000 0.000000 1.000000 -0.000000 92 62 14 255
-0.200000 1.400000 -1.500000 0.000000 1.000000 -0.000000 92 62 14 255
0.200000 0.000000 -1.500000 1.000000 0.000000 -0.000000 92 62 14 255
0.200000 0.700000 -1.500000 1.000000 0.000000 -0.000000 92 62 14 255
-0.200000 0.700000 -1.750000 -0.000000 0.000000 1.000000 92 62 14 255
0.168577 1.050000 -1.750000 -0.000000 0.000000 1.000000 92 62 14 255
-0.200000 1.050000 -1.750000 -0.000000 0.000000 1.000000 92 62 14 255
0.168577 0.000000 -1.750000 -0.000000 0.000000 1.000000 92 62 14 255
-0.200000 0.000000 -1.750000 -0.000000 0.000000 1.000000 92 62 14 255
0.200000 -0.700000 -1.500000 1.000000 0.000000 -0.000000 92 62 14 255
-0.200000 1.225000 0.000000 0.000000 -1.000000 -0.000000 92 62 14 255
0.168577 1.225000 1.000000 0.000000 -1.000000 -0.000000 92 62 14 255
-0.200000 1.225000 1.000000 0.000000 -1.000000 -0.000000 92 62 14 255
0.200000 -1.050000 -1.500000 1.000000 0.000000 -0.000000 92 62 14 255
0.200000 1.050000 -1.500000 1.000000 0.000000 -0.000000 92 62 14 255
0.168577 -0.700000 1.750000 0.000000 0.000000 -1.000000 92 62 14 255
-0.200000 -0.700000 1.750000 0.000000 0.000000 -1.000000 92 62 14 255
0.200000 1.225000 -1.500000 1.000000 0.000000 -0.000000 92 62 14 255
-0.200000 1.225000 1.500000 0.000000 -1.000000 -0.000000 92 62 14 255
0.168577 1.225000 1.750000 0.000000 -1.000000 -0.000000 92 62 14 255
-0.200000 1.225000 1.750000 0.000000 -1.000000 -0.000000 92 62 14 255
-0.200000 1.050000 1.750000 0.000000 0.000000 -1.000000 92 62 14 255
0.168577 0.700000 1.750000 0.000000 0.000000 -1.000000 92 62 14 255
0.200000 1.050000 -1.750000 1.000000 0.000000 -0.000000 92 62 14 255
0.200000 1.225000 -1.750000 1.000000 0.000000 -0.000000 92 62 14 255
0.168577 0.700000 -1.750000 -0.000000 0.000000 1.000000 92 62 14 255
0.200000 0.700000 -1.750000 1.000000 0.000000 -0.000000 92 62 14 255
0.200000 -1.050000 -1.750000 1.000000 0.000000 -0.000000 92 62 14 255
0.200000 -0.700000 -1.750000 1.000000 0.000000 -0.000000 92 62 14 255
0.168577 -1.050000 1.750000 0.000000 0.000000 -1.000000 92 62 14 255
-0.200000 -1.050000 1.750000 0.000000 0.000000 -1.000000 92 62 14 255
0.200000 0.000000 -1.750000 1.000000 0.000000 -0.000000 92 62 14 255
-0.200000 -1.225000 -1.000000 0.000000 1.000000 -0.000000 92 62 14 255
0.168577 -1.225000 -1.500000 0.000000 1.000000 -0.000000 92 62 14 255
-0.200000 -1.225000 -1.500000 0.000000 1.000000 -0.000000 92 62 14 255
-0.200000 1.225000 1.750000 0.000000 0.000000 -1.000000 92 62 14 255
0.168577 1.050000 1.750000 0.000000 0.000000 -1.000000 92 62 14 255
0.200000 1.400000 -1.750000 0.000000 1.000000 -0.000000 92 62 14 255
-0.200000 1.400000 -1.750000 0.000000 1.000000 -0.000000 92 62 14 255
0.200000 -1.400000 -1.750000 1.000000 0.000000 -0.000000 92 62 14 255
0.200000 -1.225000 -1.750000 1.000000 0.000000 -0.000000 92 62 14 255
-0.200000 1.400000 -1.750000 -1.000000 0.000000 0.000000 92 62 14 255
-0.200000 1.225000 -1.750000 -1.000000 0.000000 0.000000 92 62 14 255
-0.200000 -1.400000 -1.750000 0.000000 -1.000000 0.000000 92 62 14 255
0.200000 -1.400000 -1.750000 0.000000 -1.000000 0.000000 92 62 14 255
0.168577 1.225000 1.500000 0.000000 -1.000000 -0.000000 92 62 14 255
-0.200000 -1.225000 0.000000 0.000000 1.000000 -0.000000 92 62 14 255
0.168577 -1.225000 -1.000000 0.000000 1.000000 -0.000000 92 62 14 255
0.200000 -1.050000 1.500000 1.000000 0.000000 -0.000000 92 62 14 255
0.168577 -1.225000 -1.750000 0.000000 1.000000 -0.000000 92 62 14 255
-0.200000 -1.225000 -1.750000 0.000000 1.000000 -0.000000 92 62 14 255
-0.200000 1.225000 -1.500000 0.000000 -1.000000 -0.000000 92 62 14 255
0.168577 1.225000 -1.000000 0.000000 -1.000000 -0.000000 92 62 14 255
-0.200000 1.225000 -1.000000 0.000000 -1.000000 -0.000000 92 62 14 255
0.168577 -1.225000 1.750000 0.000000 0.000000 -1.000000 92 62 14 255
-0.200000 -1.225000 1.750000 0.000000 0.000000 -1.000000 92 62 14 255
0.200000 1.400000 1.500000 0.000000 1.000000 -0.000000 92 62 14 255
0.200000 -1.400000 1.500000 1.000000 0.000000 -0.000000 92 62 14 255
-0.200000 1.400000 1.500000 -1.000000 0.000000 0.000000 92 62 14 255
-0.200000 -1.400000 1.500000 0.000000 -1.000000 0.000000 92 62 14 255
0.168577 -1.225000 0.000000 0.000000 1.000000 -0.000000 92 62 14 255
0.200000 1.400000 1.750000 1.000000 0.000000 -0.000000 92 62 14 255
0.200000 1.400000 1.500000 1.000000 0.000000 -0.000000 92 62 14 255
-0.200000 -1.225000 -1.750000 -0.000000 0.000000 1.000000 92 62 14 255
0.168577 -1.050000 -1.750000 -0.000000 0.000000 1.000000 92 62 14 255
0.200000 1.400000 -1.500000 1.000000 0.000000 -0.000000 92 62 14 255
0.200000 1.400000 -1.750000 1.000000 0.000000 -0.000000 92 62 14 255
0.200000 1.400000 -1.000000 1.000000 0.000000 -0.000000 92 62 14 255
-0.200000 -1.225000 1.750000 0.000000 1.000000 -0.000000 92 62 14 255
0.168577 -1.225000 1.500000 0.000000 1.000000 -0.000000 92 62 14 255
-0.200000 1.225000 -1.750000 0.000000 -1.000000 -0.000000 92 62 14 255
0.168577 1.225000 -1.500000 0.000000 -1.000000 -0.000000 92 62 14 255
0.200000 1.400000 1.000000 1.000000 0.000000 -0.000000 92 62 14 255
0.168577 1.225000 0.000000 0.000000 -1.000000 -0.000000 92 62 14 255
0.200000 1.400000 0.000000 1.000000 0.000000 -0.000000 92 62 14 255
0.168577 1.225000 -1.750000 -0.000000 0.000000 1.000000 92 62 14 255
-0.200000 1.225000 -1.750000 -0.000000 0.000000 1.000000 92 62 14 255
-0.200000 1.400000 2.000000 0.000000 0.000000 1.000000 92 62 14 255
0.200000 1.400000 2.000000 0.000000 0.000000 1.000000 92 62 14 255
0.200000 1.400000 -2.000000 0.000000 0.000000 -1.000000 92 62 14 255
-0.200000 1.400000 -2.000000 0.000000 0.000000 -1.000000 92 62 14 255
0.200000 1.400000 2.000000 1.000000 0.000000 -0.000000 92 62 14 255
-0.200000 1.050000 2.000000 -1.000000 0.000000 0.000000 92 62 14 255
-0.200000 -1.400000 1.750000 -1.000000 0.000000 0.000000 92 62 14 255
-0.200000 -1.225000 1.500000 -1.000000 0.000000 0.000000 92 62 14 255
-0.200000 -1.400000 1.500000 -1.000000 0.000000 0.000000 92 62 14 255
-0.200000 -1.400000 -1.500000 -1.000000 0.000000 0.000000 92 62 14 255
-0.200000 -1.225000 -1.750000 -1.000000 0.000000 0.000000 92 62 14 255
-0.200000 -1.400000 -1.750000 -1.000000 0.000000 0.000000 92 62 14 255
-0.200000 -1.400000 -1.000000 -1.000000 0.000000 0.000000 92 62 14 255
-0.200000 -1.225000 -1.500000 -1.000000 0.000000 0.000000 92 62 14 255
-0.200000 -1.225000 1.000000 -1.000000 0.000000 0.000000 92 62 14 255
-0.200000 -1.400000 1.000000 -1.000000 0.000000 0.000000 92 62 14 255
-0.200000 -1.225000 0.000000 -1.000000 0.000000 0.000000 92 62 14 255
-0.200000 -1.400000 0.000000 -1.000000 0.000000 0.000000 92 62 14 255
-0.200000 -1.225000 -1.000000 -1.000000 0.000000 0.000000 92 62 14 255
-0.200000 -1.400000 2.000000 -1.000000 0.000000 0.000000 92 62 14 255
0.200000 -1.050000 2.000000 1.000000 0.000000 -0.000000 92 62 14 255
0.200000 -1.050000 -2.000000 0.000000 0.000000 -1.000000 92 62 14 255
-0.200000 -1.050000 2.000000 0.000000 0.000000 1.000000 92 62 14 255
-0.200000 -1.225000 -2.000000 -1.000000 0.000000 0.000000 92 62 14 255
-0.200000 -1.400000 -2.000000 -1.000000 0.000000 0.000000 92 62 14 255
0.200000 -1.225000 -2.000000 1.000000 0.000000 -0.000000 92 62 14 255
0.200000 -1.050000 -2.000000 1.000000 0.000000 -0.000000 92 62 14 255
0.200000 1.225000 -2.000000 1.000000 0.000000 -0.000000 92 62 14 255
0.200000 1.400000 -2.000000 1.000000 0.000000 -0.000000 92 62 14 255
-0.200000 1.050000 -1.750000 -1.000000 0.000000 0.000000 92 62 14 255
-0.200000 1.225000 -2.000000 -1.000000 0.000000 0.000000 92 62 14 255
-0.200000 1.050000 -2.000000 -1.000000 0.000000 0.000000 92 62 14 255
-0.200000 -1.400000 -2.000000 0.000000 -1.000000 0.000000 92 62 14 255
0.200000 -1.400000 -2.000000 0.000000 -1.000000 0.000000 92 62 14 255
-0.200000 1.400000 -2.000000 -1.000000 0.000000 0.000000 92 62 14 255
0.200000 -1.400000 -2.000000 1.000000 0.000000 -0.000000 92 62 14 255
0.200000 1.400000 -2.000000 0.000000 1.000000 -0.000000 92 62 14 255
-0.200000 1.400000 -2.000000 0.000000 1.000000 -0.000000 92 62 14 255
0.200000 0.000000 -2.000000 1.000000 0.000000 -0.000000 92 62 14 255
0.200000 0.700000 -2.000000 1.000000 0.000000 -0.000000 92 62 14 255
-0.200000 -0.700000 -1.750000 -1.000000 0.000000 0.000000 92 62 14 255
-0.200000 0.000000 -2.000000 -1.000000 0.000000 0.000000 92 62 14 255
-0.200000 -0.700000 -2.000000 -1.000000 0.000000 0.000000 92 62 14 255
-0.200000 -1.050000 -1.750000 -1.000000 0.000000 0.000000 92 62 14 255
-0.200000 -1.050000 -2.000000 -1.000000 0.000000 0.000000 92 62 14 255
0.200000 -0.700000 -2.000000 1.000000 0.000000 -0.000000 92 62 14 255
0.200000 1.050000 -2.000000 1.000000 0.000000 -0.000000 92 62 14 255
-0.200000 0.000000 -1.750000 -1.000000 0.000000 0.000000 92 62 14 255
-0.200000 0.700000 -2.000000 -1.000000 0.000000 0.000000 92 62 14 255
-0.200000 0.700000 -1.750000 -1.000000 0.000000 0.000000 92 62 14 255
0.168577 -1.225000 1.750000 0.000000 -1.000000 0.000000 92 62 14 255
0.017666 -1.225000 1.500000 0.000000 -1.000000 0.000000 92 62 14 255
0.168577 -1.225000 1.500000 0.000000 -1.000000 0.000000 92 62 14 255
0.168577 0.700000 1.750000 0.000000 -0.000000 1.000000 92 62 14 255
0.017666 0.000000 1.750000 0.000000 -0.000000 1.000000 92 62 14 255
0.168577 0.000000 1.750000 0.000000 -0.000000 1.000000 92 62 14 255
0.168577 -1.050000 -1.750000 -0.000000 -0.000000 -1.000000 92 62 14 255
0.017666 -0.700000 -1.750000 -0.000000 -0.000000 -1.000000 92 62 14 255
0.168577 -0.700000 -1.750000 -0.000000 -0.000000 -1.000000 92 62 14 255
0.168577 1.225000 -1.000000 0.000000 1.000000 0.000000 92 62 14 255
0.017666 1.225000 0.000000 0.000000 1.000000 0.000000 92 62 14 255
0.168577 1.225000 0.000000 0.000000 1.000000 0.000000 92 62 14 255
0.168577 1.050000 1.750000 0.000000 -0.000000 1.000000 92 62 14 255
0.017666 0.700000 1.750000 0.000000 -0.000000 1.000000 92 62 14 255
0.017666 0.000000 -1.750000 -0.000000 -0.000000 -1.000000 92 62 14 255
0.168577 0.000000 -1.750000 -0.000000 -0.000000 -1.000000 92 62 14 255
0.017666 1.225000 1.000000 0.000000 1.000000 0.000000 92 62 14 255
0.168577 1.225000 1.000000 0.000000 1.000000 0.000000 92 62 14 255
0.168577 1.050000 -1.750000 -0.000000 -0.000000 -1.000000 92 62 14 255
0.017666 1.225000 -1.750000 -0.000000 -0.000000 -1.000000 92 62 14 255
0.168577 1.225000 -1.750000 -0.000000 -0.000000 -1.000000 92 62 14 255
0.017666 1.225000 1.500000 0.000000 1.000000 0.000000 92 62 14 255
0.168577 1.225000 1.500000 0.000000 1.000000 0.000000 92 62 14 255
0.168577 -1.225000 0.000000 0.000000 -1.000000 0.000000 92 62 14 255
0.017666 -1.225000 -1.000000 0.000000 -1.000000 0.000000 92 62 14 255
0.168577 -1.225000 -1.000000 0.000000 -1.000000 0.000000 92 62 14 255
0.168577 -1.225000 -1.500000 0.000000 -1.000000 0.000000 92 62 14 255
0.017666 -1.225000 -1.750000 0.000000 -1.000000 0.000000 92 62 14 255
0.168577 -1.225000 -1.750000 0.000000 -1.000000 0.000000 92 62 14 255
0.168577 1.225000 -1.500000 0.000000 1.000000 0.000000 92 62 14 255
0.017666 1.225000 -1.000000 0.000000 1.000000 0.000000 92 62 14 255
0.168577 -1.225000 1.000000 0.000000 -1.000000 0.000000 92 62 14 255
0.017666 -1.225000 0.000000 0.000000 -1.000000 0.000000 92 62 14 255
0.017666 -0.700000 1.750000 0.000000 -0.000000 1.000000 92 62 14 255
0.168577 -0.700000 1.750000 0.000000 -0.000000 1.000000 92 62 14 255
0.168577 1.225000 -1.750000 0.000000 1.000000 0.000000 92 62 14 255
0.017666 1.225000 -1.500000 0.000000 1.000000 0.000000 92 62 14 255
0.017666 1.225000 1.750000 0.000000 1.000000 0.000000 92 62 14 255
0.168577 1.225000 1.750000 0.000000 1.000000 0.000000 92 62 14 255
0.168577 0.700000 -1.750000 -0.000000 -0.000000 -1.000000 92 62 14 255
0.017666 1.050000 -1.750000 -0.000000 -0.000000 -1.000000 92 62 14 255
0.017666 -1.225000 1.000000 0.000000 -1.000000 0.000000 92 62 14 255
0.017666 -1.050000 1.750000 0.000000 -0.000000 1.000000 92 62 14 255
0.168577 -1.050000 1.750000 0.000000 -0.000000 1.000000 92 62 14 255
0.168577 1.225000 1.750000 0.000000 -0.000000 1.000000 92 62 14 255
0.017666 1.050000 1.750000 0.000000 -0.000000 1.000000 92 62 14 255
0.017666 0.700000 -1.750000 -0.000000 -0.000000 -1.000000 92 62 14 255
0.017666 -1.225000 -1.500000 0.000000 -1.000000 0.000000 92 62 14 255
0.017666 -1.225000 1.750000 0.000000 -0.000000 1.000000 92 62 14 255
0.168577 -1.225000 1.750000 0.000000 -0.000000 1.000000 92 62 14 255
0.168577 -1.225000 -1.750000 -0.000000 -0.000000 -1.000000 92 62 14 255
0.017666 -1.050000 -1.750000 -0.000000 -0.000000 -1.000000 92 62 14 255
0.017666 -1.225000 1.500000 -1.000000 0.000000 0.000000 92 62 14 255
0.017666 -1.050000 1.500000 -1.000000 0.000000 0.000000 92 62 14 255
0.017666 -0.700000 1.500000 -1.000000 0.000000 0.000000 92 62 14 255
0.017666 0.000000 -1.500000 -1.000000 0.000000 0.000000 92 62 14 255
0.017666 -0.700000 -1.500000 -1.000000 0.000000 0.000000 92 62 14 255
0.017666 -1.050000 -1.500000 -1.000000 0.000000 0.000000 92 62 14 255
0.017666 -1.225000 -1.500000 -1.000000 0.000000 0.000000 92 62 14 255
0.017666 0.700000 -1.500000 -1.000000 0.000000 0.000000 92 62 14 255
0.017666 1.050000 -1.500000 -1.000000 0.000000 0.000000 92 62 14 255
0.017666 1.050000 -1.750000 -1.000000 0.000000 0.000000 92 62 14 255
0.017666 0.700000 -1.750000 -1.000000 0.000000 0.000000 92 62 14 255
0.017666 0.000000 -1.750000 -1.000000 0.000000 0.000000 92 62 14 255
0.017666 -1.050000 -1.750000 -1.000000 0.000000 0.000000 92 62 14 255
0.017666 -1.225000 -1.750000 -1.000000 0.000000 0.000000 92 62 14 255
0.017666 -0.700000 -1.750000 -1.000000 0.000000 0.000000 92 62 14 255
0.017666 0.700000 1.750000 -1.000000 0.000000 0.000000 92 62 14 255
0.017666 1.050000 1.500000 -1.000000 0.000000 0.000000 92 62 14 255
0.017666 0.000000 1.750000 -1.000000 0.000000 0.000000 92 62 14 255
0.017666 -1.225000 1.750000 -1.000000 0.000000 0.000000 92 62 14 255
0.017666 -1.050000 1.750000 -1.000000 0.000000 0.000000 92 62 14 255
0.017666 -0.700000 1.750000 -1.000000 0.000000 0.000000 92 62 14 255
0.017666 1.050000 1.750000 -1.000000 0.000000 0.000000 92 62 14 255
0.017666 1.225000 1.500000 -1.000000 0.000000 0.000000 92 62 14 255
0.017666 1.225000 -1.750000 -1.000000 0.000000 0.000000 92 62 14 255
0.017666 1.225000 -1.500000 -1.000000 0.000000 0.000000 92 62 14 255
0.017666 1.225000 1.000000 -1.000000 0.000000 0.000000 92 62 14 255
0.017666 1.225000 0.000000 -1.000000 0.000000 0.000000 92 62 14 255
0.017666 1.225000 -1.000000 -1.000000 0.000000 0.000000 92 62 14 255
-0.200000 -1.400000 2.000000 0.000000 -0.000000 1.000000 92 62 14 255
-0.200000 -1.400000 2.000000 0.000000 -1.000000 0.000000 92 62 14 255
-0.200000 1.400000 2.000000 -1.000000 0.000000 0.000000 92 62 14 255
0.200000 -1.400000 -2.000000 0.000000 0.000000 -1.000000 92 62 14 255
0.200000 -1.400000 2.000000 1.000000 0.000000 0.000000 92 62 14 255
0.200000 1.400000 2.000000 0.000000 1.000000 -0.000000 92 62 14 255
0.168577 1.225000 1.750000 0.000000 0.000000 -1.000000 92 62 14 255
0.168577 -1.225000 -1.750000 0.000000 0.000000 1.000000 92 62 14 255
0.168577 -1.225000 1.750000 0.000000 1.000000 -0.000000 92 62 14 255
0.168577 1.225000 -1.750000 -0.000000 -1.000000 -0.000000 92 62 14 255
0.017666 -1.225000 1.750000 0.000000 -1.000000 0.000000 92 62 14 255
0.017666 1.225000 -1.750000 -0.000000 1.000000 0.000000 92 62 14 255
0.017666 1.225000 1.750000 0.000000 0.000000 1.000000 92 62 14 255
0.017666 -1.225000 -1.750000 0.000000 0.000000 -1.000000 92 62 14 255
0.017666 1.225000 1.750000 -1.000000 0.000000 0.000000 92 62 14 255
3 0 1 2
3 3 4 5
3 6 7 8
3 9 10 11
3 12 13 14
3 15 16 17
3 18 19 20
3 21 22 23
3 24 25 26
3 27 28 29
3 30 26 31
3 32 33 19
3 34 35 22
3 36 37 28
3 38 31 39
3 40 41 33
3 42 43 35
3 44 45 37
3 46 29 47
3 48 23 49
3 50 20 51
3 52 53 25
3 54 51 55
3 56 49 57
3 58 47 59
3 60 61 53
3 62 63 64
3 65 66 67
3 68 69 63
3 70 71 66
3 72 73 74
3 75 76 77
3 78 74 79
3 80 77 81
3 82 81 83
3 84 79 71
3 85 86 87
3 88 89 90
3 91 92 93
3 94 95 96
3 64 97 76
3 98 70 65
3 63 99 97
3 100 84 70
3 101 102 72
3 77 103 104
3 105 72 78
3 81 104 106
3 83 106 107
3 108 78 84
3 109 110 85
3 111 112 88
3 113 114 91
3 115 116 94
3 76 117 103
3 118 100 98
3 97 119 117
3 120 108 100
3 121 122 101
3 123 124 125
3 126 101 105
3 127 128 129
3 130 131 132
3 133 105 108
3 134 135 109
3 136 137 111
3 138 139 113
3 140 141 115
3 96 142 143
3 93 144 145
3 90 146 147
3 87 148 149
3 71 150 151
3 152 153 154
3 129 155 156
3 79 157 150
3 158 159 160
3 74 161 157
3 66 151 162
3 132 163 164
3 67 162 165
3 166 167 168
3 169 170 130
3 165 171 172
3 156 173 152
3 162 174 171
3 157 175 176
3 164 177 178
3 150 176 179
3 180 181 182
3 183 184 169
3 151 179 174
3 149 185 186
3 147 187 188
3 145 189 190
3 143 191 192
3 160 193 166
3 55 120 118
3 194 195 180
3 51 133 120
3 33 196 121
3 182 197 198
3 19 121 126
3 199 200 201
3 178 202 203
3 20 126 133
3 17 204 134
3 14 205 136
3 8 206 138
3 5 207 140
3 125 208 194
3 209 118 210
3 211 212 127
3 213 172 214
3 215 165 213
3 216 217 123
3 218 219 199
3 210 98 220
3 201 221 158
3 220 65 222
3 154 223 224
3 222 67 215
3 225 59 226
3 227 57 228
3 229 55 209
3 230 8 61
3 41 136 196
3 231 232 233
3 161 188 175
3 234 235 236
3 237 238 234
3 73 147 161
3 196 111 122
3 233 239 240
3 122 88 102
3 240 241 242
3 102 90 73
3 242 243 237
3 244 39 231
3 245 14 41
3 246 11 43
3 247 2 45
3 236 248 249
3 175 250 251
3 214 252 253
3 254 255 256
3 192 257 258
3 190 259 255
3 188 260 250
3 186 261 262
3 174 263 264
3 265 266 267
3 268 267 269
3 179 270 263
3 235 269 248
3 176 251 270
3 171 264 271
3 272 273 266
3 172 271 252
3 274 256 273
3 275 276 277
3 278 279 280
3 281 282 283
3 284 285 286
3 287 288 278
3 283 289 290
3 286 291 292
3 293 294 295
3 292 296 297
3 298 299 300
3 301 302 303
3 304 305 284
3 306 307 298
3 280 308 309
3 310 311 304
3 297 312 313
3 314 315 293
3 277 316 306
3 309 317 318
3 319 320 287
3 290 321 314
3 300 322 301
3 318 323 324
3 325 326 281
3 327 80 82
3 328 75 80
3 329 64 75
3 104 330 331
3 106 331 332
3 107 332 333
3 103 334 330
3 117 335 334
3 334 336 337
3 330 337 338
3 333 339 340
3 332 341 339
3 331 338 341
3 342 343 68
3 344 68 62
3 345 328 327
3 346 329 328
3 347 62 329
3 348 349 343
3 335 350 336
3 119 351 335
3 343 352 69
3 69 353 99
3 99 354 119
3 0 355 1
3 3 356 4
3 6 357 7
3 9 358 10
3 12 359 13
3 15 360 16
3 18 32 19
3 21 34 22
3 24 52 25
3 27 36 28
3 30 24 26
3 32 40 33
3 34 42 35
3 36 44 37
3 38 30 31
3 40 245 41
3 42 246 43
3 44 247 45
3 46 27 29
3 48 21 23
3 50 18 20
3 52 60 53
3 54 50 51
3 56 48 49
3 58 46 47
3 60 230 61
3 62 68 63
3 65 70 66
3 68 343 69
3 70 84 71
3 72 102 73
3 75 64 76
3 78 72 74
3 80 75 77
3 82 80 81
3 84 78 79
3 85 110 86
3 88 112 89
3 91 114 92
3 94 116 95
3 64 63 97
3 98 100 70
3 63 69 99
3 100 108 84
3 101 122 102
3 77 76 103
3 105 101 72
3 81 77 104
3 83 81 106
3 108 105 78
3 109 135 110
3 111 137 112
3 113 139 114
3 115 141 116
3 76 97 117
3 118 120 100
3 97 99 119
3 120 133 108
3 121 196 122
3 123 217 124
3 126 121 101
3 127 212 128
3 130 170 131
3 133 126 105
3 134 204 135
3 136 205 137
3 138 206 139
3 140 207 141
3 96 95 142
3 93 92 144
3 90 89 146
3 87 86 148
3 71 79 150
3 152 173 153
3 129 128 155
3 79 74 157
3 158 221 159
3 74 73 161
3 66 71 151
3 132 131 163
3 67 66 162
3 166 193 167
3 169 184 170
3 165 162 171
3 156 155 173
3 162 151 174
3 157 161 175
3 164 163 177
3 150 157 176
3 180 195 181
3 183 361 184
3 151 150 179
3 149 148 185
3 147 146 187
3 145 144 189
3 143 142 191
3 160 159 193
3 55 51 120
3 194 208 195
3 51 20 133
3 33 41 196
3 182 181 197
3 19 33 121
3 199 219 200
3 178 177 202
3 20 19 126
3 17 16 204
3 14 13 205
3 8 7 206
3 5 4 207
3 125 124 208
3 209 55 118
3 211 362 212
3 213 165 172
3 215 67 165
3 216 363 217
3 218 364 219
3 210 118 98
3 201 200 221
3 220 98 65
3 154 153 223
3 222 65 67
3 225 58 59
3 227 56 57
3 229 54 55
3 230 6 8
3 41 14 136
3 231 39 232
3 161 147 188
3 234 238 235
3 237 243 238
3 73 90 147
3 196 136 111
3 233 232 239
3 122 111 88
3 240 239 241
3 102 88 90
3 242 241 243
3 244 38 39
3 245 12 14
3 246 9 11
3 247 0 2
3 236 235 248
3 175 188 250
3 214 172 252
3 254 190 255
3 192 191 257
3 190 189 259
3 188 187 260
3 186 185 261
3 174 179 263
3 265 272 266
3 268 265 267
3 179 176 270
3 235 268 269
3 176 175 251
3 171 174 264
3 272 274 273
3 172 171 271
3 274 254 256
3 275 365 276
3 278 288 279
3 281 326 282
3 284 305 285
3 287 320 288
3 283 282 289
3 286 285 291
3 293 315 294
3 292 291 296
3 298 307 299
3 301 322 302
3 304 311 305
3 306 316 307
3 280 279 308
3 310 366 311
3 297 296 312
3 314 321 315
3 277 276 316
3 309 308 317
3 319 367 320
3 290 289 321
3 300 299 322
3 318 317 323
3 325 368 326
3 327 328 80
3 328 329 75
3 329 62 64
3 104 103 330
3 106 104 331
3 107 106 332
3 103 117 334
3 117 119 335
3 334 335 336
3 330 334 337
3 333 332 339
3 332 331 341
3 331 330 338
3 342 348 343
3 344 342 68
3 345 346 328
3 346 347 329
3 347 344 62
3 348 369 349
3 335 351 350
3 119 354 351
3 343 349 352
3 69 352 353
3 99 353 354
