ply
format ascii 1.0
comment Created by Blender 2.81 (sub 16) - www.blender.org, source file: ''
element vertex 1461
property float x
property float y
property float z
element face 572
property list uchar uint vertex_indices
end_header
-0.032429 -0.216838 0.155124
-0.039904 -0.219149 0.143463
-0.032599 -0.212642 0.146477
-0.032732 -0.230228 0.150000
-0.031020 -0.218637 0.155593
-0.020318 -0.228365 0.150659
-0.034048 -0.230009 0.148763
-0.039348 -0.221149 0.142482
-0.039177 -0.225346 0.151128
-0.031234 -0.213364 0.144730
-0.032947 -0.224956 0.139138
-0.020533 -0.223093 0.139797
-0.019007 -0.224997 0.140212
-0.031360 -0.231073 0.148193
-0.018837 -0.229193 0.148858
-0.039904 -0.219149 0.143463
-0.039348 -0.221149 0.142482
-0.038540 -0.219872 0.141716
-0.034218 -0.225812 0.140117
-0.031531 -0.226877 0.139547
-0.032947 -0.224956 0.139138
-0.039177 -0.225346 0.151128
-0.039734 -0.223347 0.152109
-0.038325 -0.225144 0.152578
-0.034048 -0.230009 0.148763
-0.032732 -0.230228 0.150000
-0.031360 -0.231073 0.148193
-0.032599 -0.212642 0.146477
-0.038540 -0.219872 0.141716
-0.031234 -0.213364 0.144730
-0.034218 -0.225812 0.140117
-0.038540 -0.219872 0.141716
-0.039348 -0.221149 0.142482
-0.031531 -0.226877 0.139547
-0.020533 -0.223093 0.139797
-0.032947 -0.224956 0.139138
-0.034218 -0.225812 0.140117
-0.031360 -0.231073 0.148193
-0.031531 -0.226877 0.139547
-0.020318 -0.228365 0.150659
-0.031360 -0.231073 0.148193
-0.032732 -0.230228 0.150000
-0.034048 -0.230009 0.148763
-0.038325 -0.225144 0.152578
-0.032732 -0.230228 0.150000
-0.032429 -0.216838 0.155124
-0.038325 -0.225144 0.152578
-0.039734 -0.223347 0.152109
-0.039348 -0.221149 0.142482
-0.039734 -0.223347 0.152109
-0.039177 -0.225346 0.151128
-0.020533 -0.223093 0.139797
-0.019007 -0.224997 0.140212
-0.018837 -0.229193 0.148858
-0.020533 -0.223093 0.139797
-0.018837 -0.229193 0.148858
-0.020318 -0.228365 0.150659
-0.020533 -0.223093 0.139797
-0.020318 -0.228365 0.150659
-0.031020 -0.218637 0.155593
-0.031020 -0.218637 0.155593
-0.032429 -0.216838 0.155124
-0.020533 -0.223093 0.139797
-0.020533 -0.223093 0.139797
-0.032429 -0.216838 0.155124
-0.032599 -0.212642 0.146477
-0.020533 -0.223093 0.139797
-0.032599 -0.212642 0.146477
-0.031234 -0.213364 0.144730
-0.055440 -0.150981 0.200971
-0.042091 -0.108235 0.188147
-0.041094 -0.119330 0.211214
-0.056370 -0.184205 0.186560
-0.045045 -0.199451 0.140039
-0.057778 -0.168514 0.153938
-0.019482 -0.235679 0.154317
0.012181 -0.240085 0.128908
-0.020478 -0.224583 0.131249
-0.015520 -0.094074 0.215732
-0.042091 -0.108235 0.188147
-0.016058 -0.088069 0.203248
-0.056370 -0.184205 0.186560
-0.056742 -0.136484 0.170831
-0.055440 -0.150981 0.200971
-0.019482 -0.235679 0.154317
-0.045045 -0.199451 0.140039
-0.043743 -0.213948 0.170178
0.012720 -0.246091 0.141392
0.047961 -0.243598 0.133371
0.012181 -0.240085 0.128908
0.017394 -0.079056 0.213836
-0.015520 -0.094074 0.215732
-0.016058 -0.088069 0.203248
-0.042091 -0.108235 0.188147
-0.011328 -0.081646 0.191910
-0.016058 -0.088069 0.203248
-0.056742 -0.136484 0.170831
-0.045417 -0.151729 0.124310
-0.045320 -0.120976 0.143458
-0.020478 -0.224583 0.131249
-0.033623 -0.183943 0.112666
-0.045045 -0.199451 0.140039
0.012181 -0.240085 0.128908
0.047961 -0.243598 0.133371
0.016912 -0.233663 0.117570
0.017394 -0.079056 0.213836
-0.016058 -0.088069 0.203248
-0.011328 -0.081646 0.191910
-0.056742 -0.136484 0.170831
-0.033350 -0.096366 0.167196
-0.042091 -0.108235 0.188147
-0.057778 -0.168514 0.153938
-0.033623 -0.183943 0.112666
-0.045417 -0.151729 0.124310
0.012181 -0.240085 0.128908
-0.011736 -0.212715 0.110299
-0.020478 -0.224583 0.131249
-0.033623 -0.183943 0.112666
0.005411 -0.201878 0.094655
-0.011218 -0.169785 0.092226
0.016912 -0.233663 0.117570
0.047961 -0.243598 0.133371
0.026193 -0.227798 0.109103
0.017394 -0.079056 0.213836
-0.011328 -0.081646 0.191910
-0.002047 -0.075781 0.183443
-0.033350 -0.096366 0.167196
-0.022915 -0.106817 0.123019
-0.016202 -0.085530 0.151552
-0.045417 -0.151729 0.124310
-0.011218 -0.169785 0.092226
-0.021165 -0.136404 0.102186
-0.011736 -0.212715 0.110299
0.026193 -0.227798 0.109103
0.005411 -0.201878 0.094655
-0.033350 -0.096366 0.167196
-0.002047 -0.075781 0.183443
-0.011328 -0.081646 0.191910
-0.045320 -0.120976 0.143458
-0.021165 -0.136404 0.102186
-0.022915 -0.106817 0.123019
0.017394 -0.079056 0.213836
-0.002047 -0.075781 0.183443
0.010371 -0.071370 0.179138
-0.016202 -0.085530 0.151552
0.007063 -0.096166 0.112624
0.006743 -0.077377 0.143597
-0.011218 -0.169785 0.092226
0.011283 -0.124875 0.090935
-0.021165 -0.136404 0.102186
0.026193 -0.227798 0.109103
0.028357 -0.193726 0.086699
0.005411 -0.201878 0.094655
-0.002047 -0.075781 0.183443
0.006743 -0.077377 0.143597
0.010371 -0.071370 0.179138
-0.021165 -0.136404 0.102186
0.007063 -0.096166 0.112624
-0.022915 -0.106817 0.123019
0.005411 -0.201878 0.094655
0.018760 -0.159133 0.081831
-0.011218 -0.169785 0.092226
0.026193 -0.227798 0.109103
0.047961 -0.243598 0.133371
0.038610 -0.223386 0.104798
0.028357 -0.193726 0.086699
0.052274 -0.221096 0.105308
0.053603 -0.189497 0.087643
0.006743 -0.077377 0.143597
0.024035 -0.069080 0.179648
0.010371 -0.071370 0.179138
0.011283 -0.124875 0.090935
0.040050 -0.090640 0.113857
0.007063 -0.096166 0.112624
0.018760 -0.159133 0.081831
0.053603 -0.189497 0.087643
0.051748 -0.153608 0.083064
0.038610 -0.223386 0.104798
0.047961 -0.243598 0.133371
0.052274 -0.221096 0.105308
0.017394 -0.079056 0.213836
0.010371 -0.071370 0.179138
0.024035 -0.069080 0.179648
0.006743 -0.077377 0.143597
0.040050 -0.090640 0.113857
0.031990 -0.073148 0.144540
0.018760 -0.159133 0.081831
0.046989 -0.118895 0.092269
0.011283 -0.124875 0.090935
0.024035 -0.069080 0.179648
0.055697 -0.073488 0.154239
0.036864 -0.069264 0.184897
0.040050 -0.090640 0.113857
0.080516 -0.119374 0.105986
0.071025 -0.091083 0.126529
0.051748 -0.153608 0.083064
0.077311 -0.189836 0.097342
0.082722 -0.154051 0.095737
0.052274 -0.221096 0.105308
0.047961 -0.243598 0.133371
0.065104 -0.221281 0.110557
0.017394 -0.079056 0.213836
0.024035 -0.069080 0.179648
0.036864 -0.069264 0.184897
0.031990 -0.073148 0.144540
0.071025 -0.091083 0.126529
0.055697 -0.073488 0.154239
0.046989 -0.118895 0.092269
0.082722 -0.154051 0.095737
0.080516 -0.119374 0.105986
0.052274 -0.221096 0.105308
0.077311 -0.189836 0.097342
0.053603 -0.189497 0.087643
0.065104 -0.221281 0.110557
0.047961 -0.243598 0.133371
0.075147 -0.223909 0.119746
0.017394 -0.079056 0.213836
0.036864 -0.069264 0.184897
0.046907 -0.071892 0.194086
0.055697 -0.073488 0.154239
0.095271 -0.097428 0.148713
0.074254 -0.078343 0.171218
0.080516 -0.119374 0.105986
0.106968 -0.160395 0.117920
0.106759 -0.126241 0.129997
0.077311 -0.189836 0.097342
0.075147 -0.223909 0.119746
0.095868 -0.194691 0.114320
0.036864 -0.069264 0.184897
0.074254 -0.078343 0.171218
0.046907 -0.071892 0.194086
0.071025 -0.091083 0.126529
0.106759 -0.126241 0.129997
0.095271 -0.097428 0.148713
0.082722 -0.154051 0.095737
0.095868 -0.194691 0.114320
0.106968 -0.160395 0.117920
0.074254 -0.078343 0.171218
0.109098 -0.108706 0.177029
0.084837 -0.086976 0.192890
0.106759 -0.126241 0.129997
0.120795 -0.171674 0.146237
0.121725 -0.138449 0.160647
0.095868 -0.194691 0.114320
0.080874 -0.228581 0.131475
0.106451 -0.203324 0.135993
0.046907 -0.071892 0.194086
0.084837 -0.086976 0.192890
0.052635 -0.076564 0.205815
0.095271 -0.097428 0.148713
0.121725 -0.138449 0.160647
0.109098 -0.108706 0.177029
0.075147 -0.223909 0.119746
0.047961 -0.243598 0.133371
0.080874 -0.228581 0.131475
0.017394 -0.079056 0.213836
0.046907 -0.071892 0.194086
0.052635 -0.076564 0.205815
0.052635 -0.076564 0.205815
0.085833 -0.098072 0.215958
0.053174 -0.082569 0.218299
0.109098 -0.108706 0.177029
0.123134 -0.154140 0.193269
0.110400 -0.123204 0.207168
0.120795 -0.171674 0.146237
0.107446 -0.214419 0.159061
0.122097 -0.186171 0.176376
0.080874 -0.228581 0.131475
0.047961 -0.243598 0.133371
0.081414 -0.234585 0.143959
0.017394 -0.079056 0.213836
0.052635 -0.076564 0.205815
0.053174 -0.082569 0.218299
0.084837 -0.086976 0.192890
0.110400 -0.123204 0.207168
0.085833 -0.098072 0.215958
0.121725 -0.138449 0.160647
0.122097 -0.186171 0.176376
0.123134 -0.154140 0.193269
0.106451 -0.203324 0.135993
0.081414 -0.234585 0.143959
0.107446 -0.214419 0.159061
0.110400 -0.123204 0.207168
0.110771 -0.170926 0.222898
0.098978 -0.138712 0.234542
0.122097 -0.186171 0.176376
0.098705 -0.226288 0.180011
0.110675 -0.201679 0.203749
0.081414 -0.234585 0.143959
0.047961 -0.243598 0.133371
0.076682 -0.241009 0.155298
0.017394 -0.079056 0.213836
0.053174 -0.082569 0.218299
0.048442 -0.088992 0.229638
0.085833 -0.098072 0.215958
0.098978 -0.138712 0.234542
0.077092 -0.109941 0.236908
0.123134 -0.154140 0.193269
0.110675 -0.201679 0.203749
0.110771 -0.170926 0.222898
0.107446 -0.214419 0.159061
0.076682 -0.241009 0.155298
0.098705 -0.226288 0.180011
0.053174 -0.082569 0.218299
0.077092 -0.109941 0.236908
0.048442 -0.088992 0.229638
0.017394 -0.079056 0.213836
0.048442 -0.088992 0.229638
0.039162 -0.094856 0.238104
0.077092 -0.109941 0.236908
0.076573 -0.152870 0.254981
0.059943 -0.120777 0.252552
0.110771 -0.170926 0.222898
0.088270 -0.215837 0.224189
0.086520 -0.186250 0.245021
0.098705 -0.226288 0.180011
0.067402 -0.246873 0.163764
0.081557 -0.237124 0.195655
0.048442 -0.088992 0.229638
0.059943 -0.120777 0.252552
0.039162 -0.094856 0.238104
0.098978 -0.138712 0.234542
0.086520 -0.186250 0.245021
0.076573 -0.152870 0.254981
0.110675 -0.201679 0.203749
0.081557 -0.237124 0.195655
0.088270 -0.215837 0.224189
0.076682 -0.241009 0.155298
0.047961 -0.243598 0.133371
0.067402 -0.246873 0.163764
0.086520 -0.186250 0.245021
0.058292 -0.226489 0.234583
0.054072 -0.197781 0.256273
0.081557 -0.237124 0.195655
0.054985 -0.251286 0.168070
0.058612 -0.245277 0.203611
0.039162 -0.094856 0.238104
0.037000 -0.128929 0.260508
0.026745 -0.099269 0.242410
0.076573 -0.152870 0.254981
0.054072 -0.197781 0.256273
0.046595 -0.163522 0.265376
0.088270 -0.215837 0.224189
0.058612 -0.245277 0.203611
0.058292 -0.226489 0.234583
0.067402 -0.246873 0.163764
0.047961 -0.243598 0.133371
0.054985 -0.251286 0.168070
0.017394 -0.079056 0.213836
0.039162 -0.094856 0.238104
0.026745 -0.099269 0.242410
0.059943 -0.120777 0.252552
0.046595 -0.163522 0.265376
0.037000 -0.128929 0.260508
0.026745 -0.099269 0.242410
0.011751 -0.133158 0.259564
0.013081 -0.101558 0.241899
0.046595 -0.163522 0.265376
0.018367 -0.203761 0.254938
0.013608 -0.169047 0.264143
0.058292 -0.226489 0.234583
0.033365 -0.249506 0.202667
0.025305 -0.232015 0.233351
0.054985 -0.251286 0.168070
0.047961 -0.243598 0.133371
0.041320 -0.253574 0.167559
0.017394 -0.079056 0.213836
0.026745 -0.099269 0.242410
0.013081 -0.101558 0.241899
0.037000 -0.128929 0.260508
0.013608 -0.169047 0.264143
0.011751 -0.133158 0.259564
0.054072 -0.197781 0.256273
0.025305 -0.232015 0.233351
0.018367 -0.203761 0.254938
0.058612 -0.245277 0.203611
0.041320 -0.253574 0.167559
0.033365 -0.249506 0.202667
0.033365 -0.249506 0.202667
-0.005670 -0.231571 0.220678
0.025305 -0.232015 0.233351
0.041320 -0.253574 0.167559
0.047961 -0.243598 0.133371
0.028490 -0.253391 0.162310
0.017394 -0.079056 0.213836
0.013081 -0.101558 0.241899
0.000250 -0.101374 0.236650
0.011751 -0.133158 0.259564
-0.017367 -0.168603 0.251470
-0.011955 -0.132819 0.249865
0.018367 -0.203761 0.254938
-0.005670 -0.231571 0.220678
-0.015160 -0.203281 0.241221
0.033365 -0.249506 0.202667
0.028490 -0.253391 0.162310
0.009658 -0.249167 0.192968
0.013081 -0.101558 0.241899
-0.011955 -0.132819 0.249865
0.000250 -0.101374 0.236650
0.013608 -0.169047 0.264143
-0.015160 -0.203281 0.241221
-0.017367 -0.168603 0.251470
0.017394 -0.079056 0.213836
0.000250 -0.101374 0.236650
-0.009793 -0.098746 0.227461
-0.017367 -0.168603 0.251470
-0.030513 -0.127963 0.232887
-0.011955 -0.132819 0.249865
-0.005670 -0.231571 0.220678
-0.041404 -0.196414 0.217210
-0.015160 -0.203281 0.241221
0.028490 -0.253391 0.162310
-0.008899 -0.244312 0.175989
0.009658 -0.249167 0.192968
0.000250 -0.101374 0.236650
-0.030513 -0.127963 0.232887
-0.009793 -0.098746 0.227461
-0.015160 -0.203281 0.241221
-0.041613 -0.162259 0.229287
-0.017367 -0.168603 0.251470
0.009658 -0.249167 0.192968
-0.029916 -0.225227 0.198494
-0.005670 -0.231571 0.220678
0.028490 -0.253391 0.162310
0.047961 -0.243598 0.133371
0.018447 -0.250763 0.153121
-0.008899 -0.244312 0.175989
0.012720 -0.246091 0.141392
-0.019482 -0.235679 0.154317
-0.009793 -0.098746 0.227461
-0.041094 -0.119330 0.211214
-0.015520 -0.094074 0.215732
-0.041404 -0.196414 0.217210
-0.055440 -0.150981 0.200971
-0.041613 -0.162259 0.229287
-0.029916 -0.225227 0.198494
-0.019482 -0.235679 0.154317
-0.043743 -0.213948 0.170178
0.018447 -0.250763 0.153121
0.047961 -0.243598 0.133371
0.012720 -0.246091 0.141392
0.017394 -0.079056 0.213836
-0.009793 -0.098746 0.227461
-0.015520 -0.094074 0.215732
-0.030513 -0.127963 0.232887
-0.055440 -0.150981 0.200971
-0.041094 -0.119330 0.211214
-0.041404 -0.196414 0.217210
-0.043743 -0.213948 0.170178
-0.056370 -0.184205 0.186560
0.106968 -0.160395 0.117920
0.106451 -0.203324 0.135993
0.120795 -0.171674 0.146237
-0.057070 -0.193288 0.182737
-0.061760 -0.169486 0.152730
-0.060288 -0.185889 0.186832
-0.060288 -0.185889 0.186832
-0.061433 -0.161493 0.156958
-0.059987 -0.177585 0.190416
-0.061760 -0.169486 0.152730
-0.048754 -0.144278 0.126572
-0.061433 -0.161493 0.156958
-0.061760 -0.169486 0.152730
-0.045837 -0.159980 0.118893
-0.048838 -0.151940 0.121758
-0.045837 -0.159980 0.118893
-0.023487 -0.135920 0.098631
-0.048838 -0.151940 0.121758
-0.048838 -0.151940 0.121758
-0.023882 -0.128561 0.103881
-0.048754 -0.144278 0.126572
-0.020964 -0.144263 0.096202
0.010433 -0.123868 0.086870
-0.023487 -0.135920 0.098631
-0.023882 -0.128561 0.103881
0.010433 -0.123868 0.086870
0.009398 -0.116736 0.092342
0.009398 -0.116736 0.092342
0.047758 -0.117616 0.088265
0.046017 -0.110603 0.093711
0.012314 -0.132439 0.084663
0.047758 -0.117616 0.088265
0.010433 -0.123868 0.086870
0.046017 -0.110603 0.093711
0.082805 -0.118117 0.102604
0.080402 -0.111095 0.107779
0.047758 -0.117616 0.088265
0.083319 -0.126797 0.100100
0.082805 -0.118117 0.102604
0.082805 -0.118117 0.102604
0.110234 -0.133840 0.124726
0.110239 -0.125295 0.127704
0.080402 -0.111095 0.107779
0.110239 -0.125295 0.127704
0.107317 -0.118137 0.132405
0.110239 -0.125295 0.127704
0.125583 -0.146361 0.156160
0.125883 -0.138058 0.159743
0.107317 -0.118137 0.132405
0.125883 -0.138058 0.159743
0.122666 -0.130658 0.163839
0.122666 -0.130658 0.163839
0.127356 -0.154461 0.193845
0.124110 -0.146752 0.197296
0.125883 -0.138058 0.159743
0.127028 -0.162454 0.189617
0.127356 -0.154461 0.193845
0.124110 -0.146752 0.197296
0.114433 -0.172007 0.224817
0.111432 -0.163966 0.227683
0.127356 -0.154461 0.193845
0.114349 -0.179669 0.220004
0.114433 -0.172007 0.224817
0.114433 -0.172007 0.224817
0.089477 -0.195386 0.242694
0.089082 -0.188027 0.247944
0.111432 -0.163966 0.227683
0.089082 -0.188027 0.247944
0.086560 -0.179683 0.250373
0.089082 -0.188027 0.247944
0.056199 -0.207210 0.254233
0.055162 -0.200079 0.259706
0.086560 -0.179683 0.250373
0.055162 -0.200079 0.259706
0.053281 -0.191508 0.261912
0.053281 -0.191508 0.261912
0.017838 -0.206331 0.258311
0.016662 -0.197641 0.260544
0.055162 -0.200079 0.259706
0.019579 -0.213344 0.252865
0.017838 -0.206331 0.258311
0.017838 -0.206331 0.258311
-0.014806 -0.212852 0.238797
-0.017210 -0.205830 0.243972
0.017838 -0.206331 0.258311
-0.017723 -0.197150 0.246476
0.016662 -0.197641 0.260544
-0.014806 -0.212852 0.238797
-0.044643 -0.198651 0.218872
-0.017210 -0.205830 0.243972
-0.017723 -0.197150 0.246476
-0.044643 -0.198651 0.218872
-0.044639 -0.190107 0.221850
-0.044639 -0.190107 0.221850
-0.060288 -0.185889 0.186832
-0.059987 -0.177585 0.190416
-0.044643 -0.198651 0.218872
-0.057070 -0.193288 0.182737
-0.060288 -0.185889 0.186832
-0.058516 -0.177195 0.149279
-0.057070 -0.193288 0.182737
-0.041722 -0.205810 0.214171
-0.058516 -0.177195 0.149279
-0.041722 -0.205810 0.214171
-0.014806 -0.212852 0.238797
-0.014806 -0.212852 0.238797
0.019579 -0.213344 0.252865
-0.058516 -0.177195 0.149279
0.019579 -0.213344 0.252865
0.056199 -0.207210 0.254233
-0.058516 -0.177195 0.149279
0.056199 -0.207210 0.254233
0.089477 -0.195386 0.242694
-0.058516 -0.177195 0.149279
0.089477 -0.195386 0.242694
0.114349 -0.179669 0.220004
-0.058516 -0.177195 0.149279
0.114349 -0.179669 0.220004
0.127028 -0.162454 0.189617
0.127028 -0.162454 0.189617
0.125583 -0.146361 0.156160
-0.058516 -0.177195 0.149279
0.125583 -0.146361 0.156160
0.110234 -0.133840 0.124726
-0.058516 -0.177195 0.149279
0.110234 -0.133840 0.124726
0.083319 -0.126797 0.100100
0.083319 -0.126797 0.100100
0.048934 -0.126305 0.086032
-0.058516 -0.177195 0.149279
0.048934 -0.126305 0.086032
0.012314 -0.132439 0.084663
-0.058516 -0.177195 0.149279
0.012314 -0.132439 0.084663
-0.020964 -0.144263 0.096202
-0.058516 -0.177195 0.149279
-0.020964 -0.144263 0.096202
-0.045837 -0.159980 0.118893
0.122666 -0.130658 0.163839
0.053281 -0.191508 0.261912
-0.059987 -0.177585 0.190416
0.385935 0.402324 0.443615
0.114449 -0.196634 0.151009
0.386085 0.402634 0.442836
0.114449 -0.196634 0.151009
0.386737 0.402605 0.442291
0.386085 0.402634 0.442836
0.116607 -0.196730 0.149209
0.387513 0.402253 0.442299
0.386737 0.402605 0.442291
0.387513 0.402253 0.442299
0.120631 -0.199438 0.151070
0.387956 0.401785 0.442855
0.387956 0.401785 0.442855
0.120140 -0.200464 0.153642
0.387808 0.401475 0.443634
0.387808 0.401475 0.443634
0.117983 -0.200368 0.155442
0.387155 0.401503 0.444179
0.114449 -0.196634 0.151009
0.113960 -0.197659 0.153581
0.115423 -0.199206 0.155417
0.114449 -0.196634 0.151009
0.115423 -0.199206 0.155417
0.117983 -0.200368 0.155442
0.114449 -0.196634 0.151009
0.117983 -0.200368 0.155442
0.120140 -0.200464 0.153642
0.114449 -0.196634 0.151009
0.120140 -0.200464 0.153642
0.120631 -0.199438 0.151070
0.114449 -0.196634 0.151009
0.120631 -0.199438 0.151070
0.119167 -0.197892 0.149234
0.114449 -0.196634 0.151009
0.119167 -0.197892 0.149234
0.116607 -0.196730 0.149209
0.387155 0.401503 0.444179
0.115423 -0.199206 0.155417
0.386379 0.401856 0.444171
0.115423 -0.199206 0.155417
0.385935 0.402324 0.443615
0.386379 0.401856 0.444171
0.385935 0.402324 0.443615
0.386085 0.402634 0.442836
0.386737 0.402605 0.442291
0.385935 0.402324 0.443615
0.386737 0.402605 0.442291
0.387513 0.402253 0.442299
0.385935 0.402324 0.443615
0.387513 0.402253 0.442299
0.387956 0.401785 0.442855
0.385935 0.402324 0.443615
0.387956 0.401785 0.442855
0.387808 0.401475 0.443634
0.385935 0.402324 0.443615
0.387808 0.401475 0.443634
0.387155 0.401503 0.444179
0.385935 0.402324 0.443615
0.387155 0.401503 0.444179
0.386379 0.401856 0.444171
-0.501609 0.264644 0.388003
-0.028375 -0.222432 0.149510
-0.501729 0.264179 0.388707
-0.501729 0.264179 0.388707
-0.030130 -0.224499 0.150253
-0.502261 0.263553 0.388932
-0.502261 0.263553 0.388932
-0.032216 -0.225890 0.148980
-0.502892 0.263132 0.388546
-0.502892 0.263132 0.388546
-0.033411 -0.225789 0.146437
-0.503254 0.263162 0.387776
-0.503254 0.263162 0.387776
-0.033015 -0.224256 0.144114
-0.503134 0.263627 0.387072
-0.503134 0.263627 0.387072
-0.031260 -0.222189 0.143371
-0.502603 0.264253 0.386848
-0.028375 -0.222432 0.149510
-0.027978 -0.220900 0.147187
-0.029174 -0.220798 0.144644
-0.028375 -0.222432 0.149510
-0.029174 -0.220798 0.144644
-0.031260 -0.222189 0.143371
-0.028375 -0.222432 0.149510
-0.031260 -0.222189 0.143371
-0.033015 -0.224256 0.144114
-0.028375 -0.222432 0.149510
-0.033015 -0.224256 0.144114
-0.033411 -0.225789 0.146437
-0.028375 -0.222432 0.149510
-0.033411 -0.225789 0.146437
-0.032216 -0.225890 0.148980
-0.028375 -0.222432 0.149510
-0.032216 -0.225890 0.148980
-0.030130 -0.224499 0.150253
-0.502603 0.264253 0.386848
-0.029174 -0.220798 0.144644
-0.501971 0.264674 0.387233
-0.501971 0.264674 0.387233
-0.027978 -0.220900 0.147187
-0.501609 0.264644 0.388003
-0.501609 0.264644 0.388003
-0.501729 0.264179 0.388707
-0.502261 0.263553 0.388932
-0.501609 0.264644 0.388003
-0.502261 0.263553 0.388932
-0.502892 0.263132 0.388546
-0.501609 0.264644 0.388003
-0.502892 0.263132 0.388546
-0.503254 0.263162 0.387776
-0.501609 0.264644 0.388003
-0.503254 0.263162 0.387776
-0.503134 0.263627 0.387072
-0.501609 0.264644 0.388003
-0.503134 0.263627 0.387072
-0.502603 0.264253 0.386848
-0.501609 0.264644 0.388003
-0.502603 0.264253 0.386848
-0.501971 0.264674 0.387233
-0.063029 0.530355 0.011259
0.038112 -0.178465 0.084859
-0.063838 0.530214 0.011039
-0.063838 0.530214 0.011039
0.036759 -0.178909 0.082435
-0.064248 0.530080 0.010304
-0.064248 0.530080 0.010304
0.037522 -0.179071 0.079734
-0.064017 0.530031 0.009486
0.037522 -0.179071 0.079734
-0.063281 0.530096 0.009063
-0.064017 0.530031 0.009486
0.039953 -0.178858 0.078338
-0.062471 0.530236 0.009284
-0.063281 0.530096 0.009063
-0.062471 0.530236 0.009284
0.043982 -0.177950 0.081490
-0.062061 0.530370 0.010018
0.038112 -0.178465 0.084859
0.040788 -0.178001 0.085587
0.043219 -0.177787 0.084191
0.038112 -0.178465 0.084859
0.043219 -0.177787 0.084191
0.043982 -0.177950 0.081490
0.038112 -0.178465 0.084859
0.043982 -0.177950 0.081490
0.042629 -0.178393 0.079065
0.038112 -0.178465 0.084859
0.042629 -0.178393 0.079065
0.039953 -0.178858 0.078338
0.038112 -0.178465 0.084859
0.039953 -0.178858 0.078338
0.037522 -0.179071 0.079734
0.038112 -0.178465 0.084859
0.037522 -0.179071 0.079734
0.036759 -0.178909 0.082435
-0.062061 0.530370 0.010018
0.043219 -0.177787 0.084191
-0.062292 0.530419 0.010836
-0.062292 0.530419 0.010836
0.040788 -0.178001 0.085587
-0.063029 0.530355 0.011259
-0.063029 0.530355 0.011259
-0.063838 0.530214 0.011039
-0.064248 0.530080 0.010304
-0.063029 0.530355 0.011259
-0.064248 0.530080 0.010304
-0.064017 0.530031 0.009486
-0.063029 0.530355 0.011259
-0.064017 0.530031 0.009486
-0.063281 0.530096 0.009063
-0.063029 0.530355 0.011259
-0.063281 0.530096 0.009063
-0.062471 0.530236 0.009284
-0.063029 0.530355 0.011259
-0.062471 0.530236 0.009284
-0.062061 0.530370 0.010018
-0.063029 0.530355 0.011259
-0.062061 0.530370 0.010018
-0.062292 0.530419 0.010836
-0.052646 0.136612 0.820359
0.047963 -0.240601 0.215660
-0.051807 0.136599 0.820504
-0.051807 0.136599 0.820504
0.049718 -0.242320 0.217027
-0.051275 0.136078 0.820918
-0.051275 0.136078 0.820918
0.049429 -0.244710 0.218480
-0.051362 0.135355 0.821359
-0.051362 0.135355 0.821359
0.047266 -0.246369 0.219169
-0.052018 0.134853 0.821567
0.047266 -0.246369 0.219169
-0.052857 0.134865 0.821422
-0.052018 0.134853 0.821567
0.044496 -0.246326 0.218690
-0.053388 0.135386 0.821008
-0.052857 0.134865 0.821422
0.047963 -0.240601 0.215660
0.045193 -0.240558 0.215181
0.043030 -0.242216 0.215870
0.047963 -0.240601 0.215660
0.043030 -0.242216 0.215870
0.042741 -0.244607 0.217323
0.047963 -0.240601 0.215660
0.042741 -0.244607 0.217323
0.044496 -0.246326 0.218690
0.047963 -0.240601 0.215660
0.044496 -0.246326 0.218690
0.047266 -0.246369 0.219169
0.047963 -0.240601 0.215660
0.047266 -0.246369 0.219169
0.049429 -0.244710 0.218480
0.047963 -0.240601 0.215660
0.049429 -0.244710 0.218480
0.049718 -0.242320 0.217027
-0.053388 0.135386 0.821008
0.043030 -0.242216 0.215870
-0.053300 0.136110 0.820568
0.043030 -0.242216 0.215870
-0.052646 0.136612 0.820359
-0.053300 0.136110 0.820568
-0.052646 0.136612 0.820359
-0.051807 0.136599 0.820504
-0.051275 0.136078 0.820918
-0.052646 0.136612 0.820359
-0.051275 0.136078 0.820918
-0.051362 0.135355 0.821359
-0.052646 0.136612 0.820359
-0.051362 0.135355 0.821359
-0.052018 0.134853 0.821567
-0.052646 0.136612 0.820359
-0.052018 0.134853 0.821567
-0.052857 0.134865 0.821422
-0.052646 0.136612 0.820359
-0.052857 0.134865 0.821422
-0.053388 0.135386 0.821008
-0.052646 0.136612 0.820359
-0.053388 0.135386 0.821008
-0.053300 0.136110 0.820568
0.115852 -0.187950 0.152378
0.125260 -0.196041 0.158951
0.116023 -0.192147 0.161024
0.120775 -0.199433 0.145338
0.114977 -0.189026 0.150503
0.108396 -0.201485 0.144587
0.122132 -0.199873 0.146467
0.125457 -0.198098 0.157949
0.125286 -0.193902 0.149303
0.115192 -0.194299 0.161366
0.120990 -0.204704 0.156201
0.108611 -0.206757 0.155449
0.120152 -0.205898 0.154268
0.107494 -0.203772 0.144864
0.107665 -0.207969 0.153510
0.125260 -0.196041 0.158951
0.125457 -0.198098 0.157949
0.124429 -0.198193 0.159293
0.122303 -0.204069 0.155113
0.120152 -0.205898 0.154268
0.120990 -0.204704 0.156201
0.125286 -0.193902 0.149303
0.125089 -0.191845 0.150305
0.124214 -0.192922 0.148430
0.122132 -0.199873 0.146467
0.120775 -0.199433 0.145338
0.119982 -0.201702 0.145622
0.116023 -0.192147 0.161024
0.124429 -0.198193 0.159293
0.115192 -0.194299 0.161366
0.125457 -0.198098 0.157949
0.120990 -0.204704 0.156201
0.124429 -0.198193 0.159293
0.120152 -0.205898 0.154268
0.108611 -0.206757 0.155449
0.120990 -0.204704 0.156201
0.122303 -0.204069 0.155113
0.119982 -0.201702 0.145622
0.120152 -0.205898 0.154268
0.108396 -0.201485 0.144587
0.119982 -0.201702 0.145622
0.120775 -0.199433 0.145338
0.122132 -0.199873 0.146467
0.124214 -0.192922 0.148430
0.120775 -0.199433 0.145338
0.125089 -0.191845 0.150305
0.114977 -0.189026 0.150503
0.124214 -0.192922 0.148430
0.125286 -0.193902 0.149303
0.125260 -0.196041 0.158951
0.125089 -0.191845 0.150305
0.108611 -0.206757 0.155449
0.107665 -0.207969 0.153510
0.107494 -0.203772 0.144864
0.108611 -0.206757 0.155449
0.107494 -0.203772 0.144864
0.108396 -0.201485 0.144587
0.108611 -0.206757 0.155449
0.108396 -0.201485 0.144587
0.114977 -0.189026 0.150503
0.108611 -0.206757 0.155449
0.114977 -0.189026 0.150503
0.115852 -0.187950 0.152378
0.108611 -0.206757 0.155449
0.115852 -0.187950 0.152378
0.116023 -0.192147 0.161024
0.108611 -0.206757 0.155449
0.116023 -0.192147 0.161024
0.115192 -0.194299 0.161366
0.035054 -0.172034 0.075591
0.043716 -0.168997 0.086218
0.034236 -0.170494 0.085679
0.035284 -0.181955 0.077125
0.033309 -0.172619 0.085928
0.035525 -0.187538 0.088385
0.045976 -0.179795 0.076481
0.035434 -0.174142 0.074764
0.036496 -0.181292 0.075941
0.045218 -0.170737 0.086606
0.047193 -0.180075 0.077802
0.047435 -0.185657 0.089063
0.046531 -0.187943 0.089339
0.036808 -0.183810 0.077440
0.037051 -0.189442 0.088799
0.044533 -0.170537 0.076131
0.044913 -0.172644 0.075303
0.046035 -0.172277 0.076518
0.045976 -0.179795 0.076481
0.046287 -0.182312 0.077979
0.047193 -0.180075 0.077802
0.035434 -0.174142 0.074764
0.035054 -0.172034 0.075591
0.034126 -0.174159 0.075841
0.036496 -0.181292 0.075941
0.035284 -0.181955 0.077125
0.036808 -0.183810 0.077440
0.043716 -0.168997 0.086218
0.046035 -0.172277 0.076518
0.045218 -0.170737 0.086606
0.044913 -0.172644 0.075303
0.047193 -0.180075 0.077802
0.046035 -0.172277 0.076518
0.046287 -0.182312 0.077979
0.047435 -0.185657 0.089063
0.047193 -0.180075 0.077802
0.036496 -0.181292 0.075941
0.046287 -0.182312 0.077979
0.045976 -0.179795 0.076481
0.035525 -0.187538 0.088385
0.036808 -0.183810 0.077440
0.035284 -0.181955 0.077125
0.036496 -0.181292 0.075941
0.034126 -0.174159 0.075841
0.035284 -0.181955 0.077125
0.034236 -0.170494 0.085679
0.034126 -0.174159 0.075841
0.035054 -0.172034 0.075591
0.035434 -0.174142 0.074764
0.044533 -0.170537 0.076131
0.035054 -0.172034 0.075591
0.047435 -0.185657 0.089063
0.046531 -0.187943 0.089339
0.037051 -0.189442 0.088799
0.047435 -0.185657 0.089063
0.037051 -0.189442 0.088799
0.035525 -0.187538 0.088385
0.047435 -0.185657 0.089063
0.035525 -0.187538 0.088385
0.033309 -0.172619 0.085928
0.047435 -0.185657 0.089063
0.033309 -0.172619 0.085928
0.034236 -0.170494 0.085679
0.047435 -0.185657 0.089063
0.034236 -0.170494 0.085679
0.043716 -0.168997 0.086218
0.047435 -0.185657 0.089063
0.043716 -0.168997 0.086218
0.045218 -0.170737 0.086606
0.050302 -0.243158 0.226823
0.039707 -0.235792 0.221283
0.049186 -0.234295 0.221823
0.052554 -0.242313 0.206861
0.051764 -0.243907 0.225168
0.050648 -0.235045 0.220168
0.051588 -0.248589 0.219289
0.041196 -0.246603 0.225127
0.050675 -0.245106 0.225667
0.038739 -0.236925 0.219490
0.040850 -0.249586 0.217536
0.040644 -0.244193 0.206183
0.042334 -0.250463 0.215836
0.051606 -0.243525 0.204923
0.042126 -0.245022 0.204383
0.040822 -0.244655 0.226283
0.041196 -0.246603 0.225127
0.039855 -0.245788 0.224490
0.042109 -0.250086 0.218750
0.042334 -0.250463 0.215836
0.040850 -0.249586 0.217536
0.050675 -0.245106 0.225667
0.050302 -0.243158 0.226823
0.051764 -0.243907 0.225168
0.051588 -0.248589 0.219289
0.052760 -0.247705 0.218214
0.051814 -0.248966 0.216376
0.039707 -0.235792 0.221283
0.039855 -0.245788 0.224490
0.038739 -0.236925 0.219490
0.042109 -0.250086 0.218750
0.039855 -0.245788 0.224490
0.041196 -0.246603 0.225127
0.042334 -0.250463 0.215836
0.040644 -0.244193 0.206183
0.040850 -0.249586 0.217536
0.042109 -0.250086 0.218750
0.051814 -0.248966 0.216376
0.042334 -0.250463 0.215836
0.052760 -0.247705 0.218214
0.051606 -0.243525 0.204923
0.051814 -0.248966 0.216376
0.051588 -0.248589 0.219289
0.051764 -0.243907 0.225168
0.052760 -0.247705 0.218214
0.050302 -0.243158 0.226823
0.050648 -0.235045 0.220168
0.051764 -0.243907 0.225168
0.050675 -0.245106 0.225667
0.040822 -0.244655 0.226283
0.050302 -0.243158 0.226823
0.040644 -0.244193 0.206183
0.042126 -0.245022 0.204383
0.051606 -0.243525 0.204923
0.040644 -0.244193 0.206183
0.051606 -0.243525 0.204923
0.052554 -0.242313 0.206861
0.040644 -0.244193 0.206183
0.052554 -0.242313 0.206861
0.050648 -0.235045 0.220168
0.040644 -0.244193 0.206183
0.050648 -0.235045 0.220168
0.049186 -0.234295 0.221823
0.040644 -0.244193 0.206183
0.049186 -0.234295 0.221823
0.039707 -0.235792 0.221283
0.040644 -0.244193 0.206183
0.039707 -0.235792 0.221283
0.038739 -0.236925 0.219490
0.031990 -0.073148 0.144540
0.040050 -0.090640 0.113857
0.046989 -0.118895 0.092269
0.080516 -0.119374 0.105986
0.051748 -0.153608 0.083064
0.053603 -0.189497 0.087643
0.077311 -0.189836 0.097342
0.031990 -0.073148 0.144540
0.040050 -0.090640 0.113857
0.071025 -0.091083 0.126529
0.046989 -0.118895 0.092269
0.051748 -0.153608 0.083064
0.082722 -0.154051 0.095737
0.055697 -0.073488 0.154239
0.071025 -0.091083 0.126529
0.095271 -0.097428 0.148713
0.082722 -0.154051 0.095737
0.077311 -0.189836 0.097342
0.065104 -0.221281 0.110557
0.075147 -0.223909 0.119746
0.036864 -0.069264 0.184897
0.055697 -0.073488 0.154239
0.074254 -0.078343 0.171218
0.071025 -0.091083 0.126529
0.080516 -0.119374 0.105986
0.106759 -0.126241 0.129997
0.082722 -0.154051 0.095737
0.077311 -0.189836 0.097342
0.095868 -0.194691 0.114320
0.074254 -0.078343 0.171218
0.095271 -0.097428 0.148713
0.109098 -0.108706 0.177029
0.106968 -0.160395 0.117920
0.095868 -0.194691 0.114320
0.075147 -0.223909 0.119746
0.080874 -0.228581 0.131475
0.046907 -0.071892 0.194086
0.074254 -0.078343 0.171218
0.084837 -0.086976 0.192890
0.106759 -0.126241 0.129997
0.052635 -0.076564 0.205815
0.084837 -0.086976 0.192890
0.085833 -0.098072 0.215958
0.109098 -0.108706 0.177029
0.121725 -0.138449 0.160647
0.123134 -0.154140 0.193269
0.120795 -0.171674 0.146237
0.106451 -0.203324 0.135993
0.107446 -0.214419 0.159061
0.084837 -0.086976 0.192890
0.109098 -0.108706 0.177029
0.110400 -0.123204 0.207168
0.120795 -0.171674 0.146237
0.106451 -0.203324 0.135993
0.080874 -0.228581 0.131475
0.081414 -0.234585 0.143959
0.110400 -0.123204 0.207168
0.123134 -0.154140 0.193269
0.110771 -0.170926 0.222898
0.122097 -0.186171 0.176376
0.107446 -0.214419 0.159061
0.098705 -0.226288 0.180011
0.085833 -0.098072 0.215958
0.110400 -0.123204 0.207168
0.098978 -0.138712 0.234542
0.123134 -0.154140 0.193269
0.122097 -0.186171 0.176376
0.110675 -0.201679 0.203749
0.107446 -0.214419 0.159061
0.081414 -0.234585 0.143959
0.076682 -0.241009 0.155298
0.053174 -0.082569 0.218299
0.085833 -0.098072 0.215958
0.077092 -0.109941 0.236908
0.077092 -0.109941 0.236908
0.098978 -0.138712 0.234542
0.076573 -0.152870 0.254981
0.110771 -0.170926 0.222898
0.110675 -0.201679 0.203749
0.088270 -0.215837 0.224189
0.098705 -0.226288 0.180011
0.076682 -0.241009 0.155298
0.067402 -0.246873 0.163764
0.077092 -0.109941 0.236908
0.098978 -0.138712 0.234542
0.110771 -0.170926 0.222898
0.086520 -0.186250 0.245021
0.110675 -0.201679 0.203749
0.098705 -0.226288 0.180011
0.081557 -0.237124 0.195655
0.086520 -0.186250 0.245021
0.088270 -0.215837 0.224189
0.058292 -0.226489 0.234583
0.081557 -0.237124 0.195655
0.067402 -0.246873 0.163764
0.054985 -0.251286 0.168070
0.039162 -0.094856 0.238104
0.059943 -0.120777 0.252552
0.037000 -0.128929 0.260508
0.076573 -0.152870 0.254981
0.086520 -0.186250 0.245021
0.054072 -0.197781 0.256273
0.088270 -0.215837 0.224189
0.081557 -0.237124 0.195655
0.058612 -0.245277 0.203611
0.059943 -0.120777 0.252552
0.076573 -0.152870 0.254981
0.046595 -0.163522 0.265376
0.026745 -0.099269 0.242410
0.037000 -0.128929 0.260508
0.011751 -0.133158 0.259564
0.054072 -0.197781 0.256273
0.058292 -0.226489 0.234583
0.058612 -0.245277 0.203611
0.033365 -0.249506 0.202667
0.037000 -0.128929 0.260508
0.046595 -0.163522 0.265376
0.013608 -0.169047 0.264143
0.054072 -0.197781 0.256273
0.058292 -0.226489 0.234583
0.025305 -0.232015 0.233351
0.058612 -0.245277 0.203611
0.054985 -0.251286 0.168070
0.041320 -0.253574 0.167559
0.106968 -0.160395 0.117920
0.095868 -0.194691 0.114320
0.106451 -0.203324 0.135993
0.046017 -0.110603 0.093711
0.047758 -0.117616 0.088265
0.082805 -0.118117 0.102604
0.047758 -0.117616 0.088265
0.048934 -0.126305 0.086032
0.083319 -0.126797 0.100100
0.082805 -0.118117 0.102604
0.083319 -0.126797 0.100100
0.110234 -0.133840 0.124726
0.080402 -0.111095 0.107779
0.082805 -0.118117 0.102604
0.110239 -0.125295 0.127704
0.110239 -0.125295 0.127704
0.110234 -0.133840 0.124726
0.125583 -0.146361 0.156160
0.107317 -0.118137 0.132405
0.110239 -0.125295 0.127704
0.125883 -0.138058 0.159743
0.122666 -0.130658 0.163839
0.125883 -0.138058 0.159743
0.127356 -0.154461 0.193845
0.125883 -0.138058 0.159743
0.125583 -0.146361 0.156160
0.127028 -0.162454 0.189617
0.124110 -0.146752 0.197296
0.127356 -0.154461 0.193845
0.114433 -0.172007 0.224817
0.127356 -0.154461 0.193845
0.127028 -0.162454 0.189617
0.114349 -0.179669 0.220004
0.114433 -0.172007 0.224817
0.114349 -0.179669 0.220004
0.089477 -0.195386 0.242694
0.114433 -0.172007 0.224817
0.089082 -0.188027 0.247944
0.089477 -0.195386 0.242694
0.056199 -0.207210 0.254233
0.086560 -0.179683 0.250373
0.089082 -0.188027 0.247944
0.055162 -0.200079 0.259706
0.053281 -0.191508 0.261912
0.055162 -0.200079 0.259706
0.017838 -0.206331 0.258311
0.055162 -0.200079 0.259706
0.056199 -0.207210 0.254233
0.019579 -0.213344 0.252865
-0.059987 -0.177585 0.190416
-0.061433 -0.161493 0.156958
-0.048754 -0.144278 0.126572
-0.048754 -0.144278 0.126572
-0.023882 -0.128561 0.103881
0.009398 -0.116736 0.092342
0.009398 -0.116736 0.092342
0.046017 -0.110603 0.093711
0.080402 -0.111095 0.107779
0.080402 -0.111095 0.107779
0.107317 -0.118137 0.132405
0.122666 -0.130658 0.163839
0.122666 -0.130658 0.163839
0.124110 -0.146752 0.197296
0.111432 -0.163966 0.227683
0.111432 -0.163966 0.227683
0.086560 -0.179683 0.250373
0.053281 -0.191508 0.261912
0.053281 -0.191508 0.261912
0.016662 -0.197641 0.260544
-0.017723 -0.197150 0.246476
-0.017723 -0.197150 0.246476
-0.044639 -0.190107 0.221850
0.053281 -0.191508 0.261912
-0.044639 -0.190107 0.221850
-0.059987 -0.177585 0.190416
0.053281 -0.191508 0.261912
-0.059987 -0.177585 0.190416
-0.048754 -0.144278 0.126572
0.009398 -0.116736 0.092342
0.080402 -0.111095 0.107779
0.080402 -0.111095 0.107779
0.122666 -0.130658 0.163839
-0.059987 -0.177585 0.190416
0.122666 -0.130658 0.163839
0.111432 -0.163966 0.227683
0.053281 -0.191508 0.261912
0.387513 0.402253 0.442299
0.119167 -0.197892 0.149234
0.120631 -0.199438 0.151070
0.387956 0.401785 0.442855
0.120631 -0.199438 0.151070
0.120140 -0.200464 0.153642
0.387808 0.401475 0.443634
0.120140 -0.200464 0.153642
0.117983 -0.200368 0.155442
0.387155 0.401503 0.444179
0.117983 -0.200368 0.155442
0.115423 -0.199206 0.155417
-0.501609 0.264644 0.388003
-0.027978 -0.220900 0.147187
-0.028375 -0.222432 0.149510
-0.501729 0.264179 0.388707
-0.028375 -0.222432 0.149510
-0.030130 -0.224499 0.150253
-0.502261 0.263553 0.388932
-0.030130 -0.224499 0.150253
-0.032216 -0.225890 0.148980
-0.501971 0.264674 0.387233
-0.029174 -0.220798 0.144644
-0.027978 -0.220900 0.147187
-0.063029 0.530355 0.011259
0.040788 -0.178001 0.085587
0.038112 -0.178465 0.084859
-0.062471 0.530236 0.009284
0.042629 -0.178393 0.079065
0.043982 -0.177950 0.081490
-0.062061 0.530370 0.010018
0.043982 -0.177950 0.081490
0.043219 -0.177787 0.084191
-0.062292 0.530419 0.010836
0.043219 -0.177787 0.084191
0.040788 -0.178001 0.085587
-0.052646 0.136612 0.820359
0.045193 -0.240558 0.215181
0.047963 -0.240601 0.215660
-0.051807 0.136599 0.820504
0.047963 -0.240601 0.215660
0.049718 -0.242320 0.217027
-0.051275 0.136078 0.820918
0.049718 -0.242320 0.217027
0.049429 -0.244710 0.218480
-0.051362 0.135355 0.821359
0.049429 -0.244710 0.218480
0.047266 -0.246369 0.219169
0.125089 -0.191845 0.150305
0.122132 -0.199873 0.146467
0.122303 -0.204069 0.155113
0.125457 -0.198098 0.157949
0.115192 -0.194299 0.161366
0.124429 -0.198193 0.159293
0.120990 -0.204704 0.156201
0.116023 -0.192147 0.161024
0.125260 -0.196041 0.158951
0.124429 -0.198193 0.159293
0.125457 -0.198098 0.157949
0.122303 -0.204069 0.155113
0.120990 -0.204704 0.156201
0.122303 -0.204069 0.155113
0.122132 -0.199873 0.146467
0.119982 -0.201702 0.145622
0.122132 -0.199873 0.146467
0.125286 -0.193902 0.149303
0.124214 -0.192922 0.148430
0.125089 -0.191845 0.150305
0.115852 -0.187950 0.152378
0.114977 -0.189026 0.150503
0.125457 -0.198098 0.157949
0.045218 -0.170737 0.086606
0.046035 -0.172277 0.076518
0.047193 -0.180075 0.077802
0.043716 -0.168997 0.086218
0.044533 -0.170537 0.076131
0.046035 -0.172277 0.076518
0.044913 -0.172644 0.075303
0.045976 -0.179795 0.076481
0.047193 -0.180075 0.077802
0.046287 -0.182312 0.077979
0.046531 -0.187943 0.089339
0.047435 -0.185657 0.089063
0.052554 -0.242313 0.206861
0.052760 -0.247705 0.218214
0.051764 -0.243907 0.225168
0.042109 -0.250086 0.218750
0.052760 -0.247705 0.218214
0.052554 -0.242313 0.206861
0.051606 -0.243525 0.204923
0.051588 -0.248589 0.219289
0.050675 -0.245106 0.225667
0.051764 -0.243907 0.225168
0.050302 -0.243158 0.226823
0.049186 -0.234295 0.221823
0.050648 -0.235045 0.220168
0.050675 -0.245106 0.225667
0.041196 -0.246603 0.225127
0.040822 -0.244655 0.226283
-0.039734 -0.223347 0.152109
-0.038325 -0.225144 0.152578
-0.034218 -0.225812 0.140117
-0.038540 -0.219872 0.141716
-0.031531 -0.226877 0.139547
-0.039904 -0.219149 0.143463
-0.032947 -0.224956 0.139138
-0.019007 -0.224997 0.140212
-0.034048 -0.230009 0.148763
-0.018837 -0.229193 0.148858
-0.039177 -0.225346 0.151128
-0.031020 -0.218637 0.155593
-0.039904 -0.219149 0.143463
-0.056742 -0.136484 0.170831
-0.043743 -0.213948 0.170178
0.012720 -0.246091 0.141392
-0.041094 -0.119330 0.211214
-0.057778 -0.168514 0.153938
-0.020478 -0.224583 0.131249
-0.033350 -0.096366 0.167196
-0.057778 -0.168514 0.153938
-0.011736 -0.212715 0.110299
-0.045320 -0.120976 0.143458
-0.045045 -0.199451 0.140039
0.016912 -0.233663 0.117570
-0.011736 -0.212715 0.110299
-0.045320 -0.120976 0.143458
-0.033623 -0.183943 0.112666
0.016912 -0.233663 0.117570
-0.016202 -0.085530 0.151552
-0.045417 -0.151729 0.124310
-0.022915 -0.106817 0.123019
0.018760 -0.159133 0.081831
0.038610 -0.223386 0.104798
-0.016202 -0.085530 0.151552
0.011283 -0.124875 0.090935
0.028357 -0.193726 0.086699
0.038610 -0.223386 0.104798
0.031990 -0.073148 0.144540
0.046989 -0.118895 0.092269
0.028357 -0.193726 0.086699
0.007063 -0.096166 0.112624
0.051748 -0.153608 0.083064
0.065104 -0.221281 0.110557
0.009658 -0.249167 0.192968
0.013608 -0.169047 0.264143
0.025305 -0.232015 0.233351
0.041320 -0.253574 0.167559
0.011751 -0.133158 0.259564
0.018367 -0.203761 0.254938
-0.041613 -0.162259 0.229287
-0.029916 -0.225227 0.198494
0.018447 -0.250763 0.153121
-0.011955 -0.132819 0.249865
-0.041404 -0.196414 0.217210
-0.008899 -0.244312 0.175989
0.018447 -0.250763 0.153121
-0.030513 -0.127963 0.232887
-0.056370 -0.184205 0.186560
-0.008899 -0.244312 0.175989
-0.041613 -0.162259 0.229287
-0.029916 -0.225227 0.198494
-0.058516 -0.177195 0.149279
-0.061760 -0.169486 0.152730
-0.048838 -0.151940 0.121758
-0.058516 -0.177195 0.149279
-0.020964 -0.144263 0.096202
-0.023487 -0.135920 0.098631
0.012314 -0.132439 0.084663
-0.023487 -0.135920 0.098631
0.010433 -0.123868 0.086870
0.048934 -0.126305 0.086032
0.019579 -0.213344 0.252865
-0.017210 -0.205830 0.243972
-0.041722 -0.205810 0.214171
-0.017210 -0.205830 0.243972
-0.044643 -0.198651 0.218872
-0.041722 -0.205810 0.214171
0.113960 -0.197659 0.153581
0.116607 -0.196730 0.149209
0.119167 -0.197892 0.149234
0.113960 -0.197659 0.153581
-0.032216 -0.225890 0.148980
-0.033411 -0.225789 0.146437
-0.033015 -0.224256 0.144114
-0.031260 -0.222189 0.143371
0.038112 -0.178465 0.084859
0.036759 -0.178909 0.082435
0.039953 -0.178858 0.078338
0.042629 -0.178393 0.079065
0.044496 -0.246326 0.218690
0.042741 -0.244607 0.217323
0.042741 -0.244607 0.217323
0.045193 -0.240558 0.215181
0.124214 -0.192922 0.148430
0.119982 -0.201702 0.145622
0.107665 -0.207969 0.153510
0.107494 -0.203772 0.144864
0.044533 -0.170537 0.076131
0.034126 -0.174159 0.075841
0.044913 -0.172644 0.075303
0.046287 -0.182312 0.077979
0.036808 -0.183810 0.077440
0.037051 -0.189442 0.088799
0.035434 -0.174142 0.074764
0.033309 -0.172619 0.085928
0.044913 -0.172644 0.075303
0.040822 -0.244655 0.226283
0.039855 -0.245788 0.224490
0.051814 -0.248966 0.216376
0.040822 -0.244655 0.226283
0.040850 -0.249586 0.217536
0.042126 -0.245022 0.204383
0.051588 -0.248589 0.219289
3 0 1 2
3 3 4 5
3 6 7 8
3 9 10 11
3 12 13 14
3 15 16 17
3 18 19 20
3 21 22 23
3 24 25 26
3 27 28 29
3 30 31 32
3 33 34 35
3 36 37 38
3 39 40 41
3 42 43 44
3 45 46 47
3 48 49 50
3 51 52 53
3 54 55 56
3 57 58 59
3 60 61 62
3 63 64 65
3 66 67 68
3 69 70 71
3 72 73 74
3 75 76 77
3 78 79 80
3 81 82 83
3 84 85 86
3 87 88 89
3 90 91 92
3 93 94 95
3 96 97 98
3 99 100 101
3 102 103 104
3 105 106 107
3 108 109 110
3 111 112 113
3 114 115 116
3 117 118 119
3 120 121 122
3 123 124 125
3 126 127 128
3 129 130 131
3 132 133 134
3 135 136 137
3 138 139 140
3 141 142 143
3 144 145 146
3 147 148 149
3 150 151 152
3 153 154 155
3 156 157 158
3 159 160 161
3 162 163 164
3 165 166 167
3 168 169 170
3 171 172 173
3 174 175 176
3 177 178 179
3 180 181 182
3 183 184 185
3 186 187 188
3 189 190 191
3 192 193 194
3 195 196 197
3 198 199 200
3 201 202 203
3 204 205 206
3 207 208 209
3 210 211 212
3 213 214 215
3 216 217 218
3 219 220 221
3 222 223 224
3 225 226 227
3 228 229 230
3 231 232 233
3 234 235 236
3 237 238 239
3 240 241 242
3 243 244 245
3 246 247 248
3 249 250 251
3 252 253 254
3 255 256 257
3 258 259 260
3 261 262 263
3 264 265 266
3 267 268 269
3 270 271 272
3 273 274 275
3 276 277 278
3 279 280 281
3 282 283 284
3 285 286 287
3 288 289 290
3 291 292 293
3 294 295 296
3 297 298 299
3 300 301 302
3 303 304 305
3 306 307 308
3 309 310 311
3 312 313 314
3 315 316 317
3 318 319 320
3 321 322 323
3 324 325 326
3 327 328 329
3 330 331 332
3 333 334 335
3 336 337 338
3 339 340 341
3 342 343 344
3 345 346 347
3 348 349 350
3 351 352 353
3 354 355 356
3 357 358 359
3 360 361 362
3 363 364 365
3 366 367 368
3 369 370 371
3 372 373 374
3 375 376 377
3 378 379 380
3 381 382 383
3 384 385 386
3 387 388 389
3 390 391 392
3 393 394 395
3 396 397 398
3 399 400 401
3 402 403 404
3 405 406 407
3 408 409 410
3 411 412 413
3 414 415 416
3 417 418 419
3 420 421 422
3 423 424 425
3 426 427 428
3 429 430 431
3 432 433 434
3 435 436 437
3 438 439 440
3 441 442 443
3 444 445 446
3 447 448 449
3 450 451 452
3 453 454 455
3 456 457 458
3 459 460 461
3 462 463 464
3 465 466 467
3 468 469 470
3 471 472 473
3 474 475 476
3 477 478 479
3 480 481 482
3 483 484 485
3 486 487 488
3 489 490 491
3 492 493 494
3 495 496 497
3 498 499 500
3 501 502 503
3 504 505 506
3 507 508 509
3 510 511 512
3 513 514 515
3 516 517 518
3 519 520 521
3 522 523 524
3 525 526 527
3 528 529 530
3 531 532 533
3 534 535 536
3 537 538 539
3 540 541 542
3 543 544 545
3 546 547 548
3 549 550 551
3 552 553 554
3 549 555 556
3 557 558 559
3 560 561 562
3 563 564 565
3 566 567 568
3 549 569 570
3 571 572 573
3 574 575 576
3 566 577 578
3 579 580 581
3 582 583 584
3 585 586 587
3 588 589 590
3 591 592 593
3 594 595 596
3 597 598 599
3 600 601 602
3 603 604 605
3 606 607 608
3 609 610 611
3 612 613 614
3 615 616 617
3 618 619 620
3 621 622 623
3 624 625 626
3 627 628 629
3 630 631 632
3 633 634 635
3 636 637 638
3 639 640 641
3 642 643 644
3 645 646 647
3 648 649 650
3 651 652 653
3 654 655 656
3 657 658 659
3 660 661 662
3 663 664 665
3 666 667 668
3 669 670 671
3 672 673 674
3 675 676 677
3 678 679 680
3 681 682 683
3 684 685 686
3 687 688 689
3 690 691 692
3 693 694 695
3 696 697 698
3 699 700 701
3 702 703 704
3 705 706 707
3 708 709 710
3 711 712 713
3 714 715 716
3 717 718 719
3 720 721 722
3 723 724 725
3 726 727 728
3 729 730 731
3 732 733 734
3 735 736 737
3 738 739 740
3 741 742 743
3 744 745 746
3 747 748 749
3 750 751 752
3 753 754 755
3 756 757 758
3 759 760 761
3 762 763 764
3 765 766 767
3 768 769 770
3 771 772 773
3 774 775 776
3 777 778 779
3 780 781 782
3 783 784 785
3 786 787 788
3 789 790 791
3 792 793 794
3 795 796 797
3 798 799 800
3 801 802 803
3 804 805 806
3 807 808 809
3 810 811 812
3 813 814 815
3 816 817 818
3 819 820 821
3 822 823 824
3 825 826 827
3 828 829 830
3 831 832 833
3 834 835 836
3 837 838 839
3 840 841 842
3 843 844 845
3 846 847 848
3 849 850 851
3 852 853 854
3 855 856 857
3 858 859 860
3 861 862 863
3 864 865 866
3 867 868 869
3 870 871 872
3 873 874 875
3 876 877 878
3 879 880 881
3 882 883 884
3 885 886 887
3 888 889 890
3 891 892 893
3 894 895 896
3 897 898 899
3 900 901 902
3 903 904 905
3 906 907 908
3 909 910 911
3 912 913 914
3 915 916 917
3 918 919 920
3 921 922 923
3 924 925 926
3 927 928 929
3 930 931 932
3 933 934 935
3 936 937 938
3 939 940 941
3 942 943 944
3 945 946 947
3 948 949 950
3 951 952 953
3 954 955 956
3 957 958 959
3 960 961 962
3 963 964 965
3 966 967 968
3 969 970 971
3 972 973 974
3 975 976 977
3 978 979 980
3 981 982 983
3 984 985 986
3 987 988 989
3 990 991 992
3 993 994 995
3 996 997 998
3 999 1000 1001
3 1002 1003 1004
3 1005 1006 1007
3 1008 1009 1010
3 1011 1012 1013
3 1014 1015 1016
3 1017 1018 1019
3 1020 1021 1022
3 1023 1024 1025
3 1026 1027 1028
3 1029 1030 1031
3 1032 1033 1034
3 1035 1036 1037
3 189 1038 190
3 1039 1040 1041
3 1042 1043 1044
3 1045 1046 1047
3 1048 1049 1050
3 1051 1052 1053
3 222 1054 223
3 1055 1056 1057
3 1058 1059 1060
3 1061 1062 1063
3 1064 1065 1066
3 1067 1068 1069
3 240 1070 241
3 1071 1072 1073
3 1074 1075 1076
3 249 1077 250
3 1078 1079 1080
3 1081 1082 1083
3 1084 1085 1086
3 1087 1088 1089
3 276 1090 277
3 1091 1092 1093
3 1094 1095 1096
3 1097 1098 1099
3 1100 1101 1102
3 1103 1104 1105
3 1106 1107 1108
3 1109 1110 1111
3 1112 1113 1114
3 1115 1116 1117
3 1118 1119 1120
3 318 1121 319
3 1122 1123 1124
3 1125 1126 1127
3 1128 1129 1130
3 1131 1132 1133
3 1134 1135 1136
3 1137 1138 1139
3 1140 1141 1142
3 1143 1144 1145
3 1146 1147 1148
3 357 1149 358
3 1150 1151 1152
3 1153 1154 1155
3 1156 1157 1158
3 1159 1160 1161
3 1162 1163 1164
3 1165 1166 1167
3 1168 1169 1170
3 1171 1172 1173
3 1174 1175 1176
3 1177 1178 1179
3 1180 1181 1182
3 1183 1184 1185
3 1186 1187 1188
3 1189 1190 1191
3 1192 1193 1194
3 1195 1196 1197
3 516 1198 517
3 1199 1200 1201
3 1202 1203 1204
3 1205 1206 1207
3 1208 1209 1210
3 1211 1212 1213
3 1214 1215 1216
3 1217 1218 1219
3 1220 1221 1222
3 1223 1224 1225
3 1226 1227 1228
3 1229 1230 1231
3 1232 1233 1234
3 1235 1236 1237
3 1238 1239 1240
3 1240 1241 1238
3 1242 1243 1244
3 1245 1246 1247
3 1248 1249 1250
3 1251 1252 1253
3 1254 1255 1256
3 1257 1258 1259
3 1260 1261 1262
3 1263 1264 1265
3 1266 1267 1268
3 1269 1270 1271
3 1272 1273 1274
3 1275 1276 1277
3 1278 1279 1280
3 1281 1282 1283
3 1284 1285 1286
3 1287 1288 1289
3 1290 1291 1292
3 1293 1294 1295
3 831 1296 832
3 1297 1298 1299
3 1300 1301 1302
3 1303 1304 1305
3 1306 1307 1308
3 1309 1310 1311
3 1312 1313 1314
3 1315 1316 1317
3 879 1318 880
3 1319 1320 1321
3 1322 1323 1324
3 1325 1326 1327
3 1328 1329 1330
3 1331 1332 1333
3 975 1334 976
3 1335 1336 1337
3 1338 1339 1340
3 1341 1342 1343
3 1344 1345 1346
3 0 1347 1
3 3 1348 4
3 6 1349 7
3 9 1350 10
3 12 1351 13
3 27 1352 28
3 30 1353 31
3 33 1354 34
3 36 1355 37
3 39 1356 40
3 42 1357 43
3 45 1358 46
3 48 1359 49
3 69 1360 70
3 72 1361 73
3 75 1362 76
3 78 1363 79
3 81 1364 82
3 84 1365 85
3 93 1366 94
3 96 1367 97
3 99 1368 100
3 108 1369 109
3 111 1370 112
3 114 1371 115
3 117 1372 118
3 126 1373 127
3 129 1374 130
3 132 1375 133
3 135 1376 136
3 138 1377 139
3 144 1378 145
3 147 1379 148
3 150 1380 151
3 153 1381 154
3 156 1382 157
3 159 1383 160
3 165 1384 166
3 168 1385 169
3 171 1386 172
3 174 1387 175
3 183 1388 184
3 186 1389 187
3 210 1390 211
3 378 1391 379
3 387 1392 388
3 390 1393 391
3 393 1394 394
3 396 1395 397
3 399 1396 400
3 405 1397 406
3 408 1398 409
3 411 1399 412
3 414 1400 415
3 417 1401 418
3 420 1402 421
3 426 1403 427
3 429 1404 430
3 432 1405 433
3 435 1406 436
3 444 1407 445
3 447 1408 448
3 453 1409 454
3 456 1410 457
3 459 1411 460
3 462 1412 463
3 465 1413 466
3 468 1414 469
3 471 1415 472
3 474 1416 475
3 477 1417 478
3 480 1418 481
3 531 1419 532
3 534 1420 535
3 537 1421 538
3 540 1422 541
3 543 1423 544
3 546 1424 547
3 591 1425 592
3 594 1426 595
3 597 1427 598
3 630 1428 631
3 660 1429 661
3 663 1430 664
3 666 1431 667
3 687 1432 688
3 714 1433 715
3 717 1434 718
3 720 1435 721
3 723 1436 724
3 783 1437 784
3 786 1438 787
3 807 1439 808
3 810 1440 811
3 834 1441 835
3 843 1442 844
3 864 1443 865
3 870 1444 871
3 900 1445 901
3 903 1446 904
3 906 1447 907
3 912 1448 913
3 936 1449 937
3 939 1450 940
3 942 1451 943
3 945 1452 946
3 948 1453 949
3 969 1454 970
3 978 1455 979
3 981 1456 982
3 996 1457 997
3 999 1458 1000
3 1002 1459 1003
3 1005 1460 1006
